# Blender v2.91.0 OBJ File: 'circuit.blend'
# www.blender.org
mtllib car_7.mtl
o Car_07
v 5.718256 0.225762 14.960930
v 5.875490 0.225762 14.961836
v 5.866008 0.279540 14.961782
v 5.876012 0.225762 14.871134
v 5.866530 0.279540 14.871080
v 5.718779 0.225762 14.870228
v 5.838704 0.326832 14.961624
v 5.839227 0.326832 14.870922
v 5.796873 0.361933 14.961384
v 5.797395 0.361933 14.870682
v 5.745559 0.380610 14.961088
v 5.746081 0.380610 14.870386
v 5.690952 0.380610 14.960773
v 5.691475 0.380610 14.870071
v 5.639638 0.361933 14.960478
v 5.640161 0.361933 14.869776
v 5.597807 0.326832 14.960237
v 5.598330 0.326832 14.869534
v 5.570503 0.279540 14.960079
v 5.571026 0.279540 14.869377
v 5.561021 0.225762 14.960024
v 5.561544 0.225762 14.869322
v 5.570503 0.171984 14.960079
v 5.571026 0.171984 14.869377
v 5.597807 0.124692 14.960236
v 5.598330 0.124692 14.869534
v 5.639638 0.089591 14.960478
v 5.640161 0.089591 14.869776
v 5.690952 0.070914 14.960773
v 5.691475 0.070914 14.870071
v 5.745559 0.070914 14.961088
v 5.746081 0.070914 14.870386
v 5.796873 0.089591 14.961384
v 5.797395 0.089591 14.870682
v 5.838704 0.124692 14.961624
v 5.839227 0.124692 14.870922
v 5.866008 0.171984 14.961782
v 5.866530 0.171984 14.871080
v 5.711833 0.225762 16.075504
v 5.869066 0.225762 16.076408
v 5.859584 0.279540 16.076355
v 5.869589 0.225762 15.985707
v 5.860107 0.279540 15.985653
v 5.712356 0.225762 15.984801
v 5.832281 0.326832 16.076199
v 5.832804 0.326832 15.985496
v 5.790449 0.361933 16.075956
v 5.790972 0.361933 15.985254
v 5.739136 0.380610 16.075661
v 5.739658 0.380610 15.984959
v 5.684529 0.380610 16.075346
v 5.685052 0.380610 15.984644
v 5.633215 0.361933 16.075050
v 5.633738 0.361933 15.984348
v 5.591384 0.326832 16.074810
v 5.591907 0.326832 15.984108
v 5.564080 0.279540 16.074652
v 5.564603 0.279540 15.983950
v 5.554598 0.225762 16.074596
v 5.555121 0.225762 15.983895
v 5.564080 0.171983 16.074652
v 5.564603 0.171983 15.983950
v 5.591384 0.124692 16.074810
v 5.591907 0.124692 15.984107
v 5.633215 0.089590 16.075050
v 5.633738 0.089590 15.984348
v 5.684529 0.070913 16.075346
v 5.685052 0.070913 15.984644
v 5.739136 0.070913 16.075661
v 5.739658 0.070913 15.984959
v 5.790449 0.089590 16.075956
v 5.790972 0.089590 15.985254
v 5.832281 0.124692 16.076199
v 5.832804 0.124692 15.985496
v 5.859584 0.171983 16.076355
v 5.860107 0.171983 15.985653
v 4.008213 0.225762 14.951077
v 4.165448 0.225762 14.951982
v 4.155965 0.279540 14.951927
v 4.165970 0.225762 14.861280
v 4.156487 0.279540 14.861225
v 4.008736 0.225762 14.860374
v 4.128662 0.326832 14.951770
v 4.129184 0.326832 14.861068
v 4.086831 0.361933 14.951529
v 4.087353 0.361933 14.860826
v 4.035517 0.380610 14.951233
v 4.036039 0.380610 14.860531
v 3.980910 0.380610 14.950918
v 3.981432 0.380610 14.860216
v 3.929596 0.361933 14.950623
v 3.930119 0.361933 14.859921
v 3.887765 0.326832 14.950382
v 3.888288 0.326832 14.859680
v 3.860461 0.279540 14.950224
v 3.860984 0.279540 14.859522
v 3.850979 0.225762 14.950170
v 3.851501 0.225762 14.859468
v 3.860461 0.171984 14.950224
v 3.860984 0.171984 14.859522
v 3.887765 0.124692 14.950382
v 3.888288 0.124692 14.859680
v 3.929596 0.089591 14.950623
v 3.930119 0.089591 14.859921
v 3.980910 0.070914 14.950918
v 3.981432 0.070914 14.860216
v 4.035517 0.070914 14.951233
v 4.036039 0.070914 14.860531
v 4.086831 0.089591 14.951529
v 4.087353 0.089591 14.860826
v 4.128662 0.124692 14.951770
v 4.129184 0.124692 14.861068
v 4.155965 0.171984 14.951927
v 4.156487 0.171984 14.861225
v 4.001790 0.225762 16.065649
v 4.159025 0.225762 16.066555
v 4.149542 0.279540 16.066502
v 4.159547 0.225762 15.975853
v 4.150064 0.279540 15.975798
v 4.002313 0.225762 15.974947
v 4.122239 0.326832 16.066343
v 4.122761 0.326832 15.975641
v 4.080408 0.361933 16.066101
v 4.080930 0.361933 15.975400
v 4.029094 0.380610 16.065807
v 4.029616 0.380610 15.975104
v 3.974487 0.380610 16.065491
v 3.975009 0.380610 15.974790
v 3.923173 0.361933 16.065197
v 3.923696 0.361933 15.974494
v 3.881342 0.326832 16.064955
v 3.881865 0.326832 15.974253
v 3.854038 0.279540 16.064796
v 3.854561 0.279540 15.974095
v 3.844556 0.225762 16.064743
v 3.845078 0.225762 15.974041
v 3.854038 0.171983 16.064796
v 3.854561 0.171983 15.974095
v 3.881342 0.124692 16.064955
v 3.881865 0.124692 15.974253
v 3.923173 0.089590 16.065197
v 3.923696 0.089590 15.974493
v 3.974487 0.070913 16.065491
v 3.975009 0.070913 15.974790
v 4.029094 0.070913 16.065807
v 4.029616 0.070913 15.975104
v 4.080408 0.089590 16.066101
v 4.080930 0.089590 15.975400
v 4.122239 0.124692 16.066343
v 4.122761 0.124692 15.975641
v 4.149542 0.171983 16.066502
v 4.150064 0.171983 15.975798
v 3.411842 0.162714 16.014080
v 3.411842 1.305663 16.014080
v 3.418259 1.305663 14.900511
v 3.418259 0.162714 14.900511
v 5.329825 1.305663 14.911528
v 5.329825 0.162714 14.911528
v 6.224667 0.162714 14.916683
v 6.224667 0.589879 14.916683
v 6.218249 0.589879 16.030254
v 6.218249 0.162714 16.030254
v 5.323408 1.305663 16.025097
v 5.323408 1.619852 16.025097
v 3.411842 1.619852 16.014080
v 5.329825 1.619853 14.911528
v 3.418259 1.619853 14.900511
v 5.323408 0.162714 16.025097
v 5.778451 0.162714 14.914112
v 5.772034 0.162714 16.027683
v 5.772034 1.305663 16.027683
v 5.778451 1.305663 14.914112
vt 0.788040 -0.877713
vt 0.788040 -0.845555
vt 0.799519 -0.847494
vt 0.966280 -0.828025
vt 0.966280 -0.809475
vt 0.975209 -0.809475
vt 0.975209 -0.828025
vt 0.703640 -0.845555
vt 0.703640 -0.877713
vt 0.692161 -0.847494
vt 0.809614 -0.853079
vt 0.521133 -0.945952
vt 0.521133 -0.927401
vt 0.531227 -0.927401
vt 0.531227 -0.945952
vt 0.682066 -0.853079
vt 0.817106 -0.861634
vt 0.542706 -0.927401
vt 0.542706 -0.945952
vt 0.674574 -0.861634
vt 0.821093 -0.872129
vt 0.554186 -0.927401
vt 0.554186 -0.945952
vt 0.670587 -0.872129
vt 0.821093 -0.883298
vt 0.564280 -0.927401
vt 0.564280 -0.945952
vt 0.670587 -0.883298
vt 0.817106 -0.893793
vt 0.923788 -0.719784
vt 0.923788 -0.701234
vt 0.932717 -0.701234
vt 0.932717 -0.719784
vt 0.674574 -0.893793
vt 0.809614 -0.902348
vt 0.943670 -0.701234
vt 0.943670 -0.719784
vt 0.682066 -0.902348
vt 0.799519 -0.907932
vt 0.955327 -0.701234
vt 0.955327 -0.719784
vt 0.692161 -0.907932
vt 0.788040 -0.909872
vt 0.966280 -0.701234
vt 0.966280 -0.719784
vt 0.703640 -0.909872
vt 0.776561 -0.907932
vt 0.975209 -0.701234
vt 0.975209 -0.719784
vt 0.715119 -0.907932
vt 0.766466 -0.902348
vt 0.923788 -0.936267
vt 0.923788 -0.917716
vt 0.933883 -0.917716
vt 0.933883 -0.936267
vt 0.725213 -0.902348
vt 0.758974 -0.893793
vt 0.945362 -0.917716
vt 0.945362 -0.936267
vt 0.732706 -0.893793
vt 0.754987 -0.883298
vt 0.956841 -0.917716
vt 0.956841 -0.936267
vt 0.736692 -0.883298
vt 0.754987 -0.872129
vt 0.966935 -0.917716
vt 0.966935 -0.936267
vt 0.736692 -0.872129
vt 0.758974 -0.861634
vt 0.923788 -0.828025
vt 0.923788 -0.809475
vt 0.932717 -0.809475
vt 0.932717 -0.828025
vt 0.732706 -0.861634
vt 0.766466 -0.853079
vt 0.943670 -0.809475
vt 0.943670 -0.828025
vt 0.725213 -0.853079
vt 0.776561 -0.847494
vt 0.955327 -0.809475
vt 0.955327 -0.828025
vt 0.715119 -0.847494
vt 0.956841 -0.286205
vt 0.956841 -0.254047
vt 0.968320 -0.255986
vt 0.966280 -0.791945
vt 0.966280 -0.773394
vt 0.975209 -0.773394
vt 0.975209 -0.791945
vt 0.956841 -0.335893
vt 0.956841 -0.368051
vt 0.945362 -0.337832
vt 0.978414 -0.261570
vt 0.609145 -0.864106
vt 0.609145 -0.845555
vt 0.619239 -0.845555
vt 0.619239 -0.864106
vt 0.935267 -0.343417
vt 0.985907 -0.270126
vt 0.630718 -0.845555
vt 0.630718 -0.864106
vt 0.927775 -0.351972
vt 0.989893 -0.280621
vt 0.642197 -0.845555
vt 0.642197 -0.864106
vt 0.923788 -0.362467
vt 0.989893 -0.291789
vt 0.652292 -0.845555
vt 0.652292 -0.864106
vt 0.923788 -0.373635
vt 0.985907 -0.302284
vt 0.923788 -0.647623
vt 0.923788 -0.629073
vt 0.932717 -0.629073
vt 0.932717 -0.647623
vt 0.927775 -0.384130
vt 0.978414 -0.310840
vt 0.943670 -0.629073
vt 0.943670 -0.647623
vt 0.935267 -0.392686
vt 0.968320 -0.316424
vt 0.955327 -0.629073
vt 0.955327 -0.647623
vt 0.945362 -0.398270
vt 0.956841 -0.318363
vt 0.966280 -0.629073
vt 0.966280 -0.647623
vt 0.956841 -0.400209
vt 0.945362 -0.316424
vt 0.975209 -0.629073
vt 0.975209 -0.647623
vt 0.968320 -0.398270
vt 0.935267 -0.310840
vt 0.609145 -0.936267
vt 0.609145 -0.917716
vt 0.619239 -0.917716
vt 0.619239 -0.936267
vt 0.978414 -0.392686
vt 0.927775 -0.302284
vt 0.630718 -0.917716
vt 0.630718 -0.936267
vt 0.985907 -0.384130
vt 0.923788 -0.291789
vt 0.642197 -0.917716
vt 0.642197 -0.936267
vt 0.989893 -0.373635
vt 0.923788 -0.280621
vt 0.652292 -0.917716
vt 0.652292 -0.936267
vt 0.989893 -0.362467
vt 0.927775 -0.270126
vt 0.923788 -0.791945
vt 0.923788 -0.773394
vt 0.932717 -0.773394
vt 0.932717 -0.791945
vt 0.985907 -0.351972
vt 0.935267 -0.261570
vt 0.943670 -0.773394
vt 0.943670 -0.791945
vt 0.978414 -0.343417
vt 0.945362 -0.255986
vt 0.955327 -0.773394
vt 0.955327 -0.791945
vt 0.968320 -0.337832
vt 0.956841 -0.449897
vt 0.956841 -0.417739
vt 0.968320 -0.419679
vt 0.966280 -0.864106
vt 0.966280 -0.845555
vt 0.975209 -0.845555
vt 0.975209 -0.864106
vt 0.956841 -0.499585
vt 0.956841 -0.531744
vt 0.945362 -0.501525
vt 0.978414 -0.425263
vt 0.754987 -0.945952
vt 0.754987 -0.927401
vt 0.765082 -0.927401
vt 0.765082 -0.945952
vt 0.935267 -0.507109
vt 0.985907 -0.433818
vt 0.776561 -0.927401
vt 0.776561 -0.945952
vt 0.927775 -0.515664
vt 0.989893 -0.444313
vt 0.788040 -0.927401
vt 0.788040 -0.945952
vt 0.923788 -0.526159
vt 0.989893 -0.455482
vt 0.798135 -0.927401
vt 0.798135 -0.945952
vt 0.923788 -0.537328
vt 0.985907 -0.465977
vt 0.923788 -0.611543
vt 0.923788 -0.592992
vt 0.932717 -0.592992
vt 0.932717 -0.611543
vt 0.927775 -0.547823
vt 0.978414 -0.474532
vt 0.943670 -0.592992
vt 0.943670 -0.611543
vt 0.935267 -0.556378
vt 0.968320 -0.480116
vt 0.955327 -0.592992
vt 0.955327 -0.611543
vt 0.945362 -0.561962
vt 0.956841 -0.482056
vt 0.966280 -0.592992
vt 0.966280 -0.611543
vt 0.956841 -0.563902
vt 0.945362 -0.480116
vt 0.975209 -0.592992
vt 0.975209 -0.611543
vt 0.968320 -0.561962
vt 0.935267 -0.474532
vt 0.693545 -0.945952
vt 0.693545 -0.927401
vt 0.703640 -0.927401
vt 0.703640 -0.945952
vt 0.978414 -0.556378
vt 0.927775 -0.465977
vt 0.715119 -0.927401
vt 0.715119 -0.945952
vt 0.985907 -0.547823
vt 0.923788 -0.455482
vt 0.726598 -0.927401
vt 0.726598 -0.945952
vt 0.989893 -0.537328
vt 0.923788 -0.444313
vt 0.736692 -0.927401
vt 0.736692 -0.945952
vt 0.989893 -0.526159
vt 0.927775 -0.433818
vt 0.923788 -0.864106
vt 0.923788 -0.845555
vt 0.932717 -0.845555
vt 0.932717 -0.864106
vt 0.985907 -0.515664
vt 0.935267 -0.425263
vt 0.943670 -0.845555
vt 0.943670 -0.864106
vt 0.978414 -0.507109
vt 0.945362 -0.419679
vt 0.955327 -0.845555
vt 0.955327 -0.864106
vt 0.968320 -0.501525
vt 0.554186 -0.877713
vt 0.554186 -0.845555
vt 0.565665 -0.847494
vt 0.966280 -0.683704
vt 0.966280 -0.665153
vt 0.975209 -0.665153
vt 0.975209 -0.683704
vt 0.872440 -0.845555
vt 0.872440 -0.877713
vt 0.860961 -0.847494
vt 0.575759 -0.853079
vt 0.923788 -0.900186
vt 0.923788 -0.881636
vt 0.933883 -0.881636
vt 0.933883 -0.900186
vt 0.850867 -0.853079
vt 0.583252 -0.861634
vt 0.945362 -0.881636
vt 0.945362 -0.900186
vt 0.843374 -0.861634
vt 0.587238 -0.872129
vt 0.956841 -0.881636
vt 0.956841 -0.900186
vt 0.839388 -0.872129
vt 0.587238 -0.883298
vt 0.966935 -0.881636
vt 0.966935 -0.900186
vt 0.839388 -0.883298
vt 0.583252 -0.893793
vt 0.923788 -0.755865
vt 0.923788 -0.737314
vt 0.932717 -0.737314
vt 0.932717 -0.755865
vt 0.843374 -0.893793
vt 0.575759 -0.902348
vt 0.943670 -0.737314
vt 0.943670 -0.755865
vt 0.850867 -0.902348
vt 0.565665 -0.907932
vt 0.955327 -0.737314
vt 0.955327 -0.755865
vt 0.860961 -0.907932
vt 0.554186 -0.909872
vt 0.966280 -0.737314
vt 0.966280 -0.755865
vt 0.872440 -0.909872
vt 0.542706 -0.907932
vt 0.975209 -0.737314
vt 0.975209 -0.755865
vt 0.883919 -0.907932
vt 0.532612 -0.902348
vt 0.609145 -0.900186
vt 0.609145 -0.881636
vt 0.619239 -0.881636
vt 0.619239 -0.900186
vt 0.894014 -0.902348
vt 0.525120 -0.893793
vt 0.630718 -0.881636
vt 0.630718 -0.900186
vt 0.901506 -0.893793
vt 0.521133 -0.883298
vt 0.642197 -0.881636
vt 0.642197 -0.900186
vt 0.905493 -0.883298
vt 0.521133 -0.872129
vt 0.652292 -0.881636
vt 0.652292 -0.900186
vt 0.905493 -0.872129
vt 0.525120 -0.861634
vt 0.923788 -0.683704
vt 0.923788 -0.665153
vt 0.932717 -0.665153
vt 0.932717 -0.683704
vt 0.901506 -0.861634
vt 0.532612 -0.853079
vt 0.943670 -0.665153
vt 0.943670 -0.683704
vt 0.894014 -0.853079
vt 0.542706 -0.847494
vt 0.955327 -0.665153
vt 0.955327 -0.683704
vt 0.883919 -0.847494
vt 0.576169 -0.828025
vt 0.332205 -0.828025
vt 0.332205 -0.600273
vt 0.576169 -0.600273
vt 0.320176 -0.582744
vt 0.076212 -0.582744
vt 0.076212 -0.191782
vt 0.320176 -0.191782
vt 0.644738 -0.600273
vt 0.732399 -0.600273
vt 0.732399 -0.828025
vt 0.644738 -0.828025
vt 0.582436 -0.191782
vt 0.649500 -0.191782
vt 0.649500 -0.582744
vt 0.582436 -0.582744
vt 0.009148 -0.991235
vt 0.009148 -0.600273
vt 0.246845 -0.600273
vt 0.246845 -0.991235
vt 0.905493 -0.191782
vt 0.905493 -0.582744
vt 0.667795 -0.582744
vt 0.667795 -0.191782
vt 0.265140 -0.828025
vt 0.265140 -0.600273
vt 0.009148 -0.582744
vt 0.009148 -0.191782
vt 0.923788 -0.008765
vt 0.990852 -0.008765
vt 0.990852 -0.236517
vt 0.923788 -0.236517
vt 0.338472 -0.582744
vt 0.338472 -0.191782
vt 0.667795 -0.100027
vt 0.905493 -0.100027
vt 0.338472 -0.100027
vt 0.582436 -0.100027
vt 0.905493 -0.828025
vt 0.905493 -0.600273
vt 0.076212 -0.100027
vt 0.228997 -0.008765
vt 0.320176 -0.008765
vt 0.320176 -0.100027
vt 0.667795 -0.008765
vt 0.905493 -0.008765
vt 0.338472 -0.008765
vt 0.429651 -0.008765
vt 0.502838 -0.845555
vt 0.502838 -0.937310
vt 0.265140 -0.937310
vt 0.265140 -0.845555
vn -0.0058 -0.0000 1.0000
vn 0.9848 0.1736 0.0057
vn 0.0058 0.0000 -1.0000
vn 0.8660 0.5000 0.0050
vn 0.6428 0.7660 0.0037
vn -0.0057 -0.0000 1.0000
vn 0.3420 0.9397 0.0020
vn -0.0000 1.0000 0.0000
vn -0.3420 0.9397 -0.0020
vn -0.6428 0.7660 -0.0037
vn -0.8660 0.5000 -0.0050
vn -0.9848 0.1736 -0.0057
vn -0.9848 -0.1736 -0.0057
vn -0.8660 -0.5000 -0.0050
vn -0.6428 -0.7661 -0.0037
vn -0.3420 -0.9397 -0.0020
vn 0.0000 -1.0000 -0.0000
vn 0.3420 -0.9397 0.0020
vn 0.6428 -0.7660 0.0037
vn 0.0057 -0.0000 -1.0000
vn 0.8660 -0.5000 0.0050
vn 0.9848 -0.1736 0.0057
vn 0.6428 0.7661 0.0037
vn -0.9848 0.1737 -0.0057
vn -0.9848 -0.1737 -0.0057
vn -0.6428 -0.7660 -0.0037
vn 0.6428 -0.7661 0.0037
vn 0.9848 0.1737 0.0057
vn 0.9848 -0.1737 0.0057
vn -1.0000 0.0000 -0.0058
vn 1.0000 0.0000 0.0058
vn 0.8486 0.5290 0.0049
usemtl Material.041
s off
f 1/1/1 2/2/1 3/3/1
f 2/4/2 4/5/2 5/6/2 3/7/2
f 4/8/3 6/9/3 5/10/3
f 1/1/1 3/3/1 7/11/1
f 3/12/4 5/13/4 8/14/4 7/15/4
f 5/10/3 6/9/3 8/16/3
f 1/1/1 7/11/1 9/17/1
f 7/15/5 8/14/5 10/18/5 9/19/5
f 8/16/3 6/9/3 10/20/3
f 1/1/6 9/17/6 11/21/6
f 9/19/7 10/18/7 12/22/7 11/23/7
f 10/20/3 6/9/3 12/24/3
f 1/1/1 11/21/1 13/25/1
f 11/23/8 12/22/8 14/26/8 13/27/8
f 12/24/3 6/9/3 14/28/3
f 1/1/6 13/25/6 15/29/6
f 13/30/9 14/31/9 16/32/9 15/33/9
f 14/28/3 6/9/3 16/34/3
f 1/1/1 15/29/1 17/35/1
f 15/33/10 16/32/10 18/36/10 17/37/10
f 16/34/3 6/9/3 18/38/3
f 1/1/1 17/35/1 19/39/1
f 17/37/11 18/36/11 20/40/11 19/41/11
f 18/38/3 6/9/3 20/42/3
f 1/1/1 19/39/1 21/43/1
f 19/41/12 20/40/12 22/44/12 21/45/12
f 20/42/3 6/9/3 22/46/3
f 1/1/1 21/43/1 23/47/1
f 21/45/13 22/44/13 24/48/13 23/49/13
f 22/46/3 6/9/3 24/50/3
f 1/1/6 23/47/6 25/51/6
f 23/52/14 24/53/14 26/54/14 25/55/14
f 24/50/3 6/9/3 26/56/3
f 1/1/1 25/51/1 27/57/1
f 25/55/15 26/54/15 28/58/15 27/59/15
f 26/56/3 6/9/3 28/60/3
f 1/1/6 27/57/6 29/61/6
f 27/59/16 28/58/16 30/62/16 29/63/16
f 28/60/3 6/9/3 30/64/3
f 1/1/1 29/61/1 31/65/1
f 29/63/17 30/62/17 32/66/17 31/67/17
f 30/64/3 6/9/3 32/68/3
f 1/1/1 31/65/1 33/69/1
f 31/70/18 32/71/18 34/72/18 33/73/18
f 32/68/3 6/9/3 34/74/3
f 1/1/6 33/69/6 35/75/6
f 33/73/19 34/72/19 36/76/19 35/77/19
f 34/74/20 6/9/20 36/78/20
f 1/1/1 35/75/1 37/79/1
f 35/77/21 36/76/21 38/80/21 37/81/21
f 36/78/3 6/9/3 38/82/3
f 1/1/1 37/79/1 2/2/1
f 37/81/22 38/80/22 4/5/22 2/4/22
f 38/82/3 6/9/3 4/8/3
f 39/83/1 40/84/1 41/85/1
f 40/86/2 42/87/2 43/88/2 41/89/2
f 42/90/20 44/91/20 43/92/20
f 39/83/6 41/85/6 45/93/6
f 41/94/4 43/95/4 46/96/4 45/97/4
f 43/92/3 44/91/3 46/98/3
f 39/83/1 45/93/1 47/99/1
f 45/97/23 46/96/23 48/100/23 47/101/23
f 46/98/3 44/91/3 48/102/3
f 39/83/6 47/99/6 49/103/6
f 47/101/7 48/100/7 50/104/7 49/105/7
f 48/102/20 44/91/20 50/106/20
f 39/83/1 49/103/1 51/107/1
f 49/105/8 50/104/8 52/108/8 51/109/8
f 50/106/3 44/91/3 52/110/3
f 39/83/1 51/107/1 53/111/1
f 51/112/9 52/113/9 54/114/9 53/115/9
f 52/110/3 44/91/3 54/116/3
f 39/83/6 53/111/6 55/117/6
f 53/115/10 54/114/10 56/118/10 55/119/10
f 54/116/3 44/91/3 56/120/3
f 39/83/1 55/117/1 57/121/1
f 55/119/11 56/118/11 58/122/11 57/123/11
f 56/120/3 44/91/3 58/124/3
f 39/83/1 57/121/1 59/125/1
f 57/123/24 58/122/24 60/126/24 59/127/24
f 58/124/20 44/91/20 60/128/20
f 39/83/1 59/125/1 61/129/1
f 59/127/25 60/126/25 62/130/25 61/131/25
f 60/128/20 44/91/20 62/132/20
f 39/83/1 61/129/1 63/133/1
f 61/134/14 62/135/14 64/136/14 63/137/14
f 62/132/3 44/91/3 64/138/3
f 39/83/1 63/133/1 65/139/1
f 63/137/26 64/136/26 66/140/26 65/141/26
f 64/138/3 44/91/3 66/142/3
f 39/83/1 65/139/1 67/143/1
f 65/141/16 66/140/16 68/144/16 67/145/16
f 66/142/3 44/91/3 68/146/3
f 39/83/1 67/143/1 69/147/1
f 67/145/17 68/144/17 70/148/17 69/149/17
f 68/146/3 44/91/3 70/150/3
f 39/83/6 69/147/6 71/151/6
f 69/152/18 70/153/18 72/154/18 71/155/18
f 70/150/20 44/91/20 72/156/20
f 39/83/1 71/151/1 73/157/1
f 71/155/27 72/154/27 74/158/27 73/159/27
f 72/156/3 44/91/3 74/160/3
f 39/83/6 73/157/6 75/161/6
f 73/159/21 74/158/21 76/162/21 75/163/21
f 74/160/3 44/91/3 76/164/3
f 39/83/1 75/161/1 40/84/1
f 75/163/22 76/162/22 42/87/22 40/86/22
f 76/164/20 44/91/20 42/90/20
f 77/165/1 78/166/1 79/167/1
f 78/168/28 80/169/28 81/170/28 79/171/28
f 80/172/3 82/173/3 81/174/3
f 77/165/1 79/167/1 83/175/1
f 79/176/4 81/177/4 84/178/4 83/179/4
f 81/174/3 82/173/3 84/180/3
f 77/165/1 83/175/1 85/181/1
f 83/179/5 84/178/5 86/182/5 85/183/5
f 84/180/3 82/173/3 86/184/3
f 77/165/1 85/181/1 87/185/1
f 85/183/7 86/182/7 88/186/7 87/187/7
f 86/184/3 82/173/3 88/188/3
f 77/165/1 87/185/1 89/189/1
f 87/187/8 88/186/8 90/190/8 89/191/8
f 88/188/3 82/173/3 90/192/3
f 77/165/1 89/189/1 91/193/1
f 89/194/9 90/195/9 92/196/9 91/197/9
f 90/192/3 82/173/3 92/198/3
f 77/165/6 91/193/6 93/199/6
f 91/197/10 92/196/10 94/200/10 93/201/10
f 92/198/3 82/173/3 94/202/3
f 77/165/1 93/199/1 95/203/1
f 93/201/11 94/200/11 96/204/11 95/205/11
f 94/202/3 82/173/3 96/206/3
f 77/165/1 95/203/1 97/207/1
f 95/205/12 96/204/12 98/208/12 97/209/12
f 96/206/3 82/173/3 98/210/3
f 77/165/1 97/207/1 99/211/1
f 97/209/13 98/208/13 100/212/13 99/213/13
f 98/210/3 82/173/3 100/214/3
f 77/165/1 99/211/1 101/215/1
f 99/216/14 100/217/14 102/218/14 101/219/14
f 100/214/3 82/173/3 102/220/3
f 77/165/1 101/215/1 103/221/1
f 101/219/26 102/218/26 104/222/26 103/223/26
f 102/220/3 82/173/3 104/224/3
f 77/165/6 103/221/6 105/225/6
f 103/223/16 104/222/16 106/226/16 105/227/16
f 104/224/3 82/173/3 106/228/3
f 77/165/1 105/225/1 107/229/1
f 105/227/17 106/226/17 108/230/17 107/231/17
f 106/228/3 82/173/3 108/232/3
f 77/165/6 107/229/6 109/233/6
f 107/234/18 108/235/18 110/236/18 109/237/18
f 108/232/3 82/173/3 110/238/3
f 77/165/1 109/233/1 111/239/1
f 109/237/19 110/236/19 112/240/19 111/241/19
f 110/238/3 82/173/3 112/242/3
f 77/165/1 111/239/1 113/243/1
f 111/241/21 112/240/21 114/244/21 113/245/21
f 112/242/3 82/173/3 114/246/3
f 77/165/1 113/243/1 78/166/1
f 113/245/29 114/244/29 80/169/29 78/168/29
f 114/246/3 82/173/3 80/172/3
f 115/247/1 116/248/1 117/249/1
f 116/250/28 118/251/28 119/252/28 117/253/28
f 118/254/3 120/255/3 119/256/3
f 115/247/1 117/249/1 121/257/1
f 117/258/4 119/259/4 122/260/4 121/261/4
f 119/256/3 120/255/3 122/262/3
f 115/247/6 121/257/6 123/263/6
f 121/261/5 122/260/5 124/264/5 123/265/5
f 122/262/20 120/255/20 124/266/20
f 115/247/1 123/263/1 125/267/1
f 123/265/7 124/264/7 126/268/7 125/269/7
f 124/266/3 120/255/3 126/270/3
f 115/247/1 125/267/1 127/271/1
f 125/269/8 126/268/8 128/272/8 127/273/8
f 126/270/20 120/255/20 128/274/20
f 115/247/1 127/271/1 129/275/1
f 127/276/9 128/277/9 130/278/9 129/279/9
f 128/274/3 120/255/3 130/280/3
f 115/247/6 129/275/6 131/281/6
f 129/279/10 130/278/10 132/282/10 131/283/10
f 130/280/20 120/255/20 132/284/20
f 115/247/6 131/281/6 133/285/6
f 131/283/11 132/282/11 134/286/11 133/287/11
f 132/284/3 120/255/3 134/288/3
f 115/247/1 133/285/1 135/289/1
f 133/287/12 134/286/12 136/290/12 135/291/12
f 134/288/3 120/255/3 136/292/3
f 115/247/1 135/289/1 137/293/1
f 135/291/13 136/290/13 138/294/13 137/295/13
f 136/292/3 120/255/3 138/296/3
f 115/247/6 137/293/6 139/297/6
f 137/298/14 138/299/14 140/300/14 139/301/14
f 138/296/3 120/255/3 140/302/3
f 115/247/6 139/297/6 141/303/6
f 139/301/26 140/300/26 142/304/26 141/305/26
f 140/302/3 120/255/3 142/306/3
f 115/247/1 141/303/1 143/307/1
f 141/305/16 142/304/16 144/308/16 143/309/16
f 142/306/3 120/255/3 144/310/3
f 115/247/1 143/307/1 145/311/1
f 143/309/17 144/308/17 146/312/17 145/313/17
f 144/310/20 120/255/20 146/314/20
f 115/247/1 145/311/1 147/315/1
f 145/316/18 146/317/18 148/318/18 147/319/18
f 146/314/3 120/255/3 148/320/3
f 115/247/6 147/315/6 149/321/6
f 147/319/19 148/318/19 150/322/19 149/323/19
f 148/320/20 120/255/20 150/324/20
f 115/247/1 149/321/1 151/325/1
f 149/323/21 150/322/21 152/326/21 151/327/21
f 150/324/3 120/255/3 152/328/3
f 115/247/1 151/325/1 116/248/1
f 151/327/29 152/326/29 118/251/29 116/250/29
f 152/328/3 120/255/3 118/254/3
f 153/329/30 154/330/30 155/331/30 156/332/30
f 156/333/3 155/334/3 157/335/3 158/336/3
f 159/337/31 160/338/31 161/339/31 162/340/31
f 163/341/1 164/342/1 165/343/1 154/344/1
f 165/345/8 164/346/8 166/347/8 167/348/8
f 168/349/17 153/350/17 156/351/17 158/352/17
f 154/330/30 165/353/30 167/354/30 155/331/30
f 155/334/3 167/355/3 166/356/3 157/335/3
f 157/357/31 166/358/31 164/359/31 163/360/31
f 154/344/1 153/361/1 168/362/1 163/341/1
f 158/352/17 169/363/17 170/364/17 168/349/17
f 168/362/1 170/365/1 171/366/1 163/341/1
f 171/367/32 161/339/32 160/338/32 172/368/32
f 172/369/3 160/370/3 159/371/3 169/372/3
f 169/363/17 159/373/17 162/374/17 170/364/17
f 170/365/1 162/375/1 161/376/1 171/366/1
f 172/377/8 157/378/8 163/379/8 171/380/8
f 169/372/3 158/336/3 157/335/3 172/369/3
