# Blender v2.91.0 OBJ File: 'circuit.blend'
# www.blender.org
mtllib car_2.mtl
o CAR_02
v 4.741499 0.167912 14.058876
v 4.694946 0.463433 14.060019
v 4.676272 0.463434 13.298572
v 4.722826 0.167912 13.297430
v 4.915164 0.809309 14.054617
v 4.896491 0.809309 13.293171
v 5.612851 0.289506 13.275603
v 5.612851 0.167912 13.275603
v 5.880681 0.289506 13.269035
v 5.880681 0.167912 13.269035
v 6.500743 0.292682 13.253830
v 6.500743 0.167912 13.253830
v 5.612851 0.811732 13.275604
v 5.880681 0.496605 13.269035
v 6.500743 0.324867 13.253830
v 6.519417 0.292682 14.015276
v 6.519417 0.167912 14.015276
v 6.519417 0.324867 14.015276
v 5.899354 0.289506 14.030481
v 5.899354 0.167912 14.030481
v 5.631525 0.289506 14.037050
v 5.631525 0.167912 14.037050
v 5.899354 0.496604 14.030481
v 5.631525 0.811732 14.037050
v 6.180477 0.171005 13.298616
v 6.288016 0.171005 13.295979
v 6.281531 0.205775 13.296138
v 6.286524 0.171005 13.235101
v 6.280038 0.205775 13.235260
v 6.178984 0.171005 13.237738
v 6.262857 0.236351 13.296597
v 6.261364 0.236351 13.235718
v 6.234247 0.259045 13.297297
v 6.232754 0.259045 13.236420
v 6.199151 0.271121 13.298159
v 6.197658 0.271121 13.237280
v 6.161803 0.271121 13.299074
v 6.160310 0.271121 13.238195
v 6.126707 0.259045 13.299934
v 6.125214 0.259045 13.239057
v 6.098097 0.236351 13.300636
v 6.096604 0.236351 13.239758
v 6.079423 0.205775 13.301094
v 6.077930 0.205775 13.240215
v 6.072937 0.171005 13.301253
v 6.071445 0.171005 13.240376
v 6.079423 0.136236 13.301094
v 6.077930 0.136236 13.240215
v 6.098097 0.105660 13.300636
v 6.096604 0.105660 13.239758
v 6.126707 0.082965 13.299934
v 6.125214 0.082965 13.239057
v 6.161803 0.070890 13.299074
v 6.160310 0.070890 13.238195
v 6.199151 0.070890 13.298159
v 6.197658 0.070890 13.237280
v 6.234247 0.082965 13.297297
v 6.232754 0.082965 13.236420
v 6.262857 0.105660 13.296596
v 6.261364 0.105660 13.235718
v 6.281531 0.136236 13.296138
v 6.280038 0.136236 13.235260
v 6.198823 0.171005 14.046709
v 6.306363 0.171005 14.044071
v 6.299877 0.205775 14.044230
v 6.304870 0.171005 13.983193
v 6.298384 0.205775 13.983353
v 6.197330 0.171005 13.985830
v 6.281203 0.236351 14.044689
v 6.279710 0.236351 13.983810
v 6.252593 0.259045 14.045390
v 6.251100 0.259045 13.984512
v 6.217497 0.271120 14.046251
v 6.216004 0.271120 13.985373
v 6.180149 0.271120 14.047167
v 6.178656 0.271120 13.986288
v 6.145053 0.259045 14.048027
v 6.143560 0.259045 13.987149
v 6.116443 0.236351 14.048729
v 6.114950 0.236351 13.987850
v 6.097769 0.205775 14.049187
v 6.096276 0.205775 13.988308
v 6.091283 0.171005 14.049346
v 6.089790 0.171005 13.988468
v 6.097769 0.136235 14.049187
v 6.096276 0.136235 13.988308
v 6.116443 0.105659 14.048729
v 6.114950 0.105659 13.987850
v 6.145053 0.082965 14.048027
v 6.143560 0.082965 13.987149
v 6.180149 0.070890 14.047167
v 6.178656 0.070890 13.986288
v 6.217497 0.070890 14.046251
v 6.216004 0.070890 13.985373
v 6.252593 0.082965 14.045390
v 6.251100 0.082965 13.984512
v 6.281203 0.105659 14.044688
v 6.279710 0.105659 13.983810
v 6.299877 0.136235 14.044230
v 6.298384 0.136235 13.983353
v 4.971674 0.171005 13.328260
v 5.079214 0.171005 13.325623
v 5.072728 0.205775 13.325782
v 5.077721 0.171005 13.264744
v 5.071235 0.205775 13.264904
v 4.970181 0.171005 13.267382
v 5.054054 0.236351 13.326240
v 5.052561 0.236351 13.265362
v 5.025444 0.259045 13.326941
v 5.023951 0.259045 13.266064
v 4.990348 0.271121 13.327803
v 4.988855 0.271121 13.266924
v 4.953000 0.271121 13.328718
v 4.951507 0.271121 13.267839
v 4.917904 0.259045 13.329578
v 4.916411 0.259045 13.268701
v 4.889294 0.236351 13.330280
v 4.887801 0.236351 13.269402
v 4.870620 0.205775 13.330738
v 4.869127 0.205775 13.269859
v 4.864134 0.171005 13.330897
v 4.862641 0.171005 13.270020
v 4.870620 0.136236 13.330738
v 4.869127 0.136236 13.269859
v 4.889294 0.105660 13.330280
v 4.887801 0.105660 13.269402
v 4.917904 0.082965 13.329578
v 4.916411 0.082965 13.268700
v 4.953000 0.070890 13.328718
v 4.951507 0.070890 13.267839
v 4.990348 0.070890 13.327803
v 4.988855 0.070890 13.266924
v 5.025444 0.082965 13.326941
v 5.023951 0.082965 13.266064
v 5.054054 0.105660 13.326240
v 5.052561 0.105660 13.265362
v 5.072728 0.136236 13.325782
v 5.071235 0.136236 13.264904
v 4.990020 0.171005 14.076353
v 5.097560 0.171005 14.073715
v 5.091074 0.205775 14.073874
v 5.096067 0.171005 14.012836
v 5.089581 0.205775 14.012997
v 4.988527 0.171005 14.015474
v 5.072400 0.236351 14.074332
v 5.070907 0.236351 14.013454
v 5.043790 0.259045 14.075034
v 5.042297 0.259045 14.014156
v 5.008694 0.271121 14.075895
v 5.007201 0.271121 14.015017
v 4.971346 0.271121 14.076811
v 4.969853 0.271121 14.015932
v 4.936250 0.259045 14.077671
v 4.934757 0.259045 14.016793
v 4.907640 0.236351 14.078373
v 4.906147 0.236351 14.017494
v 4.888966 0.205775 14.078831
v 4.887473 0.205775 14.017952
v 4.882481 0.171005 14.078990
v 4.880988 0.171005 14.018112
v 4.888966 0.136235 14.078831
v 4.887473 0.136235 14.017952
v 4.907640 0.105660 14.078373
v 4.906147 0.105660 14.017494
v 4.936250 0.082965 14.077671
v 4.934757 0.082965 14.016792
v 4.971346 0.070890 14.076811
v 4.969853 0.070890 14.015932
v 5.008694 0.070890 14.075895
v 5.007201 0.070890 14.015017
v 5.043790 0.082965 14.075034
v 5.042297 0.082965 14.014156
v 5.072400 0.105660 14.074332
v 5.070907 0.105660 14.013454
v 5.091074 0.136235 14.073874
v 5.089581 0.136235 14.012997
vt 0.929503 0.469028
vt 0.821501 0.469028
vt 0.821501 0.722209
vt 0.929503 0.722209
vt 0.673463 0.469028
vt 0.673463 0.722209
vt 0.027499 0.238615
vt 0.009525 0.336847
vt 0.371136 0.279033
vt 0.371136 0.238615
vt 0.474544 0.279033
vt 0.474544 0.238615
vt 0.713949 0.280089
vt 0.713949 0.238615
vt 0.094551 0.451816
vt 0.371136 0.452622
vt 0.474544 0.347873
vt 0.713949 0.290787
vt 0.715025 0.991797
vt 0.763184 0.991797
vt 0.763184 0.738615
vt 0.715025 0.738615
vt 0.775607 0.991797
vt 0.775607 0.738615
vt 0.009525 0.008203
vt 0.009525 0.049677
vt 0.248930 0.048621
vt 0.248930 0.008203
vt 0.352338 0.048621
vt 0.352338 0.008203
vt 0.713949 0.106435
vt 0.695975 0.008203
vt 0.009525 0.060375
vt 0.248930 0.117461
vt 0.352338 0.222209
vt 0.628923 0.221404
vt 0.654413 0.469028
vt 0.397303 0.469028
vt 0.397303 0.722209
vt 0.654413 0.722209
vt 0.256595 0.469028
vt 0.256595 0.722209
vt 0.009525 0.469028
vt 0.009525 0.722209
vt 0.695975 0.738615
vt 0.456570 0.738615
vt 0.456570 0.991797
vt 0.695975 0.991797
vt 0.353162 0.738615
vt 0.353162 0.991797
vt 0.009525 0.738615
vt 0.009525 0.991797
vt 0.876612 0.354856
vt 0.835091 0.354856
vt 0.837595 0.366414
vt 0.928707 0.404541
vt 0.928707 0.424783
vt 0.941460 0.424783
vt 0.941460 0.404541
vt 0.877699 0.792593
vt 0.836178 0.792593
vt 0.875195 0.804151
vt 0.844805 0.376577
vt 0.951776 0.424783
vt 0.951776 0.404541
vt 0.867985 0.814314
vt 0.855852 0.384121
vt 0.937183 0.321578
vt 0.937183 0.341820
vt 0.949535 0.341820
vt 0.949535 0.321578
vt 0.856938 0.821858
vt 0.869402 0.388135
vt 0.963673 0.341820
vt 0.963673 0.321578
vt 0.843388 0.825872
vt 0.883822 0.388135
vt 0.977891 0.341820
vt 0.977891 0.321578
vt 0.828968 0.825872
vt 0.897372 0.384121
vt 0.990475 0.341820
vt 0.990475 0.321578
vt 0.815418 0.821858
vt 0.908419 0.376577
vt 0.732999 0.201967
vt 0.732999 0.222209
vt 0.743599 0.222209
vt 0.743599 0.201967
vt 0.804371 0.814314
vt 0.915629 0.366414
vt 0.756504 0.222209
vt 0.756504 0.201967
vt 0.797161 0.804151
vt 0.918133 0.354856
vt 0.770156 0.222209
vt 0.770156 0.201967
vt 0.794657 0.792593
vt 0.915629 0.343299
vt 0.782909 0.222209
vt 0.782909 0.201967
vt 0.797161 0.781036
vt 0.908419 0.333135
vt 0.793225 0.222209
vt 0.793225 0.201967
vt 0.804371 0.770872
vt 0.897372 0.325592
vt 0.805341 0.165319
vt 0.805341 0.185562
vt 0.817694 0.185562
vt 0.817694 0.165319
vt 0.815418 0.763329
vt 0.883822 0.321578
vt 0.831831 0.185562
vt 0.831831 0.165319
vt 0.828968 0.759315
vt 0.869402 0.321578
vt 0.846050 0.185562
vt 0.846050 0.165319
vt 0.843388 0.759315
vt 0.855852 0.325592
vt 0.858633 0.185562
vt 0.858633 0.165319
vt 0.856938 0.763329
vt 0.844805 0.333135
vt 0.891550 0.404541
vt 0.891550 0.424783
vt 0.902151 0.424783
vt 0.902151 0.404541
vt 0.867985 0.770872
vt 0.837595 0.343299
vt 0.915055 0.424783
vt 0.915055 0.404541
vt 0.875195 0.781036
vt 0.876612 0.271894
vt 0.835091 0.271894
vt 0.837595 0.283451
vt 0.849431 0.201967
vt 0.849431 0.222209
vt 0.862184 0.222209
vt 0.862184 0.201967
vt 0.979791 0.958519
vt 0.938270 0.958519
vt 0.977287 0.970076
vt 0.844805 0.293615
vt 0.872500 0.222209
vt 0.872500 0.201967
vt 0.970077 0.980240
vt 0.855852 0.301158
vt 0.937183 0.358226
vt 0.937183 0.378468
vt 0.949535 0.378468
vt 0.949535 0.358226
vt 0.959030 0.987783
vt 0.869402 0.305172
vt 0.963673 0.378468
vt 0.963673 0.358226
vt 0.945480 0.991797
vt 0.883822 0.305172
vt 0.977891 0.378468
vt 0.977891 0.358226
vt 0.931060 0.991797
vt 0.897372 0.301158
vt 0.990475 0.378468
vt 0.990475 0.358226
vt 0.917509 0.987783
vt 0.908419 0.293615
vt 0.732999 0.404541
vt 0.732999 0.424783
vt 0.743599 0.424783
vt 0.743599 0.404541
vt 0.906463 0.980240
vt 0.915629 0.283451
vt 0.756504 0.424783
vt 0.756504 0.404541
vt 0.899253 0.970076
vt 0.918133 0.271894
vt 0.770156 0.424783
vt 0.770156 0.404541
vt 0.896749 0.958519
vt 0.915629 0.260336
vt 0.782909 0.424783
vt 0.782909 0.404541
vt 0.899253 0.946961
vt 0.908419 0.250173
vt 0.793225 0.424783
vt 0.793225 0.404541
vt 0.906463 0.936798
vt 0.897372 0.242629
vt 0.896749 0.759315
vt 0.896749 0.779557
vt 0.909101 0.779557
vt 0.909101 0.759315
vt 0.917509 0.929254
vt 0.883822 0.238615
vt 0.923239 0.779557
vt 0.923239 0.759315
vt 0.931060 0.925240
vt 0.869402 0.238615
vt 0.937457 0.779557
vt 0.937457 0.759315
vt 0.945480 0.925240
vt 0.855852 0.242629
vt 0.950041 0.779557
vt 0.950041 0.759315
vt 0.959030 0.929254
vt 0.844805 0.250173
vt 0.812275 0.201967
vt 0.812275 0.222209
vt 0.822875 0.222209
vt 0.822875 0.201967
vt 0.970077 0.936798
vt 0.837595 0.260336
vt 0.835779 0.222209
vt 0.835779 0.201967
vt 0.977287 0.946961
vt 0.836178 0.958519
vt 0.794657 0.958519
vt 0.797161 0.970076
vt 0.933906 0.888592
vt 0.933906 0.908834
vt 0.946659 0.908834
vt 0.946659 0.888592
vt 0.877699 0.875556
vt 0.836178 0.875556
vt 0.875195 0.887113
vt 0.804371 0.980240
vt 0.956974 0.908834
vt 0.956974 0.888592
vt 0.867985 0.897277
vt 0.815418 0.987783
vt 0.937183 0.284930
vt 0.937183 0.305172
vt 0.949535 0.305172
vt 0.949535 0.284930
vt 0.856938 0.904821
vt 0.828968 0.991797
vt 0.963673 0.305172
vt 0.963673 0.284930
vt 0.843388 0.908834
vt 0.843388 0.991797
vt 0.977891 0.305172
vt 0.977891 0.284930
vt 0.828968 0.908834
vt 0.856938 0.987783
vt 0.990475 0.305172
vt 0.990475 0.284930
vt 0.815418 0.904821
vt 0.867985 0.980240
vt 0.896749 0.851944
vt 0.896749 0.872187
vt 0.907349 0.872187
vt 0.907349 0.851944
vt 0.804371 0.897277
vt 0.875195 0.970076
vt 0.920254 0.872187
vt 0.920254 0.851944
vt 0.797161 0.887113
vt 0.877699 0.958519
vt 0.933906 0.872187
vt 0.933906 0.851944
vt 0.794657 0.875556
vt 0.875195 0.946961
vt 0.946659 0.872187
vt 0.946659 0.851944
vt 0.797161 0.863998
vt 0.867985 0.936798
vt 0.956974 0.872187
vt 0.956974 0.851944
vt 0.804371 0.853835
vt 0.856938 0.929254
vt 0.877684 0.165319
vt 0.877684 0.185562
vt 0.890036 0.185562
vt 0.890036 0.165319
vt 0.815418 0.846291
vt 0.843388 0.925240
vt 0.904173 0.185562
vt 0.904173 0.165319
vt 0.828968 0.842278
vt 0.828968 0.925240
vt 0.918392 0.185562
vt 0.918392 0.165319
vt 0.843388 0.842278
vt 0.815418 0.929254
vt 0.930975 0.185562
vt 0.930975 0.165319
vt 0.856938 0.846291
vt 0.804371 0.936798
vt 0.896749 0.888592
vt 0.896749 0.908834
vt 0.907349 0.908834
vt 0.907349 0.888592
vt 0.867985 0.853835
vt 0.797161 0.946961
vt 0.920254 0.908834
vt 0.920254 0.888592
vt 0.875195 0.863998
vt 0.774520 0.354856
vt 0.732999 0.354856
vt 0.735503 0.366414
vt 0.928707 0.201967
vt 0.928707 0.222209
vt 0.941460 0.222209
vt 0.941460 0.201967
vt 0.816041 0.271894
vt 0.774520 0.271894
vt 0.813537 0.283451
vt 0.742713 0.376577
vt 0.951776 0.222209
vt 0.951776 0.201967
vt 0.806327 0.293615
vt 0.753760 0.384121
vt 0.732999 0.165319
vt 0.732999 0.185562
vt 0.745351 0.185562
vt 0.745351 0.165319
vt 0.795281 0.301158
vt 0.767310 0.388135
vt 0.759489 0.185562
vt 0.759489 0.165319
vt 0.781730 0.305172
vt 0.781730 0.388135
vt 0.773707 0.185562
vt 0.773707 0.165319
vt 0.767310 0.305172
vt 0.795281 0.384121
vt 0.786291 0.185562
vt 0.786291 0.165319
vt 0.753760 0.301158
vt 0.806327 0.376577
vt 0.812275 0.404541
vt 0.812275 0.424783
vt 0.822875 0.424783
vt 0.822875 0.404541
vt 0.742713 0.293615
vt 0.813537 0.366414
vt 0.835779 0.424783
vt 0.835779 0.404541
vt 0.735503 0.283451
vt 0.816041 0.354856
vt 0.849431 0.424783
vt 0.849431 0.404541
vt 0.732999 0.271894
vt 0.813537 0.343299
vt 0.862184 0.424783
vt 0.862184 0.404541
vt 0.735503 0.260336
vt 0.806327 0.333135
vt 0.872500 0.424783
vt 0.872500 0.404541
vt 0.742713 0.250173
vt 0.795281 0.325592
vt 0.896749 0.795963
vt 0.896749 0.816205
vt 0.909101 0.816205
vt 0.909101 0.795963
vt 0.753760 0.242629
vt 0.781730 0.321578
vt 0.923239 0.816205
vt 0.923239 0.795963
vt 0.767310 0.238615
vt 0.767310 0.321578
vt 0.937457 0.816205
vt 0.937457 0.795963
vt 0.781730 0.238615
vt 0.753760 0.325592
vt 0.950041 0.816205
vt 0.950041 0.795963
vt 0.795281 0.242629
vt 0.742713 0.333135
vt 0.891550 0.201967
vt 0.891550 0.222209
vt 0.902151 0.222209
vt 0.902151 0.201967
vt 0.806327 0.250173
vt 0.735503 0.343299
vt 0.915055 0.222209
vt 0.915055 0.201967
vt 0.813537 0.260336
vn -0.9875 -0.1557 0.0242
vn -0.8432 0.5372 0.0207
vn -0.0245 -0.0000 -0.9997
vn 0.9997 0.0000 -0.0245
vn 0.0245 0.0000 0.9997
vn -0.0034 1.0000 0.0001
vn 0.7616 0.6477 -0.0187
vn 0.2668 0.9637 -0.0065
vn -0.0000 -1.0000 -0.0000
vn 0.9827 0.1834 -0.0241
vn 0.8531 0.5213 -0.0209
vn 0.0244 0.0000 0.9997
vn 0.6212 0.7835 -0.0152
vn 0.0246 -0.0000 0.9997
vn 0.3252 0.9456 -0.0080
vn 0.0000 1.0000 0.0000
vn -0.3252 0.9456 0.0080
vn -0.6211 0.7835 0.0152
vn -0.8531 0.5213 0.0209
vn -0.9827 0.1834 0.0241
vn -0.9827 -0.1834 0.0241
vn -0.8531 -0.5213 0.0209
vn -0.6211 -0.7835 0.0152
vn -0.3252 -0.9456 0.0080
vn 0.3252 -0.9456 -0.0080
vn 0.6211 -0.7835 -0.0152
vn 0.8531 -0.5213 -0.0209
vn 0.9827 -0.1834 -0.0241
vn -0.0246 -0.0000 -0.9997
vn -0.6212 0.7835 0.0152
vn -0.6212 -0.7835 0.0152
vn 0.6212 -0.7835 -0.0152
vn 0.6211 0.7835 -0.0152
vn -0.8531 -0.5214 0.0209
vn -0.6211 -0.7836 0.0152
usemtl Material.032
s off
f 1/1/1 2/2/1 3/3/1 4/4/1
f 2/2/2 5/5/2 6/6/2 3/3/2
f 4/7/3 3/8/3 7/9/3 8/10/3
f 8/10/3 7/9/3 9/11/3 10/12/3
f 10/12/3 9/11/3 11/13/3 12/14/3
f 3/8/3 6/15/3 13/16/3 7/9/3
f 7/9/3 13/16/3 14/17/3 9/11/3
f 9/11/3 14/17/3 15/18/3 11/13/3
f 12/19/4 11/20/4 16/21/4 17/22/4
f 11/20/4 15/23/4 18/24/4 16/21/4
f 17/25/5 16/26/5 19/27/5 20/28/5
f 20/28/5 19/27/5 21/29/5 22/30/5
f 22/30/5 21/29/5 2/31/5 1/32/5
f 16/26/5 18/33/5 23/34/5 19/27/5
f 19/27/5 23/34/5 24/35/5 21/29/5
f 21/29/5 24/35/5 5/36/5 2/31/5
f 5/37/6 24/38/6 13/39/6 6/40/6
f 24/38/7 23/41/7 14/42/7 13/39/7
f 23/41/8 18/43/8 15/44/8 14/42/8
f 17/45/9 20/46/9 10/47/9 12/48/9
f 20/46/9 22/49/9 8/50/9 10/47/9
f 22/49/9 1/51/9 4/52/9 8/50/9
f 25/53/5 26/54/5 27/55/5
f 26/56/10 28/57/10 29/58/10 27/59/10
f 28/60/3 30/61/3 29/62/3
f 25/53/5 27/55/5 31/63/5
f 27/59/11 29/58/11 32/64/11 31/65/11
f 29/62/3 30/61/3 32/66/3
f 25/53/12 31/63/12 33/67/12
f 31/68/13 32/69/13 34/70/13 33/71/13
f 32/66/3 30/61/3 34/72/3
f 25/53/14 33/67/14 35/73/14
f 33/71/15 34/70/15 36/74/15 35/75/15
f 34/72/3 30/61/3 36/76/3
f 25/53/5 35/73/5 37/77/5
f 35/75/16 36/74/16 38/78/16 37/79/16
f 36/76/3 30/61/3 38/80/3
f 25/53/5 37/77/5 39/81/5
f 37/79/17 38/78/17 40/82/17 39/83/17
f 38/80/3 30/61/3 40/84/3
f 25/53/5 39/81/5 41/85/5
f 39/86/18 40/87/18 42/88/18 41/89/18
f 40/84/3 30/61/3 42/90/3
f 25/53/5 41/85/5 43/91/5
f 41/89/19 42/88/19 44/92/19 43/93/19
f 42/90/3 30/61/3 44/94/3
f 25/53/5 43/91/5 45/95/5
f 43/93/20 44/92/20 46/96/20 45/97/20
f 44/94/3 30/61/3 46/98/3
f 25/53/5 45/95/5 47/99/5
f 45/97/21 46/96/21 48/100/21 47/101/21
f 46/98/3 30/61/3 48/102/3
f 25/53/5 47/99/5 49/103/5
f 47/101/22 48/100/22 50/104/22 49/105/22
f 48/102/3 30/61/3 50/106/3
f 25/53/5 49/103/5 51/107/5
f 49/108/23 50/109/23 52/110/23 51/111/23
f 50/106/3 30/61/3 52/112/3
f 25/53/5 51/107/5 53/113/5
f 51/111/24 52/110/24 54/114/24 53/115/24
f 52/112/3 30/61/3 54/116/3
f 25/53/5 53/113/5 55/117/5
f 53/115/9 54/114/9 56/118/9 55/119/9
f 54/116/3 30/61/3 56/120/3
f 25/53/14 55/117/14 57/121/14
f 55/119/25 56/118/25 58/122/25 57/123/25
f 56/120/3 30/61/3 58/124/3
f 25/53/5 57/121/5 59/125/5
f 57/126/26 58/127/26 60/128/26 59/129/26
f 58/124/3 30/61/3 60/130/3
f 25/53/5 59/125/5 61/131/5
f 59/129/27 60/128/27 62/132/27 61/133/27
f 60/130/3 30/61/3 62/134/3
f 25/53/5 61/131/5 26/54/5
f 61/133/28 62/132/28 28/57/28 26/56/28
f 62/134/3 30/61/3 28/60/3
f 63/135/5 64/136/5 65/137/5
f 64/138/10 66/139/10 67/140/10 65/141/10
f 66/142/3 68/143/3 67/144/3
f 63/135/5 65/137/5 69/145/5
f 65/141/11 67/140/11 70/146/11 69/147/11
f 67/144/3 68/143/3 70/148/3
f 63/135/5 69/145/5 71/149/5
f 69/150/13 70/151/13 72/152/13 71/153/13
f 70/148/3 68/143/3 72/154/3
f 63/135/5 71/149/5 73/155/5
f 71/153/15 72/152/15 74/156/15 73/157/15
f 72/154/3 68/143/3 74/158/3
f 63/135/5 73/155/5 75/159/5
f 73/157/16 74/156/16 76/160/16 75/161/16
f 74/158/3 68/143/3 76/162/3
f 63/135/5 75/159/5 77/163/5
f 75/161/17 76/160/17 78/164/17 77/165/17
f 76/162/29 68/143/29 78/166/29
f 63/135/14 77/163/14 79/167/14
f 77/168/30 78/169/30 80/170/30 79/171/30
f 78/166/3 68/143/3 80/172/3
f 63/135/5 79/167/5 81/173/5
f 79/171/19 80/170/19 82/174/19 81/175/19
f 80/172/3 68/143/3 82/176/3
f 63/135/5 81/173/5 83/177/5
f 81/175/20 82/174/20 84/178/20 83/179/20
f 82/176/3 68/143/3 84/180/3
f 63/135/5 83/177/5 85/181/5
f 83/179/21 84/178/21 86/182/21 85/183/21
f 84/180/3 68/143/3 86/184/3
f 63/135/5 85/181/5 87/185/5
f 85/183/22 86/182/22 88/186/22 87/187/22
f 86/184/3 68/143/3 88/188/3
f 63/135/5 87/185/5 89/189/5
f 87/190/31 88/191/31 90/192/31 89/193/31
f 88/188/3 68/143/3 90/194/3
f 63/135/5 89/189/5 91/195/5
f 89/193/24 90/192/24 92/196/24 91/197/24
f 90/194/3 68/143/3 92/198/3
f 63/135/5 91/195/5 93/199/5
f 91/197/9 92/196/9 94/200/9 93/201/9
f 92/198/3 68/143/3 94/202/3
f 63/135/5 93/199/5 95/203/5
f 93/201/25 94/200/25 96/204/25 95/205/25
f 94/202/3 68/143/3 96/206/3
f 63/135/5 95/203/5 97/207/5
f 95/208/32 96/209/32 98/210/32 97/211/32
f 96/206/3 68/143/3 98/212/3
f 63/135/5 97/207/5 99/213/5
f 97/211/27 98/210/27 100/214/27 99/215/27
f 98/212/3 68/143/3 100/216/3
f 63/135/5 99/213/5 64/136/5
f 99/215/28 100/214/28 66/139/28 64/138/28
f 100/216/3 68/143/3 66/142/3
f 101/217/5 102/218/5 103/219/5
f 102/220/10 104/221/10 105/222/10 103/223/10
f 104/224/3 106/225/3 105/226/3
f 101/217/5 103/219/5 107/227/5
f 103/223/11 105/222/11 108/228/11 107/229/11
f 105/226/3 106/225/3 108/230/3
f 101/217/5 107/227/5 109/231/5
f 107/232/33 108/233/33 110/234/33 109/235/33
f 108/230/3 106/225/3 110/236/3
f 101/217/5 109/231/5 111/237/5
f 109/235/15 110/234/15 112/238/15 111/239/15
f 110/236/3 106/225/3 112/240/3
f 101/217/5 111/237/5 113/241/5
f 111/239/16 112/238/16 114/242/16 113/243/16
f 112/240/3 106/225/3 114/244/3
f 101/217/5 113/241/5 115/245/5
f 113/243/17 114/242/17 116/246/17 115/247/17
f 114/244/3 106/225/3 116/248/3
f 101/217/5 115/245/5 117/249/5
f 115/250/30 116/251/30 118/252/30 117/253/30
f 116/248/3 106/225/3 118/254/3
f 101/217/5 117/249/5 119/255/5
f 117/253/19 118/252/19 120/256/19 119/257/19
f 118/254/3 106/225/3 120/258/3
f 101/217/5 119/255/5 121/259/5
f 119/257/20 120/256/20 122/260/20 121/261/20
f 120/258/3 106/225/3 122/262/3
f 101/217/5 121/259/5 123/263/5
f 121/261/21 122/260/21 124/264/21 123/265/21
f 122/262/3 106/225/3 124/266/3
f 101/217/5 123/263/5 125/267/5
f 123/265/34 124/264/34 126/268/34 125/269/34
f 124/266/3 106/225/3 126/270/3
f 101/217/5 125/267/5 127/271/5
f 125/272/23 126/273/23 128/274/23 127/275/23
f 126/270/3 106/225/3 128/276/3
f 101/217/5 127/271/5 129/277/5
f 127/275/24 128/274/24 130/278/24 129/279/24
f 128/276/3 106/225/3 130/280/3
f 101/217/5 129/277/5 131/281/5
f 129/279/9 130/278/9 132/282/9 131/283/9
f 130/280/3 106/225/3 132/284/3
f 101/217/14 131/281/14 133/285/14
f 131/283/25 132/282/25 134/286/25 133/287/25
f 132/284/3 106/225/3 134/288/3
f 101/217/5 133/285/5 135/289/5
f 133/290/32 134/291/32 136/292/32 135/293/32
f 134/288/3 106/225/3 136/294/3
f 101/217/5 135/289/5 137/295/5
f 135/293/27 136/292/27 138/296/27 137/297/27
f 136/294/3 106/225/3 138/298/3
f 101/217/5 137/295/5 102/218/5
f 137/297/28 138/296/28 104/221/28 102/220/28
f 138/298/3 106/225/3 104/224/3
f 139/299/5 140/300/5 141/301/5
f 140/302/10 142/303/10 143/304/10 141/305/10
f 142/306/3 144/307/3 143/308/3
f 139/299/5 141/301/5 145/309/5
f 141/305/11 143/304/11 146/310/11 145/311/11
f 143/308/3 144/307/3 146/312/3
f 139/299/5 145/309/5 147/313/5
f 145/314/33 146/315/33 148/316/33 147/317/33
f 146/312/3 144/307/3 148/318/3
f 139/299/14 147/313/14 149/319/14
f 147/317/15 148/316/15 150/320/15 149/321/15
f 148/318/3 144/307/3 150/322/3
f 139/299/5 149/319/5 151/323/5
f 149/321/16 150/320/16 152/324/16 151/325/16
f 150/322/3 144/307/3 152/326/3
f 139/299/5 151/323/5 153/327/5
f 151/325/17 152/324/17 154/328/17 153/329/17
f 152/326/3 144/307/3 154/330/3
f 139/299/5 153/327/5 155/331/5
f 153/332/18 154/333/18 156/334/18 155/335/18
f 154/330/3 144/307/3 156/336/3
f 139/299/5 155/331/5 157/337/5
f 155/335/19 156/334/19 158/338/19 157/339/19
f 156/336/3 144/307/3 158/340/3
f 139/299/5 157/337/5 159/341/5
f 157/339/20 158/338/20 160/342/20 159/343/20
f 158/340/3 144/307/3 160/344/3
f 139/299/5 159/341/5 161/345/5
f 159/343/21 160/342/21 162/346/21 161/347/21
f 160/344/3 144/307/3 162/348/3
f 139/299/5 161/345/5 163/349/5
f 161/347/22 162/346/22 164/350/22 163/351/22
f 162/348/3 144/307/3 164/352/3
f 139/299/5 163/349/5 165/353/5
f 163/354/35 164/355/35 166/356/35 165/357/35
f 164/352/3 144/307/3 166/358/3
f 139/299/5 165/353/5 167/359/5
f 165/357/24 166/356/24 168/360/24 167/361/24
f 166/358/3 144/307/3 168/362/3
f 139/299/5 167/359/5 169/363/5
f 167/361/9 168/360/9 170/364/9 169/365/9
f 168/362/3 144/307/3 170/366/3
f 139/299/5 169/363/5 171/367/5
f 169/365/25 170/364/25 172/368/25 171/369/25
f 170/366/3 144/307/3 172/370/3
f 139/299/5 171/367/5 173/371/5
f 171/372/26 172/373/26 174/374/26 173/375/26
f 172/370/3 144/307/3 174/376/3
f 139/299/5 173/371/5 175/377/5
f 173/375/27 174/374/27 176/378/27 175/379/27
f 174/376/3 144/307/3 176/380/3
f 139/299/5 175/377/5 140/300/5
f 175/379/28 176/378/28 142/303/28 140/302/28
f 176/380/3 144/307/3 142/306/3
