# Blender v2.91.0 OBJ File: 'circuit.blend'
# www.blender.org
mtllib car_12.mtl
o Car_12
v 14.877962 0.478880 12.935921
v 14.877962 1.209952 12.935921
v 14.880734 1.209952 14.142697
v 14.880734 0.478880 14.142697
v 10.965671 1.209952 14.151691
v 10.965671 0.478880 14.151691
v 10.683027 0.219690 14.152341
v 10.683027 0.478880 14.152341
v 10.680255 0.478880 12.945564
v 10.680255 0.219690 12.945564
v 10.962898 0.219690 12.944916
v 10.962898 0.478880 12.944916
v 14.877962 0.219690 12.935921
v 10.962898 1.209952 12.944916
v 14.880734 0.219690 14.142697
v 10.965671 0.219690 14.151691
v 10.916955 1.209952 12.945021
v 10.919727 1.209952 14.151796
v 14.015364 0.234354 13.014114
v 14.190578 0.234354 13.013712
v 14.180012 0.290987 13.013737
v 14.190325 0.234354 12.903343
v 14.179758 0.290987 12.903368
v 14.015110 0.234354 12.903746
v 14.149586 0.340790 13.013806
v 14.149332 0.340790 12.903438
v 14.102971 0.377755 13.013914
v 14.102718 0.377755 12.903545
v 14.045790 0.397423 13.014045
v 14.045536 0.397423 12.903676
v 13.984938 0.397423 13.014185
v 13.984685 0.397423 12.903816
v 13.927756 0.377755 13.014317
v 13.927504 0.377755 12.903948
v 13.881142 0.340790 13.014423
v 13.880888 0.340790 12.904055
v 13.850716 0.290987 13.014493
v 13.850462 0.290987 12.904124
v 13.840149 0.234354 13.014517
v 13.839896 0.234354 12.904148
v 13.850716 0.177720 13.014493
v 13.850462 0.177720 12.904124
v 13.881142 0.127918 13.014423
v 13.880888 0.127918 12.904055
v 13.927756 0.090953 13.014317
v 13.927504 0.090953 12.903948
v 13.984938 0.071284 13.014185
v 13.984685 0.071284 12.903816
v 14.045790 0.071284 13.014045
v 14.045536 0.071284 12.903676
v 14.102971 0.090953 13.013914
v 14.102718 0.090953 12.903545
v 14.149586 0.127918 13.013806
v 14.149332 0.127918 12.903438
v 14.180012 0.177720 13.013737
v 14.179758 0.177720 12.903368
v 14.018078 0.234354 14.195382
v 14.193293 0.234354 14.194980
v 14.182725 0.290987 14.195004
v 14.193039 0.234354 14.084611
v 14.182472 0.290987 14.084635
v 14.017824 0.234354 14.085013
v 14.152300 0.340790 14.195074
v 14.152046 0.340790 14.084705
v 14.105684 0.377755 14.195181
v 14.105432 0.377755 14.084812
v 14.048504 0.397423 14.195312
v 14.048250 0.397423 14.084944
v 13.987652 0.397423 14.195452
v 13.987398 0.397423 14.085083
v 13.930470 0.377755 14.195583
v 13.930218 0.377755 14.085215
v 13.883855 0.340790 14.195690
v 13.883602 0.340790 14.085321
v 13.853430 0.290987 14.195761
v 13.853176 0.290987 14.085392
v 13.842863 0.234354 14.195785
v 13.842609 0.234354 14.085416
v 13.853430 0.177720 14.195761
v 13.853176 0.177720 14.085392
v 13.883855 0.127918 14.195690
v 13.883602 0.127918 14.085321
v 13.930470 0.090953 14.195583
v 13.930218 0.090953 14.085215
v 13.987652 0.071284 14.195452
v 13.987398 0.071284 14.085083
v 14.048504 0.071284 14.195312
v 14.048250 0.071284 14.084944
v 14.105684 0.090953 14.195181
v 14.105432 0.090953 14.084812
v 14.152300 0.127918 14.195074
v 14.152046 0.127918 14.084705
v 14.182725 0.177720 14.195004
v 14.182472 0.177720 14.084635
v 11.423216 0.225859 13.002027
v 11.598431 0.225859 13.001624
v 11.587864 0.282493 13.001648
v 11.598177 0.225859 12.891255
v 11.587610 0.282493 12.891279
v 11.422962 0.225859 12.891658
v 11.557438 0.332295 13.001719
v 11.557184 0.332295 12.891350
v 11.510823 0.369260 13.001825
v 11.510570 0.369260 12.891457
v 11.453642 0.388929 13.001957
v 11.453388 0.388929 12.891588
v 11.392791 0.388929 13.002096
v 11.392537 0.388929 12.891727
v 11.335609 0.369260 13.002228
v 11.335356 0.369260 12.891859
v 11.288994 0.332295 13.002335
v 11.288740 0.332295 12.891966
v 11.258568 0.282493 13.002405
v 11.258314 0.282493 12.892036
v 11.248001 0.225859 13.002429
v 11.247747 0.225859 12.892060
v 11.258568 0.169226 13.002405
v 11.258314 0.169226 12.892036
v 11.288994 0.119423 13.002335
v 11.288740 0.119423 12.891966
v 11.335609 0.082458 13.002228
v 11.335356 0.082458 12.891859
v 11.392791 0.062790 13.002096
v 11.392537 0.062790 12.891727
v 11.453642 0.062790 13.001957
v 11.453388 0.062790 12.891588
v 11.510823 0.082458 13.001825
v 11.510570 0.082458 12.891457
v 11.557438 0.119423 13.001719
v 11.557184 0.119423 12.891350
v 11.587864 0.169226 13.001648
v 11.587610 0.169226 12.891279
v 11.425930 0.225859 14.183294
v 11.601145 0.225859 14.182892
v 11.590578 0.282493 14.182916
v 11.600891 0.225859 14.072523
v 11.590324 0.282493 14.072547
v 11.425676 0.225859 14.072926
v 11.560152 0.332295 14.182985
v 11.559898 0.332295 14.072617
v 11.513536 0.369260 14.183092
v 11.513283 0.369260 14.072723
v 11.456356 0.388929 14.183224
v 11.456102 0.388929 14.072855
v 11.395504 0.388929 14.183364
v 11.395250 0.388929 14.072995
v 11.338323 0.369260 14.183495
v 11.338069 0.369260 14.073126
v 11.291708 0.332295 14.183602
v 11.291454 0.332295 14.073234
v 11.261282 0.282493 14.183672
v 11.261028 0.282493 14.073303
v 11.250715 0.225859 14.183697
v 11.250462 0.225859 14.073328
v 11.261282 0.169226 14.183672
v 11.261028 0.169226 14.073303
v 11.291708 0.119423 14.183602
v 11.291454 0.119423 14.073234
v 11.338323 0.082458 14.183495
v 11.338069 0.082458 14.073126
v 11.395504 0.062790 14.183364
v 11.395250 0.062790 14.072995
v 11.456356 0.062790 14.183224
v 11.456102 0.062790 14.072855
v 11.513536 0.082458 14.183092
v 11.513283 0.082458 14.072723
v 11.560152 0.119423 14.182985
v 11.559898 0.119423 14.072617
v 11.590578 0.169226 14.182916
v 11.590324 0.169226 14.072547
vt 0.943072 -0.252102
vt 0.807064 -0.252102
vt 0.807064 -0.009413
vt 0.943072 -0.009413
vt 0.008708 -0.679467
vt 0.008708 -0.532445
vt 0.737065 -0.532445
vt 0.737065 -0.679467
vt 0.763029 -0.270929
vt 0.810659 -0.270929
vt 0.810659 -0.513618
vt 0.763029 -0.513618
vt 0.061291 -0.949564
vt 0.061291 -0.897440
vt 0.789648 -0.897440
vt 0.789648 -0.949564
vt 0.745613 -0.513618
vt 0.017255 -0.513618
vt 0.017255 -0.270929
vt 0.745613 -0.270929
vt 0.737065 -0.252102
vt 0.008708 -0.252102
vt 0.008708 -0.009413
vt 0.737065 -0.009413
vt 0.789648 -0.009413
vt 0.789648 -0.252102
vt 0.008708 -0.897440
vt 0.052744 -0.750418
vt 0.061291 -0.750418
vt 0.008708 -0.513618
vt 0.008708 -0.270929
vt 0.789648 -0.679467
vt 0.789648 -0.731591
vt 0.737065 -0.731591
vt 0.991292 -0.009413
vt 0.991292 -0.252102
vt 0.789648 -0.750418
vt 0.951869 -0.270929
vt 0.951869 -0.513618
vt 0.008708 -0.949564
vt 0.745613 -0.532445
vt 0.922271 -0.698797
vt 0.889674 -0.698797
vt 0.891640 -0.687408
vt 0.471496 -0.968391
vt 0.471496 -0.990587
vt 0.460778 -0.990587
vt 0.460778 -0.968391
vt 0.954868 -0.783212
vt 0.922271 -0.783212
vt 0.952902 -0.771823
vt 0.897301 -0.677392
vt 0.450648 -0.990587
vt 0.450648 -0.968391
vt 0.947242 -0.761807
vt 0.905973 -0.669958
vt 0.442326 -0.990587
vt 0.442326 -0.968391
vt 0.938570 -0.754373
vt 0.916611 -0.666003
vt 0.608115 -0.968391
vt 0.608115 -0.990587
vt 0.598236 -0.990587
vt 0.598236 -0.968391
vt 0.927932 -0.750418
vt 0.927932 -0.666003
vt 0.587074 -0.990587
vt 0.587074 -0.968391
vt 0.916611 -0.750418
vt 0.938570 -0.669958
vt 0.575975 -0.990587
vt 0.575975 -0.968391
vt 0.905973 -0.754373
vt 0.947242 -0.677392
vt 0.566277 -0.990587
vt 0.566277 -0.968391
vt 0.897301 -0.761807
vt 0.952902 -0.687408
vt 0.424909 -0.968391
vt 0.424909 -0.990587
vt 0.416811 -0.990587
vt 0.416811 -0.968391
vt 0.891640 -0.771823
vt 0.954868 -0.698797
vt 0.406799 -0.990587
vt 0.406799 -0.968391
vt 0.889674 -0.783212
vt 0.952902 -0.710186
vt 0.396081 -0.990587
vt 0.396081 -0.968391
vt 0.891640 -0.794601
vt 0.947242 -0.720202
vt 0.385950 -0.990587
vt 0.385950 -0.968391
vt 0.897301 -0.804617
vt 0.938570 -0.727636
vt 0.377628 -0.990587
vt 0.377628 -0.968391
vt 0.905973 -0.812050
vt 0.927932 -0.731591
vt 0.548861 -0.968391
vt 0.548861 -0.990587
vt 0.538982 -0.990587
vt 0.538982 -0.968391
vt 0.916611 -0.816006
vt 0.916611 -0.731591
vt 0.527820 -0.990587
vt 0.527820 -0.968391
vt 0.927932 -0.816006
vt 0.905973 -0.727636
vt 0.516721 -0.990587
vt 0.516721 -0.968391
vt 0.938570 -0.812050
vt 0.897301 -0.720202
vt 0.507023 -0.990587
vt 0.507023 -0.968391
vt 0.947242 -0.804617
vt 0.891640 -0.710186
vt 0.489607 -0.968391
vt 0.489607 -0.990587
vt 0.481508 -0.990587
vt 0.481508 -0.968391
vt 0.952902 -0.794601
vt 0.839661 -0.698797
vt 0.807064 -0.698797
vt 0.809030 -0.687408
vt 0.910532 -0.834833
vt 0.910532 -0.857028
vt 0.899814 -0.857028
vt 0.899814 -0.834833
vt 0.872258 -0.614382
vt 0.839661 -0.614382
vt 0.870292 -0.602993
vt 0.814691 -0.677392
vt 0.889674 -0.857028
vt 0.889674 -0.834833
vt 0.864632 -0.592978
vt 0.823363 -0.669958
vt 0.360212 -0.968391
vt 0.360212 -0.990587
vt 0.352826 -0.990587
vt 0.352826 -0.968391
vt 0.855960 -0.585544
vt 0.834001 -0.666003
vt 0.342959 -0.990587
vt 0.342959 -0.968391
vt 0.845322 -0.581588
vt 0.845322 -0.666003
vt 0.331801 -0.990587
vt 0.331801 -0.968391
vt 0.834001 -0.581588
vt 0.855960 -0.669958
vt 0.320697 -0.990587
vt 0.320697 -0.968391
vt 0.823363 -0.585544
vt 0.864632 -0.677392
vt 0.310988 -0.990587
vt 0.310988 -0.968391
vt 0.814691 -0.592978
vt 0.870292 -0.687408
vt 0.303844 -0.990587
vt 0.303844 -0.968391
vt 0.809030 -0.602993
vt 0.872258 -0.698797
vt 0.704670 -0.968391
vt 0.704670 -0.990587
vt 0.694667 -0.990587
vt 0.694667 -0.968391
vt 0.807064 -0.614382
vt 0.870292 -0.710186
vt 0.683949 -0.990587
vt 0.683949 -0.968391
vt 0.809030 -0.625772
vt 0.864632 -0.720202
vt 0.673809 -0.990587
vt 0.673809 -0.968391
vt 0.814691 -0.635787
vt 0.855960 -0.727636
vt 0.138860 -0.968391
vt 0.138860 -0.990587
vt 0.131474 -0.990587
vt 0.131474 -0.968391
vt 0.823363 -0.643221
vt 0.845322 -0.731591
vt 0.121607 -0.990587
vt 0.121607 -0.968391
vt 0.834001 -0.647176
vt 0.834001 -0.731591
vt 0.110449 -0.990587
vt 0.110449 -0.968391
vt 0.845322 -0.647176
vt 0.823363 -0.727636
vt 0.099345 -0.990587
vt 0.099345 -0.968391
vt 0.855960 -0.643221
vt 0.814691 -0.720202
vt 0.089636 -0.990587
vt 0.089636 -0.968391
vt 0.864632 -0.635787
vt 0.809030 -0.710186
vt 0.082492 -0.990587
vt 0.082492 -0.968391
vt 0.870292 -0.625772
vt 0.920535 -0.834833
vt 0.920535 -0.857028
vt 0.839661 -0.952042
vt 0.807064 -0.952042
vt 0.809030 -0.940652
vt 0.646390 -0.968391
vt 0.646390 -0.990587
vt 0.635672 -0.990587
vt 0.635672 -0.968391
vt 0.954868 -0.614382
vt 0.922271 -0.614382
vt 0.952902 -0.602993
vt 0.814691 -0.930637
vt 0.625532 -0.990587
vt 0.625532 -0.968391
vt 0.947242 -0.592978
vt 0.823363 -0.923203
vt 0.065076 -0.968391
vt 0.065076 -0.990587
vt 0.057690 -0.990587
vt 0.057690 -0.968391
vt 0.938570 -0.585544
vt 0.834001 -0.919247
vt 0.047823 -0.990587
vt 0.047823 -0.968391
vt 0.927932 -0.581588
vt 0.845322 -0.919247
vt 0.036665 -0.990587
vt 0.036665 -0.968391
vt 0.916611 -0.581588
vt 0.855960 -0.923203
vt 0.025561 -0.990587
vt 0.025561 -0.968391
vt 0.905973 -0.585544
vt 0.864632 -0.930637
vt 0.015852 -0.990587
vt 0.015852 -0.968391
vt 0.897301 -0.592978
vt 0.870292 -0.940652
vt 0.008708 -0.990587
vt 0.008708 -0.968391
vt 0.891640 -0.602993
vt 0.872258 -0.952042
vt 0.911709 -0.540566
vt 0.911709 -0.562762
vt 0.901706 -0.562762
vt 0.901706 -0.540566
vt 0.889674 -0.614382
vt 0.870292 -0.963431
vt 0.890988 -0.562762
vt 0.890988 -0.540566
vt 0.891640 -0.625772
vt 0.864632 -0.973446
vt 0.880848 -0.562762
vt 0.880848 -0.540566
vt 0.897301 -0.635787
vt 0.855960 -0.980880
vt 0.863432 -0.540566
vt 0.863432 -0.562762
vt 0.856046 -0.562762
vt 0.856046 -0.540566
vt 0.905973 -0.643221
vt 0.845322 -0.984836
vt 0.846179 -0.562762
vt 0.846179 -0.540566
vt 0.916611 -0.647176
vt 0.834001 -0.984836
vt 0.835021 -0.562762
vt 0.835021 -0.540566
vt 0.927932 -0.647176
vt 0.823363 -0.980880
vt 0.823918 -0.562762
vt 0.823918 -0.540566
vt 0.938570 -0.643221
vt 0.814691 -0.973446
vt 0.814208 -0.562762
vt 0.814208 -0.540566
vt 0.947242 -0.635787
vt 0.809030 -0.963431
vt 0.807064 -0.562762
vt 0.807064 -0.540566
vt 0.952902 -0.625772
vt 0.656393 -0.968391
vt 0.656393 -0.990587
vt 0.839661 -0.783212
vt 0.807064 -0.783212
vt 0.809030 -0.771823
vt 0.910532 -0.875855
vt 0.910532 -0.898051
vt 0.899814 -0.898051
vt 0.899814 -0.875855
vt 0.872258 -0.867627
vt 0.839661 -0.867627
vt 0.870292 -0.856237
vt 0.814691 -0.761807
vt 0.889674 -0.898051
vt 0.889674 -0.875855
vt 0.864632 -0.846222
vt 0.823363 -0.754373
vt 0.286428 -0.968391
vt 0.286428 -0.990587
vt 0.279042 -0.990587
vt 0.279042 -0.968391
vt 0.855960 -0.838788
vt 0.834001 -0.750418
vt 0.269175 -0.990587
vt 0.269175 -0.968391
vt 0.845322 -0.834833
vt 0.845322 -0.750418
vt 0.258017 -0.990587
vt 0.258017 -0.968391
vt 0.834001 -0.834833
vt 0.855960 -0.754373
vt 0.246913 -0.990587
vt 0.246913 -0.968391
vt 0.823363 -0.838788
vt 0.864632 -0.761807
vt 0.237204 -0.990587
vt 0.237204 -0.968391
vt 0.814691 -0.846222
vt 0.870292 -0.771823
vt 0.230060 -0.990587
vt 0.230060 -0.968391
vt 0.809030 -0.856237
vt 0.872258 -0.783212
vt 0.752947 -0.968391
vt 0.752947 -0.990587
vt 0.742944 -0.990587
vt 0.742944 -0.968391
vt 0.807064 -0.867627
vt 0.870292 -0.794601
vt 0.732226 -0.990587
vt 0.732226 -0.968391
vt 0.809030 -0.879016
vt 0.864632 -0.804617
vt 0.722086 -0.990587
vt 0.722086 -0.968391
vt 0.814691 -0.889032
vt 0.855960 -0.812050
vt 0.212644 -0.968391
vt 0.212644 -0.990587
vt 0.205258 -0.990587
vt 0.205258 -0.968391
vt 0.823363 -0.896465
vt 0.845322 -0.816006
vt 0.195391 -0.990587
vt 0.195391 -0.968391
vt 0.834001 -0.900421
vt 0.834001 -0.816006
vt 0.184233 -0.990587
vt 0.184233 -0.968391
vt 0.845322 -0.900421
vt 0.823363 -0.812050
vt 0.173129 -0.990587
vt 0.173129 -0.968391
vt 0.855960 -0.896465
vt 0.814691 -0.804617
vt 0.163420 -0.990587
vt 0.163420 -0.968391
vt 0.864632 -0.889032
vt 0.809030 -0.794601
vt 0.156276 -0.990587
vt 0.156276 -0.968391
vt 0.870292 -0.879016
vt 0.920535 -0.875855
vt 0.920535 -0.898051
vt 0.008708 -0.731591
vn 1.0000 0.0000 -0.0023
vn 0.0023 0.0000 1.0000
vn -1.0000 0.0000 0.0023
vn -0.0023 0.0000 -1.0000
vn -0.0000 1.0000 -0.0000
vn 0.0000 -1.0000 0.0000
vn -0.9514 0.3080 0.0022
vn 0.9830 0.1834 -0.0023
vn 0.8533 0.5213 -0.0020
vn 0.6213 0.7835 -0.0014
vn 0.3253 0.9456 -0.0007
vn -0.3253 0.9456 0.0007
vn -0.6213 0.7835 0.0014
vn -0.8533 0.5213 0.0020
vn -0.9830 0.1834 0.0023
vn -0.9830 -0.1834 0.0023
vn -0.8533 -0.5213 0.0020
vn -0.6213 -0.7835 0.0014
vn -0.3253 -0.9456 0.0007
vn 0.3253 -0.9456 -0.0007
vn 0.6213 -0.7835 -0.0014
vn 0.8533 -0.5213 -0.0020
vn 0.9830 -0.1834 -0.0023
vn 0.8534 0.5213 -0.0020
vn 0.6213 0.7836 -0.0014
vn -0.8534 0.5213 0.0020
vn -0.8534 -0.5213 0.0020
vn 0.0024 0.0000 1.0000
vn -0.0024 0.0000 -1.0000
vn 0.8534 -0.5213 -0.0020
vn 0.6213 -0.7836 -0.0014
usemtl Material.046
s off
f 1/1/1 2/2/1 3/3/1 4/4/1
f 4/5/2 3/6/2 5/7/2 6/8/2
f 7/9/3 8/10/3 9/11/3 10/12/3
f 11/13/4 12/14/4 1/15/4 13/16/4
f 2/17/5 14/18/5 5/19/5 3/20/5
f 11/21/6 13/22/6 15/23/6 16/24/6
f 16/24/6 7/25/6 10/26/6 11/21/6
f 9/27/4 17/28/4 14/29/4 12/14/4
f 14/18/5 17/30/5 18/31/5 5/19/5
f 8/32/2 7/33/2 16/34/2 6/8/2
f 4/4/1 15/35/1 13/36/1 1/1/1
f 12/14/4 14/29/4 2/37/4 1/15/4
f 8/10/7 18/38/7 17/39/7 9/11/7
f 12/14/4 11/13/4 10/40/4 9/27/4
f 6/8/2 5/7/2 18/41/2 8/32/2
f 19/42/2 20/43/2 21/44/2
f 20/45/8 22/46/8 23/47/8 21/48/8
f 22/49/4 24/50/4 23/51/4
f 19/42/2 21/44/2 25/52/2
f 21/48/9 23/47/9 26/53/9 25/54/9
f 23/51/4 24/50/4 26/55/4
f 19/42/2 25/52/2 27/56/2
f 25/54/10 26/53/10 28/57/10 27/58/10
f 26/55/4 24/50/4 28/59/4
f 19/42/2 27/56/2 29/60/2
f 27/61/11 28/62/11 30/63/11 29/64/11
f 28/59/4 24/50/4 30/65/4
f 19/42/2 29/60/2 31/66/2
f 29/64/5 30/63/5 32/67/5 31/68/5
f 30/65/4 24/50/4 32/69/4
f 19/42/2 31/66/2 33/70/2
f 31/68/12 32/67/12 34/71/12 33/72/12
f 32/69/4 24/50/4 34/73/4
f 19/42/2 33/70/2 35/74/2
f 33/72/13 34/71/13 36/75/13 35/76/13
f 34/73/4 24/50/4 36/77/4
f 19/42/2 35/74/2 37/78/2
f 35/79/14 36/80/14 38/81/14 37/82/14
f 36/77/4 24/50/4 38/83/4
f 19/42/2 37/78/2 39/84/2
f 37/82/15 38/81/15 40/85/15 39/86/15
f 38/83/4 24/50/4 40/87/4
f 19/42/2 39/84/2 41/88/2
f 39/86/16 40/85/16 42/89/16 41/90/16
f 40/87/4 24/50/4 42/91/4
f 19/42/2 41/88/2 43/92/2
f 41/90/17 42/89/17 44/93/17 43/94/17
f 42/91/4 24/50/4 44/95/4
f 19/42/2 43/92/2 45/96/2
f 43/94/18 44/93/18 46/97/18 45/98/18
f 44/95/4 24/50/4 46/99/4
f 19/42/2 45/96/2 47/100/2
f 45/101/19 46/102/19 48/103/19 47/104/19
f 46/99/4 24/50/4 48/105/4
f 19/42/2 47/100/2 49/106/2
f 47/104/6 48/103/6 50/107/6 49/108/6
f 48/105/4 24/50/4 50/109/4
f 19/42/2 49/106/2 51/110/2
f 49/108/20 50/107/20 52/111/20 51/112/20
f 50/109/4 24/50/4 52/113/4
f 19/42/2 51/110/2 53/114/2
f 51/112/21 52/111/21 54/115/21 53/116/21
f 52/113/4 24/50/4 54/117/4
f 19/42/2 53/114/2 55/118/2
f 53/119/22 54/120/22 56/121/22 55/122/22
f 54/117/4 24/50/4 56/123/4
f 19/42/2 55/118/2 20/43/2
f 55/122/23 56/121/23 22/46/23 20/45/23
f 56/123/4 24/50/4 22/49/4
f 57/124/2 58/125/2 59/126/2
f 58/127/8 60/128/8 61/129/8 59/130/8
f 60/131/4 62/132/4 61/133/4
f 57/124/2 59/126/2 63/134/2
f 59/130/24 61/129/24 64/135/24 63/136/24
f 61/133/4 62/132/4 64/137/4
f 57/124/2 63/134/2 65/138/2
f 63/139/25 64/140/25 66/141/25 65/142/25
f 64/137/4 62/132/4 66/143/4
f 57/124/2 65/138/2 67/144/2
f 65/142/11 66/141/11 68/145/11 67/146/11
f 66/143/4 62/132/4 68/147/4
f 57/124/2 67/144/2 69/148/2
f 67/146/5 68/145/5 70/149/5 69/150/5
f 68/147/4 62/132/4 70/151/4
f 57/124/2 69/148/2 71/152/2
f 69/150/12 70/149/12 72/153/12 71/154/12
f 70/151/4 62/132/4 72/155/4
f 57/124/2 71/152/2 73/156/2
f 71/154/13 72/153/13 74/157/13 73/158/13
f 72/155/4 62/132/4 74/159/4
f 57/124/2 73/156/2 75/160/2
f 73/158/26 74/157/26 76/161/26 75/162/26
f 74/159/4 62/132/4 76/163/4
f 57/124/2 75/160/2 77/164/2
f 75/165/15 76/166/15 78/167/15 77/168/15
f 76/163/4 62/132/4 78/169/4
f 57/124/2 77/164/2 79/170/2
f 77/168/16 78/167/16 80/171/16 79/172/16
f 78/169/4 62/132/4 80/173/4
f 57/124/2 79/170/2 81/174/2
f 79/172/27 80/171/27 82/175/27 81/176/27
f 80/173/4 62/132/4 82/177/4
f 57/124/2 81/174/2 83/178/2
f 81/179/18 82/180/18 84/181/18 83/182/18
f 82/177/4 62/132/4 84/183/4
f 57/124/2 83/178/2 85/184/2
f 83/182/19 84/181/19 86/185/19 85/186/19
f 84/183/4 62/132/4 86/187/4
f 57/124/28 85/184/28 87/188/28
f 85/186/6 86/185/6 88/189/6 87/190/6
f 86/187/29 62/132/29 88/191/29
f 57/124/2 87/188/2 89/192/2
f 87/190/20 88/189/20 90/193/20 89/194/20
f 88/191/4 62/132/4 90/195/4
f 57/124/2 89/192/2 91/196/2
f 89/194/21 90/193/21 92/197/21 91/198/21
f 90/195/4 62/132/4 92/199/4
f 57/124/2 91/196/2 93/200/2
f 91/198/30 92/197/30 94/201/30 93/202/30
f 92/199/4 62/132/4 94/203/4
f 57/124/2 93/200/2 58/125/2
f 93/204/23 94/205/23 60/128/23 58/127/23
f 94/203/4 62/132/4 60/131/4
f 95/206/2 96/207/2 97/208/2
f 96/209/8 98/210/8 99/211/8 97/212/8
f 98/213/4 100/214/4 99/215/4
f 95/206/2 97/208/2 101/216/2
f 97/212/9 99/211/9 102/217/9 101/218/9
f 99/215/4 100/214/4 102/219/4
f 95/206/2 101/216/2 103/220/2
f 101/221/25 102/222/25 104/223/25 103/224/25
f 102/219/4 100/214/4 104/225/4
f 95/206/2 103/220/2 105/226/2
f 103/224/11 104/223/11 106/227/11 105/228/11
f 104/225/4 100/214/4 106/229/4
f 95/206/2 105/226/2 107/230/2
f 105/228/5 106/227/5 108/231/5 107/232/5
f 106/229/4 100/214/4 108/233/4
f 95/206/2 107/230/2 109/234/2
f 107/232/12 108/231/12 110/235/12 109/236/12
f 108/233/4 100/214/4 110/237/4
f 95/206/2 109/234/2 111/238/2
f 109/236/13 110/235/13 112/239/13 111/240/13
f 110/237/4 100/214/4 112/241/4
f 95/206/2 111/238/2 113/242/2
f 111/240/14 112/239/14 114/243/14 113/244/14
f 112/241/4 100/214/4 114/245/4
f 95/206/2 113/242/2 115/246/2
f 113/247/15 114/248/15 116/249/15 115/250/15
f 114/245/4 100/214/4 116/251/4
f 95/206/2 115/246/2 117/252/2
f 115/250/16 116/249/16 118/253/16 117/254/16
f 116/251/4 100/214/4 118/255/4
f 95/206/2 117/252/2 119/256/2
f 117/254/17 118/253/17 120/257/17 119/258/17
f 118/255/4 100/214/4 120/259/4
f 95/206/2 119/256/2 121/260/2
f 119/261/18 120/262/18 122/263/18 121/264/18
f 120/259/4 100/214/4 122/265/4
f 95/206/2 121/260/2 123/266/2
f 121/264/19 122/263/19 124/267/19 123/268/19
f 122/265/4 100/214/4 124/269/4
f 95/206/2 123/266/2 125/270/2
f 123/268/6 124/267/6 126/271/6 125/272/6
f 124/269/29 100/214/29 126/273/29
f 95/206/2 125/270/2 127/274/2
f 125/272/20 126/271/20 128/275/20 127/276/20
f 126/273/4 100/214/4 128/277/4
f 95/206/2 127/274/2 129/278/2
f 127/276/31 128/275/31 130/279/31 129/280/31
f 128/277/4 100/214/4 130/281/4
f 95/206/2 129/278/2 131/282/2
f 129/280/22 130/279/22 132/283/22 131/284/22
f 130/281/4 100/214/4 132/285/4
f 95/206/2 131/282/2 96/207/2
f 131/286/23 132/287/23 98/210/23 96/209/23
f 132/285/4 100/214/4 98/213/4
f 133/288/2 134/289/2 135/290/2
f 134/291/8 136/292/8 137/293/8 135/294/8
f 136/295/4 138/296/4 137/297/4
f 133/288/2 135/290/2 139/298/2
f 135/294/24 137/293/24 140/299/24 139/300/24
f 137/297/4 138/296/4 140/301/4
f 133/288/2 139/298/2 141/302/2
f 139/303/25 140/304/25 142/305/25 141/306/25
f 140/301/4 138/296/4 142/307/4
f 133/288/2 141/302/2 143/308/2
f 141/306/11 142/305/11 144/309/11 143/310/11
f 142/307/4 138/296/4 144/311/4
f 133/288/2 143/308/2 145/312/2
f 143/310/5 144/309/5 146/313/5 145/314/5
f 144/311/4 138/296/4 146/315/4
f 133/288/2 145/312/2 147/316/2
f 145/314/12 146/313/12 148/317/12 147/318/12
f 146/315/4 138/296/4 148/319/4
f 133/288/2 147/316/2 149/320/2
f 147/318/13 148/317/13 150/321/13 149/322/13
f 148/319/4 138/296/4 150/323/4
f 133/288/2 149/320/2 151/324/2
f 149/322/26 150/321/26 152/325/26 151/326/26
f 150/323/4 138/296/4 152/327/4
f 133/288/2 151/324/2 153/328/2
f 151/329/15 152/330/15 154/331/15 153/332/15
f 152/327/4 138/296/4 154/333/4
f 133/288/2 153/328/2 155/334/2
f 153/332/16 154/331/16 156/335/16 155/336/16
f 154/333/4 138/296/4 156/337/4
f 133/288/2 155/334/2 157/338/2
f 155/336/27 156/335/27 158/339/27 157/340/27
f 156/337/4 138/296/4 158/341/4
f 133/288/2 157/338/2 159/342/2
f 157/343/18 158/344/18 160/345/18 159/346/18
f 158/341/4 138/296/4 160/347/4
f 133/288/2 159/342/2 161/348/2
f 159/346/19 160/345/19 162/349/19 161/350/19
f 160/347/4 138/296/4 162/351/4
f 133/288/2 161/348/2 163/352/2
f 161/350/6 162/349/6 164/353/6 163/354/6
f 162/351/4 138/296/4 164/355/4
f 133/288/2 163/352/2 165/356/2
f 163/354/20 164/353/20 166/357/20 165/358/20
f 164/355/4 138/296/4 166/359/4
f 133/288/2 165/356/2 167/360/2
f 165/358/31 166/357/31 168/361/31 167/362/31
f 166/359/4 138/296/4 168/363/4
f 133/288/2 167/360/2 169/364/2
f 167/362/30 168/361/30 170/365/30 169/366/30
f 168/363/4 138/296/4 170/367/4
f 133/288/2 169/364/2 134/289/2
f 169/368/23 170/369/23 136/292/23 134/291/23
f 170/367/4 138/296/4 136/295/4
f 6/8/2 16/34/2 15/370/2 4/5/2
