# Blender v2.91.0 OBJ File: 'circuit.blend'
# www.blender.org
mtllib car_9.mtl
o Car_09
v 6.270649 0.226685 9.109928
v 6.427883 0.226685 9.110834
v 6.418401 0.280463 9.110780
v 6.428405 0.226685 9.020132
v 6.418923 0.280463 9.020078
v 6.271172 0.226685 9.019226
v 6.391097 0.327755 9.110622
v 6.391620 0.327755 9.019920
v 6.349266 0.362856 9.110381
v 6.349788 0.362856 9.019680
v 6.297952 0.381533 9.110085
v 6.298474 0.381533 9.019384
v 6.243345 0.381533 9.109771
v 6.243868 0.381533 9.019070
v 6.192031 0.362856 9.109475
v 6.192554 0.362856 9.018773
v 6.150200 0.327755 9.109234
v 6.150723 0.327755 9.018533
v 6.122896 0.280463 9.109076
v 6.123419 0.280463 9.018375
v 6.113414 0.226685 9.109022
v 6.113937 0.226685 9.018320
v 6.122896 0.172907 9.109076
v 6.123419 0.172907 9.018375
v 6.150200 0.125615 9.109234
v 6.150723 0.125615 9.018533
v 6.192031 0.090514 9.109475
v 6.192554 0.090514 9.018773
v 6.243345 0.071837 9.109771
v 6.243868 0.071837 9.019069
v 6.297952 0.071837 9.110085
v 6.298474 0.071837 9.019383
v 6.349266 0.090514 9.110381
v 6.349788 0.090514 9.019680
v 6.391097 0.125615 9.110622
v 6.391620 0.125615 9.019920
v 6.418401 0.172907 9.110780
v 6.418923 0.172907 9.020078
v 6.264225 0.226685 10.224502
v 6.421459 0.226685 10.225408
v 6.411977 0.280463 10.225353
v 6.421982 0.226685 10.134706
v 6.412500 0.280463 10.134651
v 6.264749 0.226685 10.133800
v 6.384674 0.327755 10.225196
v 6.385197 0.327755 10.134494
v 6.342842 0.362856 10.224955
v 6.343365 0.362856 10.134253
v 6.291529 0.381533 10.224659
v 6.292051 0.381533 10.133957
v 6.236922 0.381533 10.224344
v 6.237445 0.381533 10.133642
v 6.185608 0.362856 10.224049
v 6.186131 0.362856 10.133347
v 6.143777 0.327755 10.223807
v 6.144300 0.327755 10.133106
v 6.116473 0.280463 10.223650
v 6.116996 0.280463 10.132948
v 6.106991 0.226685 10.223596
v 6.107514 0.226685 10.132894
v 6.116473 0.172906 10.223650
v 6.116996 0.172906 10.132948
v 6.143777 0.125615 10.223807
v 6.144300 0.125615 10.133106
v 6.185608 0.090513 10.224049
v 6.186131 0.090513 10.133347
v 6.236922 0.071836 10.224344
v 6.237445 0.071836 10.133642
v 6.291529 0.071836 10.224659
v 6.292051 0.071836 10.133957
v 6.342842 0.090513 10.224955
v 6.343365 0.090513 10.134253
v 6.384674 0.125615 10.225196
v 6.385197 0.125615 10.134494
v 6.411977 0.172906 10.225353
v 6.412500 0.172906 10.134651
v 4.560606 0.226685 9.100074
v 4.717841 0.226685 9.100980
v 4.708358 0.280463 9.100925
v 4.718363 0.226685 9.010278
v 4.708880 0.280463 9.010223
v 4.561129 0.226685 9.009372
v 4.681055 0.327755 9.100768
v 4.681577 0.327755 9.010066
v 4.639224 0.362856 9.100527
v 4.639746 0.362856 9.009825
v 4.587910 0.381533 9.100231
v 4.588432 0.381533 9.009529
v 4.533303 0.381533 9.099916
v 4.533825 0.381533 9.009214
v 4.481989 0.362856 9.099621
v 4.482512 0.362856 9.008919
v 4.440158 0.327755 9.099380
v 4.440681 0.327755 9.008677
v 4.412854 0.280463 9.099222
v 4.413377 0.280463 9.008520
v 4.403372 0.226685 9.099168
v 4.403894 0.226685 9.008466
v 4.412854 0.172907 9.099222
v 4.413377 0.172907 9.008520
v 4.440158 0.125615 9.099380
v 4.440681 0.125615 9.008677
v 4.481989 0.090514 9.099621
v 4.482512 0.090514 9.008919
v 4.533303 0.071837 9.099916
v 4.533825 0.071837 9.009214
v 4.587910 0.071837 9.100231
v 4.588432 0.071837 9.009529
v 4.639224 0.090514 9.100527
v 4.639746 0.090514 9.009825
v 4.681055 0.125615 9.100768
v 4.681577 0.125615 9.010066
v 4.708358 0.172907 9.100925
v 4.708880 0.172907 9.010223
v 4.554183 0.226685 10.214647
v 4.711418 0.226685 10.215553
v 4.701935 0.280463 10.215498
v 4.711940 0.226685 10.124851
v 4.702457 0.280463 10.124797
v 4.554706 0.226685 10.123945
v 4.674632 0.327755 10.215342
v 4.675154 0.327755 10.124640
v 4.632801 0.362856 10.215100
v 4.633323 0.362856 10.124398
v 4.581487 0.381533 10.214804
v 4.582009 0.381533 10.124103
v 4.526880 0.381533 10.214489
v 4.527402 0.381533 10.123788
v 4.475566 0.362856 10.214193
v 4.476089 0.362856 10.123492
v 4.433735 0.327755 10.213953
v 4.434258 0.327755 10.123251
v 4.406431 0.280463 10.213796
v 4.406954 0.280463 10.123094
v 4.396949 0.226685 10.213741
v 4.397471 0.226685 10.123039
v 4.406431 0.172906 10.213796
v 4.406954 0.172906 10.123094
v 4.433735 0.125615 10.213953
v 4.434258 0.125615 10.123251
v 4.475566 0.090513 10.214193
v 4.476089 0.090513 10.123492
v 4.526880 0.071836 10.214489
v 4.527402 0.071836 10.123788
v 4.581487 0.071836 10.214804
v 4.582009 0.071836 10.124103
v 4.632801 0.090513 10.215099
v 4.633323 0.090513 10.124398
v 4.674632 0.125615 10.215342
v 4.675154 0.125615 10.124640
v 4.701935 0.172906 10.215498
v 4.702457 0.172906 10.124797
v 3.964235 0.163637 10.163080
v 3.964235 1.306586 10.163080
v 3.970652 1.306586 9.049510
v 3.970652 0.163637 9.049509
v 5.882218 1.306586 9.060526
v 5.882218 0.163637 9.060526
v 6.777060 0.163637 9.065682
v 6.777060 0.590802 9.065682
v 6.770642 0.590802 10.179253
v 6.770642 0.163637 10.179253
v 5.875801 1.306586 10.174096
v 5.875801 1.620775 10.174096
v 3.964235 1.620775 10.163080
v 5.882218 1.620775 9.060526
v 3.970652 1.620775 9.049510
v 5.875801 0.163637 10.174095
v 6.330844 0.163637 9.063110
v 6.324427 0.163637 10.176682
v 6.324427 1.306586 10.176682
v 6.330844 1.306586 9.063111
vt 0.788040 -0.877713
vt 0.788040 -0.845555
vt 0.799519 -0.847494
vt 0.966280 -0.828025
vt 0.966280 -0.809475
vt 0.975209 -0.809475
vt 0.975209 -0.828025
vt 0.703640 -0.845555
vt 0.703640 -0.877713
vt 0.692161 -0.847494
vt 0.809614 -0.853079
vt 0.521133 -0.945952
vt 0.521133 -0.927401
vt 0.531227 -0.927401
vt 0.531227 -0.945952
vt 0.682066 -0.853079
vt 0.817106 -0.861634
vt 0.542706 -0.927401
vt 0.542706 -0.945952
vt 0.674574 -0.861634
vt 0.821093 -0.872129
vt 0.554186 -0.927401
vt 0.554186 -0.945952
vt 0.670587 -0.872129
vt 0.821093 -0.883298
vt 0.564280 -0.927401
vt 0.564280 -0.945952
vt 0.670587 -0.883298
vt 0.817106 -0.893793
vt 0.923788 -0.719784
vt 0.923788 -0.701234
vt 0.932717 -0.701234
vt 0.932717 -0.719784
vt 0.674574 -0.893793
vt 0.809614 -0.902348
vt 0.943670 -0.701234
vt 0.943670 -0.719784
vt 0.682066 -0.902348
vt 0.799519 -0.907932
vt 0.955327 -0.701234
vt 0.955327 -0.719784
vt 0.692161 -0.907932
vt 0.788040 -0.909872
vt 0.966280 -0.701234
vt 0.966280 -0.719784
vt 0.703640 -0.909872
vt 0.776561 -0.907932
vt 0.975209 -0.701234
vt 0.975209 -0.719784
vt 0.715119 -0.907932
vt 0.766466 -0.902348
vt 0.923788 -0.936267
vt 0.923788 -0.917716
vt 0.933883 -0.917716
vt 0.933883 -0.936267
vt 0.725213 -0.902348
vt 0.758974 -0.893793
vt 0.945362 -0.917716
vt 0.945362 -0.936267
vt 0.732706 -0.893793
vt 0.754987 -0.883298
vt 0.956841 -0.917716
vt 0.956841 -0.936267
vt 0.736692 -0.883298
vt 0.754987 -0.872129
vt 0.966935 -0.917716
vt 0.966935 -0.936267
vt 0.736692 -0.872129
vt 0.758974 -0.861634
vt 0.923788 -0.828025
vt 0.923788 -0.809475
vt 0.932717 -0.809475
vt 0.932717 -0.828025
vt 0.732706 -0.861634
vt 0.766466 -0.853079
vt 0.943670 -0.809475
vt 0.943670 -0.828025
vt 0.725213 -0.853079
vt 0.776561 -0.847494
vt 0.955327 -0.809475
vt 0.955327 -0.828025
vt 0.715119 -0.847494
vt 0.956841 -0.286205
vt 0.956841 -0.254047
vt 0.968320 -0.255986
vt 0.966280 -0.791945
vt 0.966280 -0.773394
vt 0.975209 -0.773394
vt 0.975209 -0.791945
vt 0.956841 -0.335893
vt 0.956841 -0.368051
vt 0.945362 -0.337832
vt 0.978414 -0.261570
vt 0.609145 -0.864106
vt 0.609145 -0.845555
vt 0.619239 -0.845555
vt 0.619239 -0.864106
vt 0.935267 -0.343417
vt 0.985907 -0.270126
vt 0.630718 -0.845555
vt 0.630718 -0.864106
vt 0.927775 -0.351972
vt 0.989893 -0.280621
vt 0.642197 -0.845555
vt 0.642197 -0.864106
vt 0.923788 -0.362467
vt 0.989893 -0.291789
vt 0.652292 -0.845555
vt 0.652292 -0.864106
vt 0.923788 -0.373635
vt 0.985907 -0.302284
vt 0.923788 -0.647623
vt 0.923788 -0.629073
vt 0.932717 -0.629073
vt 0.932717 -0.647623
vt 0.927775 -0.384130
vt 0.978414 -0.310840
vt 0.943670 -0.629073
vt 0.943670 -0.647623
vt 0.935267 -0.392686
vt 0.968320 -0.316424
vt 0.955327 -0.629073
vt 0.955327 -0.647623
vt 0.945362 -0.398270
vt 0.956841 -0.318363
vt 0.966280 -0.629073
vt 0.966280 -0.647623
vt 0.956841 -0.400209
vt 0.945362 -0.316424
vt 0.975209 -0.629073
vt 0.975209 -0.647623
vt 0.968320 -0.398270
vt 0.935267 -0.310840
vt 0.609145 -0.936267
vt 0.609145 -0.917716
vt 0.619239 -0.917716
vt 0.619239 -0.936267
vt 0.978414 -0.392686
vt 0.927775 -0.302284
vt 0.630718 -0.917716
vt 0.630718 -0.936267
vt 0.985907 -0.384130
vt 0.923788 -0.291789
vt 0.642197 -0.917716
vt 0.642197 -0.936267
vt 0.989893 -0.373635
vt 0.923788 -0.280621
vt 0.652292 -0.917716
vt 0.652292 -0.936267
vt 0.989893 -0.362467
vt 0.927775 -0.270126
vt 0.923788 -0.791945
vt 0.923788 -0.773394
vt 0.932717 -0.773394
vt 0.932717 -0.791945
vt 0.985907 -0.351972
vt 0.935267 -0.261570
vt 0.943670 -0.773394
vt 0.943670 -0.791945
vt 0.978414 -0.343417
vt 0.945362 -0.255986
vt 0.955327 -0.773394
vt 0.955327 -0.791945
vt 0.968320 -0.337832
vt 0.956841 -0.449897
vt 0.956841 -0.417739
vt 0.968320 -0.419679
vt 0.966280 -0.864106
vt 0.966280 -0.845555
vt 0.975209 -0.845555
vt 0.975209 -0.864106
vt 0.956841 -0.499585
vt 0.956841 -0.531744
vt 0.945362 -0.501525
vt 0.978414 -0.425263
vt 0.754987 -0.945952
vt 0.754987 -0.927401
vt 0.765082 -0.927401
vt 0.765082 -0.945952
vt 0.935267 -0.507109
vt 0.985907 -0.433818
vt 0.776561 -0.927401
vt 0.776561 -0.945952
vt 0.927775 -0.515664
vt 0.989893 -0.444313
vt 0.788040 -0.927401
vt 0.788040 -0.945952
vt 0.923788 -0.526159
vt 0.989893 -0.455482
vt 0.798135 -0.927401
vt 0.798135 -0.945952
vt 0.923788 -0.537328
vt 0.985907 -0.465977
vt 0.923788 -0.611543
vt 0.923788 -0.592992
vt 0.932717 -0.592992
vt 0.932717 -0.611543
vt 0.927775 -0.547823
vt 0.978414 -0.474532
vt 0.943670 -0.592992
vt 0.943670 -0.611543
vt 0.935267 -0.556378
vt 0.968320 -0.480116
vt 0.955327 -0.592992
vt 0.955327 -0.611543
vt 0.945362 -0.561962
vt 0.956841 -0.482056
vt 0.966280 -0.592992
vt 0.966280 -0.611543
vt 0.956841 -0.563902
vt 0.945362 -0.480116
vt 0.975209 -0.592992
vt 0.975209 -0.611543
vt 0.968320 -0.561962
vt 0.935267 -0.474532
vt 0.693545 -0.945952
vt 0.693545 -0.927401
vt 0.703640 -0.927401
vt 0.703640 -0.945952
vt 0.978414 -0.556378
vt 0.927775 -0.465977
vt 0.715119 -0.927401
vt 0.715119 -0.945952
vt 0.985907 -0.547823
vt 0.923788 -0.455482
vt 0.726598 -0.927401
vt 0.726598 -0.945952
vt 0.989893 -0.537328
vt 0.923788 -0.444313
vt 0.736692 -0.927401
vt 0.736692 -0.945952
vt 0.989893 -0.526159
vt 0.927775 -0.433818
vt 0.923788 -0.864106
vt 0.923788 -0.845555
vt 0.932717 -0.845555
vt 0.932717 -0.864106
vt 0.985907 -0.515664
vt 0.935267 -0.425263
vt 0.943670 -0.845555
vt 0.943670 -0.864106
vt 0.978414 -0.507109
vt 0.945362 -0.419679
vt 0.955327 -0.845555
vt 0.955327 -0.864106
vt 0.968320 -0.501525
vt 0.554186 -0.877713
vt 0.554186 -0.845555
vt 0.565665 -0.847494
vt 0.966280 -0.683704
vt 0.966280 -0.665153
vt 0.975209 -0.665153
vt 0.975209 -0.683704
vt 0.872440 -0.845555
vt 0.872440 -0.877713
vt 0.860961 -0.847494
vt 0.575759 -0.853079
vt 0.923788 -0.900186
vt 0.923788 -0.881636
vt 0.933883 -0.881636
vt 0.933883 -0.900186
vt 0.850867 -0.853079
vt 0.583252 -0.861634
vt 0.945362 -0.881636
vt 0.945362 -0.900186
vt 0.843374 -0.861634
vt 0.587238 -0.872129
vt 0.956841 -0.881636
vt 0.956841 -0.900186
vt 0.839388 -0.872129
vt 0.587238 -0.883298
vt 0.966935 -0.881636
vt 0.966935 -0.900186
vt 0.839388 -0.883298
vt 0.583252 -0.893793
vt 0.923788 -0.755865
vt 0.923788 -0.737314
vt 0.932717 -0.737314
vt 0.932717 -0.755865
vt 0.843374 -0.893793
vt 0.575759 -0.902348
vt 0.943670 -0.737314
vt 0.943670 -0.755865
vt 0.850867 -0.902348
vt 0.565665 -0.907932
vt 0.955327 -0.737314
vt 0.955327 -0.755865
vt 0.860961 -0.907932
vt 0.554186 -0.909872
vt 0.966280 -0.737314
vt 0.966280 -0.755865
vt 0.872440 -0.909872
vt 0.542706 -0.907932
vt 0.975209 -0.737314
vt 0.975209 -0.755865
vt 0.883919 -0.907932
vt 0.532612 -0.902348
vt 0.609145 -0.900186
vt 0.609145 -0.881636
vt 0.619239 -0.881636
vt 0.619239 -0.900186
vt 0.894014 -0.902348
vt 0.525120 -0.893793
vt 0.630718 -0.881636
vt 0.630718 -0.900186
vt 0.901506 -0.893793
vt 0.521133 -0.883298
vt 0.642197 -0.881636
vt 0.642197 -0.900186
vt 0.905493 -0.883298
vt 0.521133 -0.872129
vt 0.652292 -0.881636
vt 0.652292 -0.900186
vt 0.905493 -0.872129
vt 0.525120 -0.861634
vt 0.923788 -0.683704
vt 0.923788 -0.665153
vt 0.932717 -0.665153
vt 0.932717 -0.683704
vt 0.901506 -0.861634
vt 0.532612 -0.853079
vt 0.943670 -0.665153
vt 0.943670 -0.683704
vt 0.894014 -0.853079
vt 0.542706 -0.847494
vt 0.955327 -0.665153
vt 0.955327 -0.683704
vt 0.883919 -0.847494
vt 0.576169 -0.828025
vt 0.332205 -0.828025
vt 0.332205 -0.600273
vt 0.576169 -0.600273
vt 0.320176 -0.582744
vt 0.076212 -0.582744
vt 0.076212 -0.191782
vt 0.320176 -0.191782
vt 0.644738 -0.600273
vt 0.732399 -0.600273
vt 0.732399 -0.828025
vt 0.644738 -0.828025
vt 0.582436 -0.191782
vt 0.649500 -0.191782
vt 0.649500 -0.582744
vt 0.582436 -0.582744
vt 0.009148 -0.991235
vt 0.009148 -0.600273
vt 0.246845 -0.600273
vt 0.246845 -0.991235
vt 0.905493 -0.191782
vt 0.905493 -0.582744
vt 0.667795 -0.582744
vt 0.667795 -0.191782
vt 0.265140 -0.828025
vt 0.265140 -0.600273
vt 0.009148 -0.582744
vt 0.009148 -0.191782
vt 0.923788 -0.008765
vt 0.990852 -0.008765
vt 0.990852 -0.236517
vt 0.923788 -0.236517
vt 0.338472 -0.582744
vt 0.338472 -0.191782
vt 0.667795 -0.100027
vt 0.905493 -0.100027
vt 0.338472 -0.100027
vt 0.582436 -0.100027
vt 0.905493 -0.828025
vt 0.905493 -0.600273
vt 0.076212 -0.100027
vt 0.228997 -0.008765
vt 0.320176 -0.008765
vt 0.320176 -0.100027
vt 0.667795 -0.008765
vt 0.905493 -0.008765
vt 0.338472 -0.008765
vt 0.429651 -0.008765
vt 0.502838 -0.845555
vt 0.502838 -0.937310
vt 0.265140 -0.937310
vt 0.265140 -0.845555
vn -0.0058 -0.0000 1.0000
vn 0.9848 0.1736 0.0057
vn 0.0058 0.0000 -1.0000
vn 0.8660 0.5000 0.0050
vn 0.6428 0.7660 0.0037
vn 0.3420 0.9397 0.0020
vn -0.0057 0.0000 1.0000
vn 0.0000 1.0000 -0.0000
vn -0.3420 0.9397 -0.0020
vn -0.6428 0.7660 -0.0037
vn 0.0057 -0.0000 -1.0000
vn -0.8660 0.5000 -0.0050
vn -0.9848 0.1736 -0.0057
vn -0.9848 -0.1736 -0.0057
vn -0.8660 -0.5000 -0.0050
vn -0.6428 -0.7660 -0.0037
vn -0.3420 -0.9397 -0.0020
vn 0.0000 -1.0000 -0.0000
vn 0.3420 -0.9397 0.0020
vn 0.6428 -0.7661 0.0037
vn 0.8660 -0.5000 0.0050
vn 0.9848 -0.1736 0.0057
vn 0.6428 0.7661 0.0037
vn 0.9848 0.1737 0.0057
vn 0.6428 -0.7660 0.0037
vn 0.9848 -0.1737 0.0057
vn -1.0000 -0.0000 -0.0058
vn 1.0000 0.0000 0.0058
vn 0.8486 0.5290 0.0049
usemtl Material.043
s off
f 1/1/1 2/2/1 3/3/1
f 2/4/2 4/5/2 5/6/2 3/7/2
f 4/8/3 6/9/3 5/10/3
f 1/1/1 3/3/1 7/11/1
f 3/12/4 5/13/4 8/14/4 7/15/4
f 5/10/3 6/9/3 8/16/3
f 1/1/1 7/11/1 9/17/1
f 7/15/5 8/14/5 10/18/5 9/19/5
f 8/16/3 6/9/3 10/20/3
f 1/1/1 9/17/1 11/21/1
f 9/19/6 10/18/6 12/22/6 11/23/6
f 10/20/3 6/9/3 12/24/3
f 1/1/7 11/21/7 13/25/7
f 11/23/8 12/22/8 14/26/8 13/27/8
f 12/24/3 6/9/3 14/28/3
f 1/1/1 13/25/1 15/29/1
f 13/30/9 14/31/9 16/32/9 15/33/9
f 14/28/3 6/9/3 16/34/3
f 1/1/7 15/29/7 17/35/7
f 15/33/10 16/32/10 18/36/10 17/37/10
f 16/34/11 6/9/11 18/38/11
f 1/1/1 17/35/1 19/39/1
f 17/37/12 18/36/12 20/40/12 19/41/12
f 18/38/3 6/9/3 20/42/3
f 1/1/1 19/39/1 21/43/1
f 19/41/13 20/40/13 22/44/13 21/45/13
f 20/42/3 6/9/3 22/46/3
f 1/1/1 21/43/1 23/47/1
f 21/45/14 22/44/14 24/48/14 23/49/14
f 22/46/3 6/9/3 24/50/3
f 1/1/1 23/47/1 25/51/1
f 23/52/15 24/53/15 26/54/15 25/55/15
f 24/50/3 6/9/3 26/56/3
f 1/1/7 25/51/7 27/57/7
f 25/55/16 26/54/16 28/58/16 27/59/16
f 26/56/11 6/9/11 28/60/11
f 1/1/1 27/57/1 29/61/1
f 27/59/17 28/58/17 30/62/17 29/63/17
f 28/60/3 6/9/3 30/64/3
f 1/1/7 29/61/7 31/65/7
f 29/63/18 30/62/18 32/66/18 31/67/18
f 30/64/11 6/9/11 32/68/11
f 1/1/1 31/65/1 33/69/1
f 31/70/19 32/71/19 34/72/19 33/73/19
f 32/68/3 6/9/3 34/74/3
f 1/1/1 33/69/1 35/75/1
f 33/73/20 34/72/20 36/76/20 35/77/20
f 34/74/3 6/9/3 36/78/3
f 1/1/1 35/75/1 37/79/1
f 35/77/21 36/76/21 38/80/21 37/81/21
f 36/78/11 6/9/11 38/82/11
f 1/1/1 37/79/1 2/2/1
f 37/81/22 38/80/22 4/5/22 2/4/22
f 38/82/3 6/9/3 4/8/3
f 39/83/1 40/84/1 41/85/1
f 40/86/2 42/87/2 43/88/2 41/89/2
f 42/90/3 44/91/3 43/92/3
f 39/83/1 41/85/1 45/93/1
f 41/94/4 43/95/4 46/96/4 45/97/4
f 43/92/3 44/91/3 46/98/3
f 39/83/1 45/93/1 47/99/1
f 45/97/23 46/96/23 48/100/23 47/101/23
f 46/98/3 44/91/3 48/102/3
f 39/83/7 47/99/7 49/103/7
f 47/101/6 48/100/6 50/104/6 49/105/6
f 48/102/3 44/91/3 50/106/3
f 39/83/1 49/103/1 51/107/1
f 49/105/8 50/104/8 52/108/8 51/109/8
f 50/106/3 44/91/3 52/110/3
f 39/83/7 51/107/7 53/111/7
f 51/112/9 52/113/9 54/114/9 53/115/9
f 52/110/3 44/91/3 54/116/3
f 39/83/1 53/111/1 55/117/1
f 53/115/10 54/114/10 56/118/10 55/119/10
f 54/116/3 44/91/3 56/120/3
f 39/83/1 55/117/1 57/121/1
f 55/119/12 56/118/12 58/122/12 57/123/12
f 56/120/3 44/91/3 58/124/3
f 39/83/1 57/121/1 59/125/1
f 57/123/13 58/122/13 60/126/13 59/127/13
f 58/124/3 44/91/3 60/128/3
f 39/83/1 59/125/1 61/129/1
f 59/127/14 60/126/14 62/130/14 61/131/14
f 60/128/11 44/91/11 62/132/11
f 39/83/1 61/129/1 63/133/1
f 61/134/15 62/135/15 64/136/15 63/137/15
f 62/132/3 44/91/3 64/138/3
f 39/83/1 63/133/1 65/139/1
f 63/137/16 64/136/16 66/140/16 65/141/16
f 64/138/11 44/91/11 66/142/11
f 39/83/7 65/139/7 67/143/7
f 65/141/17 66/140/17 68/144/17 67/145/17
f 66/142/11 44/91/11 68/146/11
f 39/83/1 67/143/1 69/147/1
f 67/145/18 68/144/18 70/148/18 69/149/18
f 68/146/3 44/91/3 70/150/3
f 39/83/7 69/147/7 71/151/7
f 69/152/19 70/153/19 72/154/19 71/155/19
f 70/150/3 44/91/3 72/156/3
f 39/83/1 71/151/1 73/157/1
f 71/155/20 72/154/20 74/158/20 73/159/20
f 72/156/3 44/91/3 74/160/3
f 39/83/1 73/157/1 75/161/1
f 73/159/21 74/158/21 76/162/21 75/163/21
f 74/160/3 44/91/3 76/164/3
f 39/83/1 75/161/1 40/84/1
f 75/163/22 76/162/22 42/87/22 40/86/22
f 76/164/3 44/91/3 42/90/3
f 77/165/1 78/166/1 79/167/1
f 78/168/24 80/169/24 81/170/24 79/171/24
f 80/172/11 82/173/11 81/174/11
f 77/165/1 79/167/1 83/175/1
f 79/176/4 81/177/4 84/178/4 83/179/4
f 81/174/3 82/173/3 84/180/3
f 77/165/1 83/175/1 85/181/1
f 83/179/5 84/178/5 86/182/5 85/183/5
f 84/180/3 82/173/3 86/184/3
f 77/165/7 85/181/7 87/185/7
f 85/183/6 86/182/6 88/186/6 87/187/6
f 86/184/11 82/173/11 88/188/11
f 77/165/1 87/185/1 89/189/1
f 87/187/8 88/186/8 90/190/8 89/191/8
f 88/188/3 82/173/3 90/192/3
f 77/165/7 89/189/7 91/193/7
f 89/194/9 90/195/9 92/196/9 91/197/9
f 90/192/3 82/173/3 92/198/3
f 77/165/1 91/193/1 93/199/1
f 91/197/10 92/196/10 94/200/10 93/201/10
f 92/198/3 82/173/3 94/202/3
f 77/165/1 93/199/1 95/203/1
f 93/201/12 94/200/12 96/204/12 95/205/12
f 94/202/3 82/173/3 96/206/3
f 77/165/1 95/203/1 97/207/1
f 95/205/13 96/204/13 98/208/13 97/209/13
f 96/206/3 82/173/3 98/210/3
f 77/165/1 97/207/1 99/211/1
f 97/209/14 98/208/14 100/212/14 99/213/14
f 98/210/3 82/173/3 100/214/3
f 77/165/1 99/211/1 101/215/1
f 99/216/15 100/217/15 102/218/15 101/219/15
f 100/214/3 82/173/3 102/220/3
f 77/165/1 101/215/1 103/221/1
f 101/219/16 102/218/16 104/222/16 103/223/16
f 102/220/3 82/173/3 104/224/3
f 77/165/7 103/221/7 105/225/7
f 103/223/17 104/222/17 106/226/17 105/227/17
f 104/224/3 82/173/3 106/228/3
f 77/165/1 105/225/1 107/229/1
f 105/227/18 106/226/18 108/230/18 107/231/18
f 106/228/3 82/173/3 108/232/3
f 77/165/7 107/229/7 109/233/7
f 107/234/19 108/235/19 110/236/19 109/237/19
f 108/232/11 82/173/11 110/238/11
f 77/165/1 109/233/1 111/239/1
f 109/237/25 110/236/25 112/240/25 111/241/25
f 110/238/3 82/173/3 112/242/3
f 77/165/1 111/239/1 113/243/1
f 111/241/21 112/240/21 114/244/21 113/245/21
f 112/242/3 82/173/3 114/246/3
f 77/165/1 113/243/1 78/166/1
f 113/245/26 114/244/26 80/169/26 78/168/26
f 114/246/3 82/173/3 80/172/3
f 115/247/1 116/248/1 117/249/1
f 116/250/24 118/251/24 119/252/24 117/253/24
f 118/254/3 120/255/3 119/256/3
f 115/247/1 117/249/1 121/257/1
f 117/258/4 119/259/4 122/260/4 121/261/4
f 119/256/11 120/255/11 122/262/11
f 115/247/1 121/257/1 123/263/1
f 121/261/5 122/260/5 124/264/5 123/265/5
f 122/262/3 120/255/3 124/266/3
f 115/247/1 123/263/1 125/267/1
f 123/265/6 124/264/6 126/268/6 125/269/6
f 124/266/3 120/255/3 126/270/3
f 115/247/1 125/267/1 127/271/1
f 125/269/8 126/268/8 128/272/8 127/273/8
f 126/270/3 120/255/3 128/274/3
f 115/247/1 127/271/1 129/275/1
f 127/276/9 128/277/9 130/278/9 129/279/9
f 128/274/3 120/255/3 130/280/3
f 115/247/1 129/275/1 131/281/1
f 129/279/10 130/278/10 132/282/10 131/283/10
f 130/280/3 120/255/3 132/284/3
f 115/247/7 131/281/7 133/285/7
f 131/283/12 132/282/12 134/286/12 133/287/12
f 132/284/3 120/255/3 134/288/3
f 115/247/1 133/285/1 135/289/1
f 133/287/13 134/286/13 136/290/13 135/291/13
f 134/288/3 120/255/3 136/292/3
f 115/247/1 135/289/1 137/293/1
f 135/291/14 136/290/14 138/294/14 137/295/14
f 136/292/3 120/255/3 138/296/3
f 115/247/1 137/293/1 139/297/1
f 137/298/15 138/299/15 140/300/15 139/301/15
f 138/296/3 120/255/3 140/302/3
f 115/247/1 139/297/1 141/303/1
f 139/301/16 140/300/16 142/304/16 141/305/16
f 140/302/3 120/255/3 142/306/3
f 115/247/1 141/303/1 143/307/1
f 141/305/17 142/304/17 144/308/17 143/309/17
f 142/306/3 120/255/3 144/310/3
f 115/247/1 143/307/1 145/311/1
f 143/309/18 144/308/18 146/312/18 145/313/18
f 144/310/11 120/255/11 146/314/11
f 115/247/1 145/311/1 147/315/1
f 145/316/19 146/317/19 148/318/19 147/319/19
f 146/314/3 120/255/3 148/320/3
f 115/247/1 147/315/1 149/321/1
f 147/319/25 148/318/25 150/322/25 149/323/25
f 148/320/3 120/255/3 150/324/3
f 115/247/1 149/321/1 151/325/1
f 149/323/21 150/322/21 152/326/21 151/327/21
f 150/324/11 120/255/11 152/328/11
f 115/247/1 151/325/1 116/248/1
f 151/327/26 152/326/26 118/251/26 116/250/26
f 152/328/3 120/255/3 118/254/3
f 153/329/27 154/330/27 155/331/27 156/332/27
f 156/333/3 155/334/3 157/335/3 158/336/3
f 159/337/28 160/338/28 161/339/28 162/340/28
f 163/341/1 164/342/1 165/343/1 154/344/1
f 165/345/8 164/346/8 166/347/8 167/348/8
f 168/349/18 153/350/18 156/351/18 158/352/18
f 154/330/27 165/353/27 167/354/27 155/331/27
f 155/334/3 167/355/3 166/356/3 157/335/3
f 157/357/28 166/358/28 164/359/28 163/360/28
f 154/344/1 153/361/1 168/362/1 163/341/1
f 158/352/18 169/363/18 170/364/18 168/349/18
f 168/362/1 170/365/1 171/366/1 163/341/1
f 171/367/29 161/339/29 160/338/29 172/368/29
f 172/369/3 160/370/3 159/371/3 169/372/3
f 169/363/18 159/373/18 162/374/18 170/364/18
f 170/365/1 162/375/1 161/376/1 171/366/1
f 172/377/8 157/378/8 163/379/8 171/380/8
f 169/372/3 158/336/3 157/335/3 172/369/3
