# Blender v2.91.0 OBJ File: 'circuit.blend'
# www.blender.org
mtllib car_4.mtl
o Car_04
v 7.309853 0.157497 15.776308
v 7.309853 0.366431 15.776308
v 7.289639 0.366431 14.952056
v 7.289639 0.157497 14.952056
v 8.532749 0.423723 14.921571
v 9.068392 0.335791 14.908435
v 9.020158 0.157497 14.909617
v 8.532749 0.157497 14.921571
v 9.088605 0.335791 15.732687
v 9.040371 0.157497 15.733870
v 7.680601 0.423723 15.767216
v 7.680601 0.157497 15.767216
v 7.660387 0.423723 14.942964
v 8.552962 0.157497 15.745822
v 7.660387 0.157497 14.942964
v 8.552962 0.423723 15.745822
v 7.727736 0.738785 15.766060
v 8.416114 0.738785 15.749179
v 8.395900 0.738785 14.924927
v 7.707522 0.738785 14.941808
v 8.698649 0.186221 14.961355
v 8.821108 0.186221 14.958352
v 8.813723 0.225814 14.958533
v 8.819217 0.186221 14.881214
v 8.811831 0.225814 14.881395
v 8.696757 0.186221 14.884217
v 8.792459 0.260632 14.959055
v 8.790566 0.260632 14.881917
v 8.759878 0.286475 14.959853
v 8.757987 0.286475 14.882716
v 8.719913 0.300226 14.960834
v 8.718022 0.300226 14.883696
v 8.677384 0.300226 14.961877
v 8.675493 0.300226 14.884739
v 8.637420 0.286475 14.962856
v 8.635529 0.286475 14.885719
v 8.604840 0.260632 14.963655
v 8.602949 0.260632 14.886518
v 8.583575 0.225814 14.964177
v 8.581684 0.225814 14.887039
v 8.576191 0.186221 14.964358
v 8.574299 0.186221 14.887220
v 8.583575 0.146628 14.964177
v 8.581684 0.146628 14.887039
v 8.604840 0.111810 14.963655
v 8.602949 0.111810 14.886518
v 8.637420 0.085967 14.962856
v 8.635529 0.085967 14.885719
v 8.677384 0.072216 14.961877
v 8.675493 0.072216 14.884739
v 8.719913 0.072216 14.960834
v 8.718022 0.072216 14.883696
v 8.759878 0.085967 14.959853
v 8.757987 0.085967 14.882716
v 8.792459 0.111810 14.959054
v 8.790566 0.111810 14.881917
v 8.813723 0.146628 14.958533
v 8.811831 0.146628 14.881395
v 8.718896 0.186221 15.786952
v 8.841354 0.186221 15.783949
v 8.833969 0.225814 15.784130
v 8.839462 0.186221 15.706811
v 8.832078 0.225814 15.706992
v 8.717004 0.186221 15.709814
v 8.812704 0.260632 15.784651
v 8.810813 0.260632 15.707514
v 8.780125 0.286475 15.785450
v 8.778234 0.286475 15.708313
v 8.740161 0.300225 15.786430
v 8.738269 0.300225 15.709292
v 8.697631 0.300225 15.787474
v 8.695740 0.300225 15.710336
v 8.657666 0.286475 15.788453
v 8.655775 0.286475 15.711316
v 8.625087 0.260632 15.789252
v 8.623196 0.260632 15.712114
v 8.603822 0.225814 15.789774
v 8.601931 0.225814 15.712636
v 8.596437 0.186221 15.789955
v 8.594545 0.186221 15.712817
v 8.603822 0.146628 15.789774
v 8.601931 0.146628 15.712636
v 8.625087 0.111810 15.789252
v 8.623196 0.111810 15.712114
v 8.657666 0.085967 15.788453
v 8.655775 0.085967 15.711315
v 8.697631 0.072216 15.787474
v 8.695740 0.072216 15.710336
v 8.740161 0.072216 15.786430
v 8.738269 0.072216 15.709292
v 8.780125 0.085967 15.785450
v 8.778234 0.085967 15.708313
v 8.812704 0.111810 15.784651
v 8.810813 0.111810 15.707514
v 8.833969 0.146628 15.784130
v 8.832078 0.146628 15.706992
v 7.686836 0.180282 14.973550
v 7.809295 0.180282 14.970547
v 7.801909 0.219876 14.970728
v 7.807403 0.180282 14.893410
v 7.800018 0.219876 14.893591
v 7.684944 0.180282 14.896413
v 7.780645 0.254693 14.971250
v 7.778753 0.254693 14.894112
v 7.748065 0.280536 14.972049
v 7.746174 0.280536 14.894911
v 7.708101 0.294287 14.973028
v 7.706209 0.294287 14.895891
v 7.665571 0.294287 14.974072
v 7.663680 0.294287 14.896934
v 7.625607 0.280536 14.975052
v 7.623715 0.280536 14.897914
v 7.593027 0.254693 14.975851
v 7.591136 0.254693 14.898713
v 7.571763 0.219876 14.976372
v 7.569870 0.219876 14.899235
v 7.564377 0.180282 14.976553
v 7.562486 0.180282 14.899416
v 7.571763 0.140689 14.976372
v 7.569870 0.140689 14.899235
v 7.593027 0.105871 14.975850
v 7.591136 0.105871 14.898713
v 7.625607 0.080028 14.975052
v 7.623715 0.080028 14.897914
v 7.665571 0.066278 14.974072
v 7.663680 0.066278 14.896934
v 7.708101 0.066278 14.973028
v 7.706209 0.066278 14.895891
v 7.748065 0.080028 14.972049
v 7.746174 0.080028 14.894911
v 7.780645 0.105871 14.971250
v 7.778753 0.105871 14.894112
v 7.801909 0.140689 14.970728
v 7.800018 0.140689 14.893591
v 7.707082 0.180282 15.799147
v 7.829541 0.180282 15.796144
v 7.822156 0.219876 15.796325
v 7.827650 0.180282 15.719007
v 7.820264 0.219876 15.719187
v 7.705191 0.180282 15.722010
v 7.800891 0.254693 15.796846
v 7.799000 0.254693 15.719708
v 7.768312 0.280536 15.797646
v 7.766420 0.280536 15.720508
v 7.728347 0.294287 15.798625
v 7.726456 0.294287 15.721488
v 7.685818 0.294287 15.799668
v 7.683926 0.294287 15.722530
v 7.645853 0.280536 15.800649
v 7.643961 0.280536 15.723511
v 7.613274 0.254693 15.801447
v 7.611382 0.254693 15.724310
v 7.592009 0.219876 15.801969
v 7.590117 0.219876 15.724832
v 7.584624 0.180282 15.802150
v 7.582732 0.180282 15.725012
v 7.592009 0.140689 15.801969
v 7.590117 0.140689 15.724832
v 7.613274 0.105871 15.801447
v 7.611382 0.105871 15.724310
v 7.645853 0.080028 15.800649
v 7.643961 0.080028 15.723511
v 7.685818 0.066278 15.799668
v 7.683926 0.066278 15.722530
v 7.728347 0.066278 15.798625
v 7.726456 0.066278 15.721488
v 7.768312 0.080028 15.797646
v 7.766420 0.080028 15.720508
v 7.800891 0.105871 15.796846
v 7.799000 0.105871 15.719708
v 7.822156 0.140689 15.796325
v 7.820264 0.140689 15.719187
vt 0.675888 -0.075510
vt 0.675888 -0.007822
vt 0.990779 -0.007822
vt 0.990779 -0.075510
vt 0.484130 -0.701967
vt 0.688763 -0.730454
vt 0.670336 -0.788216
vt 0.484130 -0.788216
vt 0.324112 -0.568622
vt 0.324112 -0.584253
vt 0.009221 -0.584253
vt 0.009221 -0.568622
vt 0.547125 -0.905929
vt 0.688763 -0.924490
vt 0.688763 -0.992178
vt 0.547125 -0.992178
vt 0.342554 -0.584253
vt 0.342554 -0.464107
vt 0.657446 -0.464107
vt 0.657446 -0.584253
vt 0.009221 -0.410670
vt 0.324112 -0.410670
vt 0.150859 -0.788216
vt 0.150859 -0.701967
vt 0.213854 -0.992178
vt 0.027648 -0.992178
vt 0.009221 -0.934417
vt 0.213854 -0.905929
vt 0.342554 -0.181405
vt 0.342554 -0.007822
vt 0.657446 -0.007822
vt 0.657446 -0.181405
vt 0.009221 -0.127968
vt 0.324112 -0.127968
vt 0.342554 -0.448832
vt 0.342554 -0.225753
vt 0.657446 -0.225753
vt 0.657446 -0.448832
vt 0.009221 -0.788216
vt 0.009221 -0.720528
vt 0.009221 -0.007822
vt 0.324112 -0.007822
vt 0.168866 -0.599897
vt 0.431849 -0.599897
vt 0.266135 -0.803859
vt 0.529118 -0.803859
vt 0.722671 -0.396622
vt 0.675888 -0.396622
vt 0.678709 -0.383795
vt 0.865277 -0.524097
vt 0.835808 -0.524097
vt 0.835808 -0.511270
vt 0.865277 -0.511270
vt 0.881463 -0.307110
vt 0.834680 -0.307110
vt 0.878642 -0.294283
vt 0.686833 -0.372515
vt 0.835808 -0.499990
vt 0.865277 -0.499990
vt 0.870518 -0.283004
vt 0.699279 -0.364143
vt 0.739985 -0.538711
vt 0.769454 -0.538711
vt 0.769454 -0.549269
vt 0.739985 -0.549269
vt 0.858071 -0.274631
vt 0.714547 -0.359688
vt 0.769454 -0.562220
vt 0.739985 -0.562220
vt 0.842804 -0.270177
vt 0.730795 -0.359688
vt 0.769454 -0.576002
vt 0.739985 -0.576002
vt 0.826556 -0.270177
vt 0.746063 -0.364143
vt 0.769454 -0.588953
vt 0.739985 -0.588953
vt 0.811288 -0.274631
vt 0.758509 -0.372515
vt 0.769454 -0.599511
vt 0.739985 -0.599511
vt 0.798842 -0.283004
vt 0.766633 -0.383795
vt 0.835808 -0.563847
vt 0.865277 -0.563847
vt 0.865277 -0.575127
vt 0.835808 -0.575127
vt 0.790718 -0.294283
vt 0.769454 -0.396622
vt 0.865277 -0.587954
vt 0.835808 -0.587954
vt 0.787897 -0.307110
vt 0.766633 -0.409449
vt 0.865277 -0.600781
vt 0.835808 -0.600781
vt 0.790718 -0.319937
vt 0.758509 -0.420729
vt 0.865277 -0.612061
vt 0.835808 -0.612061
vt 0.798842 -0.331217
vt 0.746063 -0.429101
vt 0.739985 -0.615155
vt 0.769454 -0.615155
vt 0.769454 -0.625713
vt 0.739985 -0.625713
vt 0.811288 -0.339589
vt 0.730795 -0.433556
vt 0.769454 -0.638664
vt 0.739985 -0.638664
vt 0.826556 -0.344044
vt 0.714547 -0.433556
vt 0.769454 -0.652446
vt 0.739985 -0.652446
vt 0.842804 -0.344044
vt 0.699279 -0.429101
vt 0.769454 -0.665398
vt 0.739985 -0.665398
vt 0.858071 -0.339589
vt 0.686833 -0.420729
vt 0.769454 -0.675955
vt 0.739985 -0.675955
vt 0.870518 -0.331217
vt 0.678709 -0.409449
vt 0.865277 -0.548203
vt 0.835808 -0.548203
vt 0.835808 -0.536924
vt 0.865277 -0.536924
vt 0.878642 -0.319937
vt 0.834680 -0.217599
vt 0.787897 -0.217599
vt 0.790718 -0.204772
vt 0.913188 -0.383795
vt 0.883719 -0.383795
vt 0.883719 -0.370968
vt 0.913188 -0.370968
vt 0.881463 -0.128088
vt 0.834680 -0.128088
vt 0.878642 -0.115261
vt 0.798842 -0.193492
vt 0.883719 -0.359688
vt 0.913188 -0.359688
vt 0.870518 -0.103981
vt 0.811288 -0.185120
vt 0.835808 -0.359688
vt 0.865277 -0.359688
vt 0.865277 -0.370246
vt 0.835808 -0.370246
vt 0.858071 -0.095609
vt 0.826556 -0.180665
vt 0.865277 -0.383197
vt 0.835808 -0.383197
vt 0.842804 -0.091154
vt 0.842804 -0.180665
vt 0.865277 -0.396979
vt 0.835808 -0.396979
vt 0.826556 -0.091154
vt 0.858071 -0.185120
vt 0.865277 -0.409930
vt 0.835808 -0.409930
vt 0.811288 -0.095609
vt 0.870518 -0.193492
vt 0.865277 -0.420488
vt 0.835808 -0.420488
vt 0.798842 -0.103981
vt 0.878642 -0.204772
vt 0.883719 -0.423546
vt 0.913188 -0.423546
vt 0.913188 -0.434825
vt 0.883719 -0.434825
vt 0.790718 -0.115261
vt 0.881463 -0.217599
vt 0.913188 -0.447652
vt 0.883719 -0.447652
vt 0.787897 -0.128088
vt 0.878642 -0.230426
vt 0.913188 -0.460479
vt 0.883719 -0.460479
vt 0.790718 -0.140914
vt 0.870518 -0.241706
vt 0.913188 -0.471759
vt 0.883719 -0.471759
vt 0.798842 -0.152194
vt 0.858071 -0.250078
vt 0.787897 -0.589021
vt 0.817366 -0.589021
vt 0.817366 -0.599579
vt 0.787897 -0.599579
vt 0.811288 -0.160567
vt 0.842804 -0.254533
vt 0.817366 -0.612530
vt 0.787897 -0.612530
vt 0.826556 -0.165021
vt 0.826556 -0.254533
vt 0.817366 -0.626312
vt 0.787897 -0.626312
vt 0.842804 -0.165021
vt 0.811288 -0.250078
vt 0.817366 -0.639263
vt 0.787897 -0.639263
vt 0.858071 -0.160567
vt 0.798842 -0.241706
vt 0.817366 -0.649821
vt 0.787897 -0.649821
vt 0.870518 -0.152194
vt 0.790718 -0.230426
vt 0.913188 -0.407902
vt 0.883719 -0.407902
vt 0.883719 -0.396622
vt 0.913188 -0.396622
vt 0.878642 -0.140914
vt 0.722671 -0.486133
vt 0.675888 -0.486133
vt 0.678709 -0.473306
vt 0.865277 -0.651812
vt 0.835808 -0.651812
vt 0.835808 -0.638985
vt 0.865277 -0.638985
vt 0.769454 -0.128088
vt 0.722671 -0.128088
vt 0.766633 -0.115261
vt 0.686833 -0.462026
vt 0.835808 -0.627705
vt 0.865277 -0.627705
vt 0.758509 -0.103981
vt 0.699279 -0.453654
vt 0.787897 -0.359688
vt 0.817366 -0.359688
vt 0.817366 -0.370246
vt 0.787897 -0.370246
vt 0.746063 -0.095609
vt 0.714547 -0.449199
vt 0.817366 -0.383197
vt 0.787897 -0.383197
vt 0.730795 -0.091154
vt 0.730795 -0.449199
vt 0.817366 -0.396979
vt 0.787897 -0.396979
vt 0.714547 -0.091154
vt 0.746063 -0.453654
vt 0.817366 -0.409930
vt 0.787897 -0.409930
vt 0.699279 -0.095609
vt 0.758509 -0.462026
vt 0.817366 -0.420488
vt 0.787897 -0.420488
vt 0.686833 -0.103981
vt 0.766633 -0.473306
vt 0.835808 -0.436132
vt 0.865277 -0.436132
vt 0.865277 -0.447412
vt 0.835808 -0.447412
vt 0.678709 -0.115261
vt 0.769454 -0.486133
vt 0.865277 -0.460239
vt 0.835808 -0.460239
vt 0.675888 -0.128088
vt 0.766633 -0.498960
vt 0.865277 -0.473066
vt 0.835808 -0.473066
vt 0.678709 -0.140914
vt 0.758509 -0.510240
vt 0.865277 -0.484346
vt 0.835808 -0.484346
vt 0.686833 -0.152194
vt 0.746063 -0.518612
vt 0.787897 -0.436132
vt 0.817366 -0.436132
vt 0.817366 -0.446690
vt 0.787897 -0.446690
vt 0.699279 -0.160567
vt 0.730795 -0.523067
vt 0.817366 -0.459641
vt 0.787897 -0.459641
vt 0.714547 -0.165021
vt 0.714547 -0.523067
vt 0.817366 -0.473424
vt 0.787897 -0.473424
vt 0.730795 -0.165021
vt 0.699279 -0.518612
vt 0.817366 -0.486375
vt 0.787897 -0.486375
vt 0.746063 -0.160567
vt 0.686833 -0.510240
vt 0.817366 -0.496933
vt 0.787897 -0.496933
vt 0.758509 -0.152194
vt 0.678709 -0.498960
vt 0.865277 -0.675918
vt 0.835808 -0.675918
vt 0.835808 -0.664639
vt 0.865277 -0.664639
vt 0.766633 -0.140914
vt 0.722671 -0.217599
vt 0.675888 -0.217599
vt 0.678709 -0.204772
vt 0.769454 -0.715706
vt 0.739985 -0.715706
vt 0.739985 -0.702879
vt 0.769454 -0.702879
vt 0.769454 -0.307110
vt 0.722671 -0.307110
vt 0.766633 -0.294283
vt 0.686833 -0.193492
vt 0.739985 -0.691599
vt 0.769454 -0.691599
vt 0.758509 -0.283004
vt 0.699279 -0.185120
vt 0.787897 -0.665465
vt 0.817366 -0.665465
vt 0.817366 -0.676023
vt 0.787897 -0.676023
vt 0.746063 -0.274631
vt 0.714547 -0.180665
vt 0.817366 -0.688974
vt 0.787897 -0.688974
vt 0.730795 -0.270177
vt 0.730795 -0.180665
vt 0.817366 -0.702756
vt 0.787897 -0.702756
vt 0.714547 -0.270177
vt 0.746063 -0.185120
vt 0.817366 -0.715707
vt 0.787897 -0.715707
vt 0.699279 -0.274631
vt 0.758509 -0.193492
vt 0.817366 -0.726265
vt 0.787897 -0.726265
vt 0.686833 -0.283004
vt 0.766633 -0.204772
vt 0.835808 -0.691562
vt 0.865277 -0.691562
vt 0.865277 -0.702842
vt 0.835808 -0.702842
vt 0.678709 -0.294283
vt 0.769454 -0.217599
vt 0.865277 -0.715669
vt 0.835808 -0.715669
vt 0.675888 -0.307110
vt 0.766633 -0.230426
vt 0.865277 -0.728496
vt 0.835808 -0.728496
vt 0.678709 -0.319937
vt 0.758509 -0.241706
vt 0.865277 -0.739776
vt 0.835808 -0.739776
vt 0.686833 -0.331217
vt 0.746063 -0.250078
vt 0.787897 -0.512576
vt 0.817366 -0.512576
vt 0.817366 -0.523134
vt 0.787897 -0.523134
vt 0.699279 -0.339589
vt 0.730795 -0.254533
vt 0.817366 -0.536085
vt 0.787897 -0.536085
vt 0.714547 -0.344044
vt 0.714547 -0.254533
vt 0.817366 -0.549868
vt 0.787897 -0.549868
vt 0.730795 -0.344044
vt 0.699279 -0.250078
vt 0.817366 -0.562819
vt 0.787897 -0.562819
vt 0.746063 -0.339589
vt 0.686833 -0.241706
vt 0.817366 -0.573377
vt 0.787897 -0.573377
vt 0.758509 -0.331217
vt 0.678709 -0.230426
vt 0.769454 -0.739813
vt 0.739985 -0.739813
vt 0.739985 -0.728533
vt 0.769454 -0.728533
vt 0.766633 -0.319937
vn -0.9997 0.0000 0.0245
vn -0.0245 0.0000 -0.9997
vn 0.9650 -0.2612 -0.0237
vn 0.0245 0.0000 0.9997
vn -0.1526 0.9883 0.0037
vn -0.0000 -1.0000 -0.0000
vn 0.1619 0.9868 -0.0040
vn 0.0000 1.0000 0.0000
vn -0.9887 0.1480 0.0242
vn 0.9169 0.3985 -0.0225
vn 0.9827 0.1834 -0.0241
vn 0.0246 -0.0000 0.9997
vn 0.8531 0.5213 -0.0209
vn 0.0244 0.0000 0.9997
vn 0.6211 0.7835 -0.0152
vn 0.3252 0.9456 -0.0080
vn -0.3252 0.9456 0.0080
vn -0.0246 0.0000 -0.9997
vn -0.6212 0.7835 0.0152
vn -0.8531 0.5213 0.0209
vn -0.9827 0.1834 0.0241
vn -0.9827 -0.1834 0.0241
vn -0.8531 -0.5213 0.0209
vn -0.6211 -0.7835 0.0152
vn -0.3252 -0.9456 0.0080
vn 0.3252 -0.9456 -0.0080
vn 0.6211 -0.7835 -0.0152
vn 0.8531 -0.5213 -0.0209
vn 0.9827 -0.1834 -0.0241
vn -0.6211 0.7836 0.0152
vn 0.6212 -0.7835 -0.0152
vn -0.0244 -0.0000 -0.9997
vn 0.6212 0.7835 -0.0152
vn -0.6211 0.7835 0.0152
vn -0.6211 -0.7836 0.0152
vn -0.6212 -0.7835 0.0152
usemtl Material.038
s off
f 1/1/1 2/2/1 3/3/1 4/4/1
f 5/5/2 6/6/2 7/7/2 8/8/2
f 7/9/3 6/10/3 9/11/3 10/12/3
f 11/13/4 2/14/4 1/15/4 12/16/4
f 2/17/5 11/18/5 13/19/5 3/20/5
f 10/12/6 14/21/6 8/22/6 7/9/6
f 8/8/2 15/23/2 13/24/2 5/5/2
f 14/25/4 10/26/4 9/27/4 16/28/4
f 16/29/7 9/30/7 6/31/7 5/32/7
f 14/21/6 12/33/6 15/34/6 8/22/6
f 12/16/4 14/25/4 16/28/4 11/13/4
f 17/35/8 18/36/8 19/37/8 20/38/8
f 15/23/2 4/39/2 3/40/2 13/24/2
f 12/33/6 1/41/6 4/42/6 15/34/6
f 11/18/9 17/35/9 20/38/9 13/19/9
f 13/24/2 20/43/2 19/44/2 5/5/2
f 5/32/10 19/37/10 18/36/10 16/29/10
f 16/28/4 18/45/4 17/46/4 11/13/4
f 21/47/4 22/48/4 23/49/4
f 22/50/11 24/51/11 25/52/11 23/53/11
f 24/54/2 26/55/2 25/56/2
f 21/47/12 23/49/12 27/57/12
f 23/53/13 25/52/13 28/58/13 27/59/13
f 25/56/2 26/55/2 28/60/2
f 21/47/14 27/57/14 29/61/14
f 27/62/15 28/63/15 30/64/15 29/65/15
f 28/60/2 26/55/2 30/66/2
f 21/47/4 29/61/4 31/67/4
f 29/65/16 30/64/16 32/68/16 31/69/16
f 30/66/2 26/55/2 32/70/2
f 21/47/12 31/67/12 33/71/12
f 31/69/8 32/68/8 34/72/8 33/73/8
f 32/70/2 26/55/2 34/74/2
f 21/47/4 33/71/4 35/75/4
f 33/73/17 34/72/17 36/76/17 35/77/17
f 34/74/18 26/55/18 36/78/18
f 21/47/4 35/75/4 37/79/4
f 35/77/19 36/76/19 38/80/19 37/81/19
f 36/78/2 26/55/2 38/82/2
f 21/47/12 37/79/12 39/83/12
f 37/84/20 38/85/20 40/86/20 39/87/20
f 38/82/2 26/55/2 40/88/2
f 21/47/4 39/83/4 41/89/4
f 39/87/21 40/86/21 42/90/21 41/91/21
f 40/88/2 26/55/2 42/92/2
f 21/47/4 41/89/4 43/93/4
f 41/91/22 42/90/22 44/94/22 43/95/22
f 42/92/2 26/55/2 44/96/2
f 21/47/4 43/93/4 45/97/4
f 43/95/23 44/94/23 46/98/23 45/99/23
f 44/96/2 26/55/2 46/100/2
f 21/47/4 45/97/4 47/101/4
f 45/102/24 46/103/24 48/104/24 47/105/24
f 46/100/2 26/55/2 48/106/2
f 21/47/4 47/101/4 49/107/4
f 47/105/25 48/104/25 50/108/25 49/109/25
f 48/106/2 26/55/2 50/110/2
f 21/47/12 49/107/12 51/111/12
f 49/109/6 50/108/6 52/112/6 51/113/6
f 50/110/2 26/55/2 52/114/2
f 21/47/4 51/111/4 53/115/4
f 51/113/26 52/112/26 54/116/26 53/117/26
f 52/114/2 26/55/2 54/118/2
f 21/47/4 53/115/4 55/119/4
f 53/117/27 54/116/27 56/120/27 55/121/27
f 54/118/2 26/55/2 56/122/2
f 21/47/12 55/119/12 57/123/12
f 55/124/28 56/125/28 58/126/28 57/127/28
f 56/122/2 26/55/2 58/128/2
f 21/47/4 57/123/4 22/48/4
f 57/127/29 58/126/29 24/51/29 22/50/29
f 58/128/2 26/55/2 24/54/2
f 59/129/4 60/130/4 61/131/4
f 60/132/11 62/133/11 63/134/11 61/135/11
f 62/136/2 64/137/2 63/138/2
f 59/129/4 61/131/4 65/139/4
f 61/135/13 63/134/13 66/140/13 65/141/13
f 63/138/2 64/137/2 66/142/2
f 59/129/4 65/139/4 67/143/4
f 65/144/15 66/145/15 68/146/15 67/147/15
f 66/142/2 64/137/2 68/148/2
f 59/129/12 67/143/12 69/149/12
f 67/147/16 68/146/16 70/150/16 69/151/16
f 68/148/2 64/137/2 70/152/2
f 59/129/4 69/149/4 71/153/4
f 69/151/8 70/150/8 72/154/8 71/155/8
f 70/152/18 64/137/18 72/156/18
f 59/129/4 71/153/4 73/157/4
f 71/155/17 72/154/17 74/158/17 73/159/17
f 72/156/2 64/137/2 74/160/2
f 59/129/4 73/157/4 75/161/4
f 73/159/30 74/158/30 76/162/30 75/163/30
f 74/160/2 64/137/2 76/164/2
f 59/129/4 75/161/4 77/165/4
f 75/166/20 76/167/20 78/168/20 77/169/20
f 76/164/2 64/137/2 78/170/2
f 59/129/4 77/165/4 79/171/4
f 77/169/21 78/168/21 80/172/21 79/173/21
f 78/170/2 64/137/2 80/174/2
f 59/129/4 79/171/4 81/175/4
f 79/173/22 80/172/22 82/176/22 81/177/22
f 80/174/2 64/137/2 82/178/2
f 59/129/4 81/175/4 83/179/4
f 81/177/23 82/176/23 84/180/23 83/181/23
f 82/178/2 64/137/2 84/182/2
f 59/129/4 83/179/4 85/183/4
f 83/184/24 84/185/24 86/186/24 85/187/24
f 84/182/2 64/137/2 86/188/2
f 59/129/4 85/183/4 87/189/4
f 85/187/25 86/186/25 88/190/25 87/191/25
f 86/188/2 64/137/2 88/192/2
f 59/129/4 87/189/4 89/193/4
f 87/191/6 88/190/6 90/194/6 89/195/6
f 88/192/18 64/137/18 90/196/18
f 59/129/12 89/193/12 91/197/12
f 89/195/26 90/194/26 92/198/26 91/199/26
f 90/196/2 64/137/2 92/200/2
f 59/129/4 91/197/4 93/201/4
f 91/199/31 92/198/31 94/202/31 93/203/31
f 92/200/2 64/137/2 94/204/2
f 59/129/4 93/201/4 95/205/4
f 93/206/28 94/207/28 96/208/28 95/209/28
f 94/204/2 64/137/2 96/210/2
f 59/129/4 95/205/4 60/130/4
f 95/209/29 96/208/29 62/133/29 60/132/29
f 96/210/2 64/137/2 62/136/2
f 97/211/4 98/212/4 99/213/4
f 98/214/11 100/215/11 101/216/11 99/217/11
f 100/218/2 102/219/2 101/220/2
f 97/211/4 99/213/4 103/221/4
f 99/217/13 101/216/13 104/222/13 103/223/13
f 101/220/32 102/219/32 104/224/32
f 97/211/12 103/221/12 105/225/12
f 103/226/33 104/227/33 106/228/33 105/229/33
f 104/224/18 102/219/18 106/230/18
f 97/211/4 105/225/4 107/231/4
f 105/229/16 106/228/16 108/232/16 107/233/16
f 106/230/2 102/219/2 108/234/2
f 97/211/4 107/231/4 109/235/4
f 107/233/8 108/232/8 110/236/8 109/237/8
f 108/234/2 102/219/2 110/238/2
f 97/211/4 109/235/4 111/239/4
f 109/237/17 110/236/17 112/240/17 111/241/17
f 110/238/2 102/219/2 112/242/2
f 97/211/12 111/239/12 113/243/12
f 111/241/34 112/240/34 114/244/34 113/245/34
f 112/242/2 102/219/2 114/246/2
f 97/211/4 113/243/4 115/247/4
f 113/248/20 114/249/20 116/250/20 115/251/20
f 114/246/2 102/219/2 116/252/2
f 97/211/4 115/247/4 117/253/4
f 115/251/21 116/250/21 118/254/21 117/255/21
f 116/252/2 102/219/2 118/256/2
f 97/211/4 117/253/4 119/257/4
f 117/255/22 118/254/22 120/258/22 119/259/22
f 118/256/2 102/219/2 120/260/2
f 97/211/4 119/257/4 121/261/4
f 119/259/23 120/258/23 122/262/23 121/263/23
f 120/260/2 102/219/2 122/264/2
f 97/211/4 121/261/4 123/265/4
f 121/266/35 122/267/35 124/268/35 123/269/35
f 122/264/2 102/219/2 124/270/2
f 97/211/4 123/265/4 125/271/4
f 123/269/25 124/268/25 126/272/25 125/273/25
f 124/270/2 102/219/2 126/274/2
f 97/211/4 125/271/4 127/275/4
f 125/273/6 126/272/6 128/276/6 127/277/6
f 126/274/2 102/219/2 128/278/2
f 97/211/4 127/275/4 129/279/4
f 127/277/26 128/276/26 130/280/26 129/281/26
f 128/278/2 102/219/2 130/282/2
f 97/211/4 129/279/4 131/283/4
f 129/281/31 130/280/31 132/284/31 131/285/31
f 130/282/2 102/219/2 132/286/2
f 97/211/4 131/283/4 133/287/4
f 131/288/28 132/289/28 134/290/28 133/291/28
f 132/286/2 102/219/2 134/292/2
f 97/211/4 133/287/4 98/212/4
f 133/291/29 134/290/29 100/215/29 98/214/29
f 134/292/2 102/219/2 100/218/2
f 135/293/4 136/294/4 137/295/4
f 136/296/11 138/297/11 139/298/11 137/299/11
f 138/300/2 140/301/2 139/302/2
f 135/293/4 137/295/4 141/303/4
f 137/299/13 139/298/13 142/304/13 141/305/13
f 139/302/2 140/301/2 142/306/2
f 135/293/4 141/303/4 143/307/4
f 141/308/33 142/309/33 144/310/33 143/311/33
f 142/306/2 140/301/2 144/312/2
f 135/293/4 143/307/4 145/313/4
f 143/311/16 144/310/16 146/314/16 145/315/16
f 144/312/2 140/301/2 146/316/2
f 135/293/12 145/313/12 147/317/12
f 145/315/8 146/314/8 148/318/8 147/319/8
f 146/316/2 140/301/2 148/320/2
f 135/293/4 147/317/4 149/321/4
f 147/319/17 148/318/17 150/322/17 149/323/17
f 148/320/2 140/301/2 150/324/2
f 135/293/4 149/321/4 151/325/4
f 149/323/19 150/322/19 152/326/19 151/327/19
f 150/324/2 140/301/2 152/328/2
f 135/293/12 151/325/12 153/329/12
f 151/330/20 152/331/20 154/332/20 153/333/20
f 152/328/2 140/301/2 154/334/2
f 135/293/4 153/329/4 155/335/4
f 153/333/21 154/332/21 156/336/21 155/337/21
f 154/334/2 140/301/2 156/338/2
f 135/293/4 155/335/4 157/339/4
f 155/337/22 156/336/22 158/340/22 157/341/22
f 156/338/2 140/301/2 158/342/2
f 135/293/4 157/339/4 159/343/4
f 157/341/23 158/340/23 160/344/23 159/345/23
f 158/342/2 140/301/2 160/346/2
f 135/293/4 159/343/4 161/347/4
f 159/348/36 160/349/36 162/350/36 161/351/36
f 160/346/2 140/301/2 162/352/2
f 135/293/4 161/347/4 163/353/4
f 161/351/25 162/350/25 164/354/25 163/355/25
f 162/352/2 140/301/2 164/356/2
f 135/293/12 163/353/12 165/357/12
f 163/355/6 164/354/6 166/358/6 165/359/6
f 164/356/2 140/301/2 166/360/2
f 135/293/4 165/357/4 167/361/4
f 165/359/26 166/358/26 168/362/26 167/363/26
f 166/360/2 140/301/2 168/364/2
f 135/293/4 167/361/4 169/365/4
f 167/363/31 168/362/31 170/366/31 169/367/31
f 168/364/2 140/301/2 170/368/2
f 135/293/4 169/365/4 171/369/4
f 169/370/28 170/371/28 172/372/28 171/373/28
f 170/368/2 140/301/2 172/374/2
f 135/293/4 171/369/4 136/294/4
f 171/373/29 172/372/29 138/297/29 136/296/29
f 172/374/2 140/301/2 138/300/2
