# Blender v2.91.0 OBJ File: 'circuit.blend'
# www.blender.org
mtllib car_1.mtl
o CAR_01
v 7.615107 0.167911 10.044851
v 7.568553 0.463433 10.045994
v 7.549880 0.463433 9.284546
v 7.596433 0.167911 9.283405
v 7.788771 0.809309 10.040592
v 7.770098 0.809309 9.279146
v 8.486459 0.289505 9.261578
v 8.486459 0.167911 9.261578
v 8.754289 0.289505 9.255011
v 8.754289 0.167911 9.255011
v 9.374351 0.292682 9.239804
v 9.374351 0.167911 9.239804
v 8.486459 0.811732 9.261578
v 8.754289 0.496604 9.255011
v 9.374351 0.324867 9.239804
v 9.393024 0.292682 10.001251
v 9.393024 0.167911 10.001251
v 9.393024 0.324867 10.001251
v 8.772962 0.289505 10.016457
v 8.772962 0.167911 10.016457
v 8.505132 0.289505 10.023026
v 8.505132 0.167911 10.023026
v 8.772962 0.496604 10.016457
v 8.505132 0.811732 10.023026
v 9.054085 0.171005 9.284591
v 9.161624 0.171005 9.281954
v 9.155138 0.205774 9.282112
v 9.160131 0.171005 9.221075
v 9.153646 0.205774 9.221234
v 9.052591 0.171005 9.223713
v 9.136464 0.236350 9.282571
v 9.134972 0.236350 9.221693
v 9.107854 0.259045 9.283272
v 9.106361 0.259045 9.222394
v 9.072759 0.271120 9.284133
v 9.071265 0.271120 9.223255
v 9.035410 0.271120 9.285049
v 9.033917 0.271120 9.224171
v 9.000315 0.259045 9.285910
v 8.998821 0.259045 9.225031
v 8.971704 0.236350 9.286612
v 8.970211 0.236350 9.225733
v 8.953030 0.205774 9.287069
v 8.951537 0.205774 9.226191
v 8.946545 0.171005 9.287228
v 8.945052 0.171005 9.226350
v 8.953030 0.136235 9.287069
v 8.951537 0.136235 9.226191
v 8.971704 0.105659 9.286612
v 8.970211 0.105659 9.225733
v 9.000315 0.082965 9.285910
v 8.998821 0.082965 9.225031
v 9.035410 0.070889 9.285049
v 9.033917 0.070889 9.224171
v 9.072759 0.070889 9.284133
v 9.071265 0.070889 9.223255
v 9.107854 0.082965 9.283272
v 9.106361 0.082965 9.222394
v 9.136464 0.105659 9.282570
v 9.134972 0.105659 9.221692
v 9.155138 0.136235 9.282112
v 9.153646 0.136235 9.221234
v 9.072431 0.171005 10.032683
v 9.179970 0.171005 10.030046
v 9.173485 0.205774 10.030205
v 9.178476 0.171005 9.969168
v 9.171991 0.205774 9.969327
v 9.070937 0.171005 9.971806
v 9.154810 0.236350 10.030663
v 9.153317 0.236350 9.969785
v 9.126200 0.259045 10.031364
v 9.124707 0.259045 9.970487
v 9.091105 0.271120 10.032226
v 9.089611 0.271120 9.971348
v 9.053756 0.271120 10.033142
v 9.052263 0.271120 9.972263
v 9.018661 0.259045 10.034002
v 9.017167 0.259045 9.973124
v 8.990050 0.236350 10.034704
v 8.988557 0.236350 9.973825
v 8.971376 0.205774 10.035162
v 8.969883 0.205774 9.974283
v 8.964890 0.171005 10.035320
v 8.963398 0.171005 9.974442
v 8.971376 0.136235 10.035162
v 8.969883 0.136235 9.974283
v 8.990050 0.105659 10.034704
v 8.988557 0.105659 9.973825
v 9.018661 0.082965 10.034002
v 9.017167 0.082965 9.973124
v 9.053756 0.070889 10.033142
v 9.052263 0.070889 9.972263
v 9.091105 0.070889 10.032226
v 9.089611 0.070889 9.971348
v 9.126200 0.082965 10.031364
v 9.124707 0.082965 9.970487
v 9.154810 0.105659 10.030663
v 9.153317 0.105659 9.969785
v 9.173485 0.136235 10.030205
v 9.171991 0.136235 9.969327
v 7.845282 0.171005 9.314235
v 7.952821 0.171005 9.311598
v 7.946336 0.205775 9.311756
v 7.951328 0.171005 9.250719
v 7.944843 0.205775 9.250878
v 7.843789 0.171005 9.253357
v 7.927661 0.236350 9.312214
v 7.926168 0.236351 9.251336
v 7.899051 0.259045 9.312916
v 7.897558 0.259045 9.252038
v 7.863955 0.271120 9.313777
v 7.862463 0.271120 9.252899
v 7.826607 0.271120 9.314693
v 7.825114 0.271120 9.253815
v 7.791512 0.259045 9.315554
v 7.790019 0.259045 9.254675
v 7.762901 0.236350 9.316256
v 7.761408 0.236351 9.255377
v 7.744227 0.205775 9.316713
v 7.742734 0.205775 9.255835
v 7.737742 0.171005 9.316872
v 7.736249 0.171005 9.255994
v 7.744227 0.136235 9.316713
v 7.742734 0.136235 9.255835
v 7.762901 0.105659 9.316256
v 7.761408 0.105659 9.255377
v 7.791512 0.082965 9.315554
v 7.790019 0.082965 9.254675
v 7.826607 0.070889 9.314692
v 7.825114 0.070889 9.253815
v 7.863955 0.070889 9.313777
v 7.862463 0.070889 9.252899
v 7.899051 0.082965 9.312916
v 7.897558 0.082965 9.252038
v 7.927661 0.105659 9.312214
v 7.926168 0.105659 9.251336
v 7.946336 0.136235 9.311756
v 7.944843 0.136235 9.250878
v 7.863627 0.171005 10.062327
v 7.971167 0.171005 10.059690
v 7.964682 0.205774 10.059849
v 7.969674 0.171005 9.998812
v 7.963189 0.205774 9.998971
v 7.862134 0.171005 10.001450
v 7.946008 0.236350 10.060307
v 7.944515 0.236350 9.999429
v 7.917397 0.259045 10.061008
v 7.915904 0.259045 10.000131
v 7.882301 0.271120 10.061870
v 7.880808 0.271120 10.000992
v 7.844954 0.271120 10.062786
v 7.843461 0.271120 10.001907
v 7.809857 0.259045 10.063646
v 7.808365 0.259045 10.002768
v 7.781247 0.236350 10.064348
v 7.779754 0.236350 10.003469
v 7.762573 0.205774 10.064806
v 7.761080 0.205774 10.003927
v 7.756088 0.171005 10.064964
v 7.754595 0.171005 10.004086
v 7.762573 0.136235 10.064806
v 7.761080 0.136235 10.003927
v 7.781247 0.105659 10.064348
v 7.779754 0.105659 10.003469
v 7.809857 0.082965 10.063646
v 7.808365 0.082965 10.002768
v 7.844954 0.070889 10.062785
v 7.843461 0.070889 10.001907
v 7.882301 0.070889 10.061870
v 7.880808 0.070889 10.000992
v 7.917397 0.082965 10.061008
v 7.915904 0.082965 10.000131
v 7.946008 0.105659 10.060307
v 7.944515 0.105659 9.999429
v 7.964682 0.136235 10.059849
v 7.963189 0.136235 9.998971
vt 0.929503 -0.530972
vt 0.821501 -0.530972
vt 0.821501 -0.277791
vt 0.929503 -0.277791
vt 0.673463 -0.530972
vt 0.673463 -0.277791
vt 0.027499 -0.761385
vt 0.009525 -0.663153
vt 0.371136 -0.720967
vt 0.371136 -0.761385
vt 0.474544 -0.720967
vt 0.474544 -0.761385
vt 0.713949 -0.719911
vt 0.713949 -0.761385
vt 0.094551 -0.548184
vt 0.371136 -0.547378
vt 0.474544 -0.652127
vt 0.713949 -0.709213
vt 0.715025 -0.008203
vt 0.763184 -0.008203
vt 0.763184 -0.261385
vt 0.715025 -0.261385
vt 0.775607 -0.008203
vt 0.775607 -0.261385
vt 0.009525 -0.991797
vt 0.009525 -0.950323
vt 0.248930 -0.951379
vt 0.248930 -0.991797
vt 0.352338 -0.951379
vt 0.352338 -0.991797
vt 0.713949 -0.893565
vt 0.695975 -0.991797
vt 0.009525 -0.939625
vt 0.248930 -0.882539
vt 0.352338 -0.777791
vt 0.628923 -0.778596
vt 0.654413 -0.530972
vt 0.397303 -0.530972
vt 0.397303 -0.277791
vt 0.654413 -0.277791
vt 0.256595 -0.530972
vt 0.256595 -0.277791
vt 0.009525 -0.530972
vt 0.009525 -0.277791
vt 0.695975 -0.261385
vt 0.456570 -0.261385
vt 0.456570 -0.008203
vt 0.695975 -0.008203
vt 0.353162 -0.261385
vt 0.353162 -0.008203
vt 0.009525 -0.261385
vt 0.009525 -0.008203
vt 0.876612 -0.645144
vt 0.835091 -0.645144
vt 0.837595 -0.633586
vt 0.928707 -0.595459
vt 0.928707 -0.575217
vt 0.941460 -0.575217
vt 0.941460 -0.595459
vt 0.877699 -0.207407
vt 0.836178 -0.207407
vt 0.875195 -0.195849
vt 0.844805 -0.623423
vt 0.951776 -0.575217
vt 0.951776 -0.595459
vt 0.867985 -0.185686
vt 0.855852 -0.615879
vt 0.937183 -0.678422
vt 0.937183 -0.658180
vt 0.949535 -0.658180
vt 0.949535 -0.678422
vt 0.856938 -0.178142
vt 0.869402 -0.611865
vt 0.963673 -0.658180
vt 0.963673 -0.678422
vt 0.843388 -0.174128
vt 0.883822 -0.611865
vt 0.977891 -0.658180
vt 0.977891 -0.678422
vt 0.828968 -0.174128
vt 0.897372 -0.615879
vt 0.990475 -0.658180
vt 0.990475 -0.678422
vt 0.815418 -0.178142
vt 0.908419 -0.623423
vt 0.732999 -0.798033
vt 0.732999 -0.777791
vt 0.743599 -0.777791
vt 0.743599 -0.798033
vt 0.804371 -0.185686
vt 0.915629 -0.633586
vt 0.756504 -0.777791
vt 0.756504 -0.798033
vt 0.797161 -0.195849
vt 0.918133 -0.645144
vt 0.770156 -0.777791
vt 0.770156 -0.798033
vt 0.794657 -0.207407
vt 0.915629 -0.656701
vt 0.782909 -0.777791
vt 0.782909 -0.798033
vt 0.797161 -0.218964
vt 0.908419 -0.666865
vt 0.793225 -0.777791
vt 0.793225 -0.798033
vt 0.804371 -0.229128
vt 0.897372 -0.674408
vt 0.805341 -0.834681
vt 0.805341 -0.814438
vt 0.817694 -0.814438
vt 0.817694 -0.834681
vt 0.815418 -0.236671
vt 0.883822 -0.678422
vt 0.831831 -0.814438
vt 0.831831 -0.834681
vt 0.828968 -0.240685
vt 0.869402 -0.678422
vt 0.846050 -0.814438
vt 0.846050 -0.834681
vt 0.843388 -0.240685
vt 0.855852 -0.674408
vt 0.858633 -0.814438
vt 0.858633 -0.834681
vt 0.856938 -0.236671
vt 0.844805 -0.666865
vt 0.891550 -0.595459
vt 0.891550 -0.575217
vt 0.902151 -0.575217
vt 0.902151 -0.595459
vt 0.867985 -0.229128
vt 0.837595 -0.656701
vt 0.915055 -0.575217
vt 0.915055 -0.595459
vt 0.875195 -0.218964
vt 0.876612 -0.728106
vt 0.835091 -0.728106
vt 0.837595 -0.716549
vt 0.849431 -0.798033
vt 0.849431 -0.777791
vt 0.862184 -0.777791
vt 0.862184 -0.798033
vt 0.979791 -0.041481
vt 0.938270 -0.041481
vt 0.977287 -0.029924
vt 0.844805 -0.706385
vt 0.872500 -0.777791
vt 0.872500 -0.798033
vt 0.970077 -0.019760
vt 0.855852 -0.698842
vt 0.937183 -0.641774
vt 0.937183 -0.621532
vt 0.949535 -0.621532
vt 0.949535 -0.641774
vt 0.959030 -0.012217
vt 0.869402 -0.694828
vt 0.963673 -0.621532
vt 0.963673 -0.641774
vt 0.945480 -0.008203
vt 0.883822 -0.694828
vt 0.977891 -0.621532
vt 0.977891 -0.641774
vt 0.931060 -0.008203
vt 0.897372 -0.698842
vt 0.990475 -0.621532
vt 0.990475 -0.641774
vt 0.917509 -0.012217
vt 0.908419 -0.706385
vt 0.732999 -0.595459
vt 0.732999 -0.575217
vt 0.743599 -0.575217
vt 0.743599 -0.595459
vt 0.906463 -0.019760
vt 0.915629 -0.716549
vt 0.756504 -0.575217
vt 0.756504 -0.595459
vt 0.899253 -0.029924
vt 0.918133 -0.728106
vt 0.770156 -0.575217
vt 0.770156 -0.595459
vt 0.896749 -0.041481
vt 0.915629 -0.739664
vt 0.782909 -0.575217
vt 0.782909 -0.595459
vt 0.899253 -0.053039
vt 0.908419 -0.749827
vt 0.793225 -0.575217
vt 0.793225 -0.595459
vt 0.906463 -0.063202
vt 0.897372 -0.757371
vt 0.896749 -0.240685
vt 0.896749 -0.220443
vt 0.909101 -0.220443
vt 0.909101 -0.240685
vt 0.917509 -0.070746
vt 0.883822 -0.761385
vt 0.923239 -0.220443
vt 0.923239 -0.240685
vt 0.931060 -0.074760
vt 0.869402 -0.761385
vt 0.937457 -0.220443
vt 0.937457 -0.240685
vt 0.945480 -0.074760
vt 0.855852 -0.757371
vt 0.950041 -0.220443
vt 0.950041 -0.240685
vt 0.959030 -0.070746
vt 0.844805 -0.749827
vt 0.812275 -0.798033
vt 0.812275 -0.777791
vt 0.822875 -0.777791
vt 0.822875 -0.798033
vt 0.970077 -0.063202
vt 0.837595 -0.739664
vt 0.835779 -0.777791
vt 0.835779 -0.798033
vt 0.977287 -0.053039
vt 0.836178 -0.041481
vt 0.794657 -0.041481
vt 0.797161 -0.029924
vt 0.933906 -0.111408
vt 0.933906 -0.091166
vt 0.946659 -0.091166
vt 0.946659 -0.111408
vt 0.877699 -0.124444
vt 0.836178 -0.124444
vt 0.875195 -0.112887
vt 0.804371 -0.019760
vt 0.956974 -0.091166
vt 0.956974 -0.111408
vt 0.867985 -0.102723
vt 0.815418 -0.012217
vt 0.937183 -0.715070
vt 0.937183 -0.694828
vt 0.949535 -0.694828
vt 0.949535 -0.715070
vt 0.856938 -0.095179
vt 0.828968 -0.008203
vt 0.963673 -0.694828
vt 0.963673 -0.715070
vt 0.843388 -0.091166
vt 0.843388 -0.008203
vt 0.977891 -0.694828
vt 0.977891 -0.715070
vt 0.828968 -0.091166
vt 0.856938 -0.012217
vt 0.990475 -0.694828
vt 0.990475 -0.715070
vt 0.815418 -0.095179
vt 0.867985 -0.019760
vt 0.896749 -0.148056
vt 0.896749 -0.127813
vt 0.907349 -0.127813
vt 0.907349 -0.148056
vt 0.804371 -0.102723
vt 0.875195 -0.029924
vt 0.920254 -0.127813
vt 0.920254 -0.148056
vt 0.797161 -0.112887
vt 0.877699 -0.041481
vt 0.933906 -0.127813
vt 0.933906 -0.148056
vt 0.794657 -0.124444
vt 0.875195 -0.053039
vt 0.946659 -0.127813
vt 0.946659 -0.148056
vt 0.797161 -0.136002
vt 0.867985 -0.063202
vt 0.956974 -0.127813
vt 0.956974 -0.148056
vt 0.804371 -0.146165
vt 0.856938 -0.070746
vt 0.877684 -0.834681
vt 0.877684 -0.814438
vt 0.890036 -0.814438
vt 0.890036 -0.834681
vt 0.815418 -0.153709
vt 0.843388 -0.074760
vt 0.904173 -0.814438
vt 0.904173 -0.834681
vt 0.828968 -0.157723
vt 0.828968 -0.074760
vt 0.918392 -0.814438
vt 0.918392 -0.834681
vt 0.843388 -0.157723
vt 0.815418 -0.070746
vt 0.930975 -0.814438
vt 0.930975 -0.834681
vt 0.856938 -0.153709
vt 0.804371 -0.063202
vt 0.896749 -0.111408
vt 0.896749 -0.091166
vt 0.907349 -0.091166
vt 0.907349 -0.111408
vt 0.867985 -0.146165
vt 0.797161 -0.053039
vt 0.920254 -0.091166
vt 0.920254 -0.111408
vt 0.875195 -0.136002
vt 0.774520 -0.645144
vt 0.732999 -0.645144
vt 0.735503 -0.633586
vt 0.928707 -0.798033
vt 0.928707 -0.777791
vt 0.941460 -0.777791
vt 0.941460 -0.798033
vt 0.816041 -0.728106
vt 0.774520 -0.728106
vt 0.813537 -0.716549
vt 0.742713 -0.623423
vt 0.951776 -0.777791
vt 0.951776 -0.798033
vt 0.806327 -0.706385
vt 0.753760 -0.615879
vt 0.732999 -0.834681
vt 0.732999 -0.814438
vt 0.745351 -0.814438
vt 0.745351 -0.834681
vt 0.795281 -0.698842
vt 0.767310 -0.611865
vt 0.759489 -0.814438
vt 0.759489 -0.834681
vt 0.781730 -0.694828
vt 0.781730 -0.611865
vt 0.773707 -0.814438
vt 0.773707 -0.834681
vt 0.767310 -0.694828
vt 0.795281 -0.615879
vt 0.786291 -0.814438
vt 0.786291 -0.834681
vt 0.753760 -0.698842
vt 0.806327 -0.623423
vt 0.812275 -0.595459
vt 0.812275 -0.575217
vt 0.822875 -0.575217
vt 0.822875 -0.595459
vt 0.742713 -0.706385
vt 0.813537 -0.633586
vt 0.835779 -0.575217
vt 0.835779 -0.595459
vt 0.735503 -0.716549
vt 0.816041 -0.645144
vt 0.849431 -0.575217
vt 0.849431 -0.595459
vt 0.732999 -0.728106
vt 0.813537 -0.656701
vt 0.862184 -0.575217
vt 0.862184 -0.595459
vt 0.735503 -0.739664
vt 0.806327 -0.666865
vt 0.872500 -0.575217
vt 0.872500 -0.595459
vt 0.742713 -0.749827
vt 0.795281 -0.674408
vt 0.896749 -0.204037
vt 0.896749 -0.183795
vt 0.909101 -0.183795
vt 0.909101 -0.204037
vt 0.753760 -0.757371
vt 0.781730 -0.678422
vt 0.923239 -0.183795
vt 0.923239 -0.204037
vt 0.767310 -0.761385
vt 0.767310 -0.678422
vt 0.937457 -0.183795
vt 0.937457 -0.204037
vt 0.781730 -0.761385
vt 0.753760 -0.674408
vt 0.950041 -0.183795
vt 0.950041 -0.204037
vt 0.795281 -0.757371
vt 0.742713 -0.666865
vt 0.891550 -0.798033
vt 0.891550 -0.777791
vt 0.902151 -0.777791
vt 0.902151 -0.798033
vt 0.806327 -0.749827
vt 0.735503 -0.656701
vt 0.915055 -0.777791
vt 0.915055 -0.798033
vt 0.813537 -0.739664
vn -0.9875 -0.1557 0.0242
vn -0.8432 0.5372 0.0207
vn -0.0245 -0.0000 -0.9997
vn 0.9997 0.0000 -0.0245
vn 0.0245 0.0000 0.9997
vn -0.0034 1.0000 0.0001
vn 0.7616 0.6477 -0.0187
vn 0.2668 0.9637 -0.0065
vn -0.0000 -1.0000 -0.0000
vn 0.9827 0.1834 -0.0241
vn 0.8531 0.5214 -0.0209
vn 0.6211 0.7835 -0.0152
vn 0.3252 0.9456 -0.0080
vn 0.0246 -0.0000 0.9997
vn 0.0000 1.0000 0.0000
vn -0.3252 0.9456 0.0080
vn -0.6212 0.7835 0.0152
vn -0.8531 0.5213 0.0209
vn -0.9827 0.1834 0.0241
vn -0.9827 -0.1834 0.0241
vn -0.8531 -0.5213 0.0209
vn -0.6212 -0.7835 0.0152
vn -0.3252 -0.9456 0.0080
vn 0.3252 -0.9456 -0.0080
vn 0.6212 -0.7835 -0.0152
vn 0.8531 -0.5214 -0.0209
vn 0.9827 -0.1834 -0.0241
vn 0.8531 0.5213 -0.0209
vn 0.6212 0.7835 -0.0152
vn -0.0246 0.0000 -0.9997
vn 0.0244 0.0000 0.9997
vn 0.6211 -0.7835 -0.0152
vn 0.8531 -0.5213 -0.0209
usemtl Material.036
s off
f 1/1/1 2/2/1 3/3/1 4/4/1
f 2/2/2 5/5/2 6/6/2 3/3/2
f 4/7/3 3/8/3 7/9/3 8/10/3
f 8/10/3 7/9/3 9/11/3 10/12/3
f 10/12/3 9/11/3 11/13/3 12/14/3
f 3/8/3 6/15/3 13/16/3 7/9/3
f 7/9/3 13/16/3 14/17/3 9/11/3
f 9/11/3 14/17/3 15/18/3 11/13/3
f 12/19/4 11/20/4 16/21/4 17/22/4
f 11/20/4 15/23/4 18/24/4 16/21/4
f 17/25/5 16/26/5 19/27/5 20/28/5
f 20/28/5 19/27/5 21/29/5 22/30/5
f 22/30/5 21/29/5 2/31/5 1/32/5
f 16/26/5 18/33/5 23/34/5 19/27/5
f 19/27/5 23/34/5 24/35/5 21/29/5
f 21/29/5 24/35/5 5/36/5 2/31/5
f 5/37/6 24/38/6 13/39/6 6/40/6
f 24/38/7 23/41/7 14/42/7 13/39/7
f 23/41/8 18/43/8 15/44/8 14/42/8
f 17/45/9 20/46/9 10/47/9 12/48/9
f 20/46/9 22/49/9 8/50/9 10/47/9
f 22/49/9 1/51/9 4/52/9 8/50/9
f 25/53/5 26/54/5 27/55/5
f 26/56/10 28/57/10 29/58/10 27/59/10
f 28/60/3 30/61/3 29/62/3
f 25/53/5 27/55/5 31/63/5
f 27/59/11 29/58/11 32/64/11 31/65/11
f 29/62/3 30/61/3 32/66/3
f 25/53/5 31/63/5 33/67/5
f 31/68/12 32/69/12 34/70/12 33/71/12
f 32/66/3 30/61/3 34/72/3
f 25/53/5 33/67/5 35/73/5
f 33/71/13 34/70/13 36/74/13 35/75/13
f 34/72/3 30/61/3 36/76/3
f 25/53/14 35/73/14 37/77/14
f 35/75/15 36/74/15 38/78/15 37/79/15
f 36/76/3 30/61/3 38/80/3
f 25/53/5 37/77/5 39/81/5
f 37/79/16 38/78/16 40/82/16 39/83/16
f 38/80/3 30/61/3 40/84/3
f 25/53/5 39/81/5 41/85/5
f 39/86/17 40/87/17 42/88/17 41/89/17
f 40/84/3 30/61/3 42/90/3
f 25/53/5 41/85/5 43/91/5
f 41/89/18 42/88/18 44/92/18 43/93/18
f 42/90/3 30/61/3 44/94/3
f 25/53/5 43/91/5 45/95/5
f 43/93/19 44/92/19 46/96/19 45/97/19
f 44/94/3 30/61/3 46/98/3
f 25/53/5 45/95/5 47/99/5
f 45/97/20 46/96/20 48/100/20 47/101/20
f 46/98/3 30/61/3 48/102/3
f 25/53/5 47/99/5 49/103/5
f 47/101/21 48/100/21 50/104/21 49/105/21
f 48/102/3 30/61/3 50/106/3
f 25/53/5 49/103/5 51/107/5
f 49/108/22 50/109/22 52/110/22 51/111/22
f 50/106/3 30/61/3 52/112/3
f 25/53/5 51/107/5 53/113/5
f 51/111/23 52/110/23 54/114/23 53/115/23
f 52/112/3 30/61/3 54/116/3
f 25/53/5 53/113/5 55/117/5
f 53/115/9 54/114/9 56/118/9 55/119/9
f 54/116/3 30/61/3 56/120/3
f 25/53/5 55/117/5 57/121/5
f 55/119/24 56/118/24 58/122/24 57/123/24
f 56/120/3 30/61/3 58/124/3
f 25/53/5 57/121/5 59/125/5
f 57/126/25 58/127/25 60/128/25 59/129/25
f 58/124/3 30/61/3 60/130/3
f 25/53/5 59/125/5 61/131/5
f 59/129/26 60/128/26 62/132/26 61/133/26
f 60/130/3 30/61/3 62/134/3
f 25/53/5 61/131/5 26/54/5
f 61/133/27 62/132/27 28/57/27 26/56/27
f 62/134/3 30/61/3 28/60/3
f 63/135/5 64/136/5 65/137/5
f 64/138/10 66/139/10 67/140/10 65/141/10
f 66/142/3 68/143/3 67/144/3
f 63/135/5 65/137/5 69/145/5
f 65/141/28 67/140/28 70/146/28 69/147/28
f 67/144/3 68/143/3 70/148/3
f 63/135/5 69/145/5 71/149/5
f 69/150/29 70/151/29 72/152/29 71/153/29
f 70/148/3 68/143/3 72/154/3
f 63/135/5 71/149/5 73/155/5
f 71/153/13 72/152/13 74/156/13 73/157/13
f 72/154/30 68/143/30 74/158/30
f 63/135/5 73/155/5 75/159/5
f 73/157/15 74/156/15 76/160/15 75/161/15
f 74/158/3 68/143/3 76/162/3
f 63/135/5 75/159/5 77/163/5
f 75/161/16 76/160/16 78/164/16 77/165/16
f 76/162/3 68/143/3 78/166/3
f 63/135/5 77/163/5 79/167/5
f 77/168/17 78/169/17 80/170/17 79/171/17
f 78/166/3 68/143/3 80/172/3
f 63/135/5 79/167/5 81/173/5
f 79/171/18 80/170/18 82/174/18 81/175/18
f 80/172/3 68/143/3 82/176/3
f 63/135/5 81/173/5 83/177/5
f 81/175/19 82/174/19 84/178/19 83/179/19
f 82/176/3 68/143/3 84/180/3
f 63/135/5 83/177/5 85/181/5
f 83/179/20 84/178/20 86/182/20 85/183/20
f 84/180/3 68/143/3 86/184/3
f 63/135/5 85/181/5 87/185/5
f 85/183/21 86/182/21 88/186/21 87/187/21
f 86/184/3 68/143/3 88/188/3
f 63/135/5 87/185/5 89/189/5
f 87/190/22 88/191/22 90/192/22 89/193/22
f 88/188/3 68/143/3 90/194/3
f 63/135/31 89/189/31 91/195/31
f 89/193/23 90/192/23 92/196/23 91/197/23
f 90/194/3 68/143/3 92/198/3
f 63/135/14 91/195/14 93/199/14
f 91/197/9 92/196/9 94/200/9 93/201/9
f 92/198/3 68/143/3 94/202/3
f 63/135/5 93/199/5 95/203/5
f 93/201/24 94/200/24 96/204/24 95/205/24
f 94/202/3 68/143/3 96/206/3
f 63/135/5 95/203/5 97/207/5
f 95/208/32 96/209/32 98/210/32 97/211/32
f 96/206/3 68/143/3 98/212/3
f 63/135/5 97/207/5 99/213/5
f 97/211/33 98/210/33 100/214/33 99/215/33
f 98/212/3 68/143/3 100/216/3
f 63/135/5 99/213/5 64/136/5
f 99/215/27 100/214/27 66/139/27 64/138/27
f 100/216/3 68/143/3 66/142/3
f 101/217/5 102/218/5 103/219/5
f 102/220/10 104/221/10 105/222/10 103/223/10
f 104/224/3 106/225/3 105/226/3
f 101/217/5 103/219/5 107/227/5
f 103/223/28 105/222/28 108/228/28 107/229/28
f 105/226/3 106/225/3 108/230/3
f 101/217/5 107/227/5 109/231/5
f 107/232/29 108/233/29 110/234/29 109/235/29
f 108/230/3 106/225/3 110/236/3
f 101/217/5 109/231/5 111/237/5
f 109/235/13 110/234/13 112/238/13 111/239/13
f 110/236/3 106/225/3 112/240/3
f 101/217/14 111/237/14 113/241/14
f 111/239/15 112/238/15 114/242/15 113/243/15
f 112/240/3 106/225/3 114/244/3
f 101/217/31 113/241/31 115/245/31
f 113/243/16 114/242/16 116/246/16 115/247/16
f 114/244/3 106/225/3 116/248/3
f 101/217/5 115/245/5 117/249/5
f 115/250/17 116/251/17 118/252/17 117/253/17
f 116/248/3 106/225/3 118/254/3
f 101/217/5 117/249/5 119/255/5
f 117/253/18 118/252/18 120/256/18 119/257/18
f 118/254/3 106/225/3 120/258/3
f 101/217/5 119/255/5 121/259/5
f 119/257/19 120/256/19 122/260/19 121/261/19
f 120/258/3 106/225/3 122/262/3
f 101/217/5 121/259/5 123/263/5
f 121/261/20 122/260/20 124/264/20 123/265/20
f 122/262/3 106/225/3 124/266/3
f 101/217/5 123/263/5 125/267/5
f 123/265/21 124/264/21 126/268/21 125/269/21
f 124/266/3 106/225/3 126/270/3
f 101/217/5 125/267/5 127/271/5
f 125/272/22 126/273/22 128/274/22 127/275/22
f 126/270/3 106/225/3 128/276/3
f 101/217/5 127/271/5 129/277/5
f 127/275/23 128/274/23 130/278/23 129/279/23
f 128/276/3 106/225/3 130/280/3
f 101/217/5 129/277/5 131/281/5
f 129/279/9 130/278/9 132/282/9 131/283/9
f 130/280/3 106/225/3 132/284/3
f 101/217/5 131/281/5 133/285/5
f 131/283/24 132/282/24 134/286/24 133/287/24
f 132/284/3 106/225/3 134/288/3
f 101/217/5 133/285/5 135/289/5
f 133/290/25 134/291/25 136/292/25 135/293/25
f 134/288/3 106/225/3 136/294/3
f 101/217/5 135/289/5 137/295/5
f 135/293/33 136/292/33 138/296/33 137/297/33
f 136/294/3 106/225/3 138/298/3
f 101/217/5 137/295/5 102/218/5
f 137/297/27 138/296/27 104/221/27 102/220/27
f 138/298/3 106/225/3 104/224/3
f 139/299/5 140/300/5 141/301/5
f 140/302/10 142/303/10 143/304/10 141/305/10
f 142/306/3 144/307/3 143/308/3
f 139/299/5 141/301/5 145/309/5
f 141/305/28 143/304/28 146/310/28 145/311/28
f 143/308/3 144/307/3 146/312/3
f 139/299/5 145/309/5 147/313/5
f 145/314/29 146/315/29 148/316/29 147/317/29
f 146/312/3 144/307/3 148/318/3
f 139/299/5 147/313/5 149/319/5
f 147/317/13 148/316/13 150/320/13 149/321/13
f 148/318/3 144/307/3 150/322/3
f 139/299/5 149/319/5 151/323/5
f 149/321/15 150/320/15 152/324/15 151/325/15
f 150/322/3 144/307/3 152/326/3
f 139/299/5 151/323/5 153/327/5
f 151/325/16 152/324/16 154/328/16 153/329/16
f 152/326/3 144/307/3 154/330/3
f 139/299/5 153/327/5 155/331/5
f 153/332/17 154/333/17 156/334/17 155/335/17
f 154/330/3 144/307/3 156/336/3
f 139/299/5 155/331/5 157/337/5
f 155/335/18 156/334/18 158/338/18 157/339/18
f 156/336/3 144/307/3 158/340/3
f 139/299/5 157/337/5 159/341/5
f 157/339/19 158/338/19 160/342/19 159/343/19
f 158/340/3 144/307/3 160/344/3
f 139/299/5 159/341/5 161/345/5
f 159/343/20 160/342/20 162/346/20 161/347/20
f 160/344/3 144/307/3 162/348/3
f 139/299/5 161/345/5 163/349/5
f 161/347/21 162/346/21 164/350/21 163/351/21
f 162/348/3 144/307/3 164/352/3
f 139/299/5 163/349/5 165/353/5
f 163/354/22 164/355/22 166/356/22 165/357/22
f 164/352/3 144/307/3 166/358/3
f 139/299/5 165/353/5 167/359/5
f 165/357/23 166/356/23 168/360/23 167/361/23
f 166/358/3 144/307/3 168/362/3
f 139/299/5 167/359/5 169/363/5
f 167/361/9 168/360/9 170/364/9 169/365/9
f 168/362/3 144/307/3 170/366/3
f 139/299/5 169/363/5 171/367/5
f 169/365/24 170/364/24 172/368/24 171/369/24
f 170/366/3 144/307/3 172/370/3
f 139/299/5 171/367/5 173/371/5
f 171/372/25 172/373/25 174/374/25 173/375/25
f 172/370/3 144/307/3 174/376/3
f 139/299/5 173/371/5 175/377/5
f 173/375/33 174/374/33 176/378/33 175/379/33
f 174/376/3 144/307/3 176/380/3
f 139/299/5 175/377/5 140/300/5
f 175/379/27 176/378/27 142/303/27 140/302/27
f 176/380/3 144/307/3 142/306/3
