# Blender v2.91.0 OBJ File: 'circuit.blend'
# www.blender.org
mtllib car_6.mtl
o Car_06
v 13.064641 0.158472 16.910145
v 13.064641 0.367406 16.910145
v 13.074596 0.367406 17.734585
v 13.074596 0.158472 17.734585
v 11.831203 0.424698 17.749598
v 11.295439 0.336766 17.756067
v 11.343683 0.158472 17.755484
v 11.831203 0.158472 17.749598
v 11.285483 0.336766 16.931627
v 11.333729 0.158472 16.931046
v 12.693809 0.424698 16.914621
v 12.693809 0.158472 16.914621
v 12.703764 0.424698 17.739061
v 11.821248 0.158472 16.925158
v 12.703764 0.158472 17.739061
v 11.821248 0.424698 16.925158
v 12.646663 0.739760 16.915192
v 11.958128 0.739760 16.923506
v 11.968082 0.739760 17.747944
v 12.656618 0.739760 17.739632
v 11.665811 0.187196 17.707752
v 11.543324 0.187196 17.709230
v 11.550711 0.226789 17.709141
v 11.544255 0.187196 17.786386
v 11.551642 0.226789 17.786297
v 11.666742 0.187196 17.784906
v 11.571980 0.261607 17.708885
v 11.572912 0.261607 17.786039
v 11.604568 0.287450 17.708492
v 11.605499 0.287450 17.785646
v 11.644541 0.301201 17.708008
v 11.645473 0.301201 17.785164
v 11.687080 0.301201 17.707495
v 11.688012 0.301201 17.784649
v 11.727054 0.287450 17.707012
v 11.727985 0.287450 17.784168
v 11.759641 0.261607 17.706619
v 11.760572 0.261607 17.783773
v 11.780910 0.226789 17.706362
v 11.781842 0.226789 17.783516
v 11.788298 0.187196 17.706272
v 11.789228 0.187196 17.783428
v 11.780910 0.147603 17.706362
v 11.781842 0.147603 17.783516
v 11.759641 0.112785 17.706619
v 11.760572 0.112785 17.783773
v 11.727054 0.086942 17.707012
v 11.727985 0.086942 17.784168
v 11.687080 0.073192 17.707495
v 11.688012 0.073192 17.784649
v 11.644541 0.073192 17.708008
v 11.645473 0.073192 17.785164
v 11.604568 0.086942 17.708492
v 11.605499 0.086942 17.785646
v 11.571980 0.112785 17.708885
v 11.572912 0.112785 17.786039
v 11.550711 0.147603 17.709141
v 11.551642 0.147603 17.786297
v 11.655840 0.187196 16.881968
v 11.533353 0.187196 16.883446
v 11.540740 0.226789 16.883356
v 11.534285 0.187196 16.960602
v 11.541672 0.226789 16.960512
v 11.656771 0.187196 16.959122
v 11.562009 0.261607 16.883101
v 11.562941 0.261607 16.960255
v 11.594596 0.287450 16.882706
v 11.595528 0.287450 16.959862
v 11.634570 0.301200 16.882223
v 11.635502 0.301200 16.959379
v 11.677109 0.301200 16.881710
v 11.678041 0.301200 16.958866
v 11.717083 0.287450 16.881227
v 11.718015 0.287450 16.958382
v 11.749670 0.261607 16.880835
v 11.750601 0.261607 16.957989
v 11.770939 0.226789 16.880577
v 11.771871 0.226789 16.957733
v 11.778326 0.187196 16.880487
v 11.779258 0.187196 16.957644
v 11.770939 0.147603 16.880577
v 11.771871 0.147603 16.957733
v 11.749670 0.112785 16.880835
v 11.750601 0.112785 16.957989
v 11.717083 0.086942 16.881227
v 11.718015 0.086942 16.958382
v 11.677109 0.073191 16.881710
v 11.678041 0.073191 16.958866
v 11.634570 0.073191 16.882223
v 11.635502 0.073191 16.959379
v 11.594596 0.086942 16.882706
v 11.595528 0.086942 16.959862
v 11.562009 0.112785 16.883101
v 11.562941 0.112785 16.960255
v 11.540740 0.147603 16.883356
v 11.541672 0.147603 16.960512
v 12.677697 0.181257 17.708149
v 12.555211 0.181257 17.709627
v 12.562597 0.220851 17.709538
v 12.556142 0.181257 17.786783
v 12.563529 0.220851 17.786694
v 12.678629 0.181257 17.785303
v 12.583867 0.255668 17.709282
v 12.584799 0.255668 17.786436
v 12.616454 0.281511 17.708889
v 12.617386 0.281511 17.786043
v 12.656427 0.295262 17.708405
v 12.657359 0.295262 17.785561
v 12.698967 0.295262 17.707891
v 12.699899 0.295262 17.785048
v 12.738940 0.281511 17.707409
v 12.739872 0.281511 17.784565
v 12.771527 0.255668 17.707016
v 12.772459 0.255668 17.784170
v 12.792797 0.220851 17.706758
v 12.793729 0.220851 17.783915
v 12.800184 0.181257 17.706669
v 12.801116 0.181257 17.783825
v 12.792797 0.141664 17.706758
v 12.793729 0.141664 17.783915
v 12.771527 0.106846 17.707016
v 12.772459 0.106846 17.784170
v 12.738940 0.081003 17.707409
v 12.739872 0.081003 17.784565
v 12.698967 0.067253 17.707891
v 12.699899 0.067253 17.785048
v 12.656427 0.067253 17.708405
v 12.657359 0.067253 17.785561
v 12.616454 0.081003 17.708889
v 12.617386 0.081003 17.786043
v 12.583867 0.106846 17.709282
v 12.584799 0.106846 17.786436
v 12.562597 0.141664 17.709538
v 12.563529 0.141664 17.786694
v 12.667727 0.181257 16.882364
v 12.545239 0.181257 16.883842
v 12.552627 0.220851 16.883755
v 12.546171 0.181257 16.960999
v 12.553558 0.220851 16.960909
v 12.668657 0.181257 16.959518
v 12.573895 0.255668 16.883497
v 12.574827 0.255668 16.960651
v 12.606483 0.281511 16.883102
v 12.607414 0.281511 16.960258
v 12.646457 0.295262 16.882622
v 12.647388 0.295262 16.959776
v 12.688995 0.295262 16.882107
v 12.689927 0.295262 16.959263
v 12.728970 0.281511 16.881624
v 12.729901 0.281511 16.958780
v 12.761557 0.255668 16.881231
v 12.762488 0.255668 16.958385
v 12.782825 0.220851 16.880974
v 12.783757 0.220851 16.958130
v 12.790213 0.181257 16.880884
v 12.791144 0.181257 16.958040
v 12.782825 0.141664 16.880974
v 12.783757 0.141664 16.958130
v 12.761557 0.106846 16.881231
v 12.762488 0.106846 16.958385
v 12.728970 0.081003 16.881624
v 12.729901 0.081003 16.958780
v 12.688995 0.067253 16.882107
v 12.689927 0.067253 16.959263
v 12.646457 0.067253 16.882622
v 12.647388 0.067253 16.959776
v 12.606483 0.081003 16.883102
v 12.607414 0.081003 16.960258
v 12.573895 0.106846 16.883497
v 12.574827 0.106846 16.960651
v 12.552627 0.141664 16.883755
v 12.553558 0.141664 16.960909
vt 0.675888 -0.075510
vt 0.675888 -0.007822
vt 0.990779 -0.007822
vt 0.990779 -0.075510
vt 0.484130 -0.701967
vt 0.688763 -0.730454
vt 0.670336 -0.788216
vt 0.484130 -0.788216
vt 0.324112 -0.568622
vt 0.324112 -0.584253
vt 0.009221 -0.584253
vt 0.009221 -0.568622
vt 0.547125 -0.905929
vt 0.688763 -0.924490
vt 0.688763 -0.992178
vt 0.547125 -0.992178
vt 0.342554 -0.584253
vt 0.342554 -0.464107
vt 0.657446 -0.464107
vt 0.657446 -0.584253
vt 0.009221 -0.410670
vt 0.324112 -0.410670
vt 0.150859 -0.788216
vt 0.150859 -0.701967
vt 0.213854 -0.992178
vt 0.027648 -0.992178
vt 0.009221 -0.934417
vt 0.213854 -0.905929
vt 0.342554 -0.181405
vt 0.342554 -0.007822
vt 0.657446 -0.007822
vt 0.657446 -0.181405
vt 0.009221 -0.127968
vt 0.324112 -0.127968
vt 0.342554 -0.448832
vt 0.342554 -0.225753
vt 0.657446 -0.225753
vt 0.657446 -0.448832
vt 0.009221 -0.788216
vt 0.009221 -0.720528
vt 0.009221 -0.007822
vt 0.324112 -0.007822
vt 0.168866 -0.599897
vt 0.431849 -0.599897
vt 0.266135 -0.803859
vt 0.529118 -0.803859
vt 0.722671 -0.396622
vt 0.675888 -0.396622
vt 0.678709 -0.383795
vt 0.865277 -0.524097
vt 0.835808 -0.524097
vt 0.835808 -0.511270
vt 0.865277 -0.511270
vt 0.881463 -0.307110
vt 0.834680 -0.307110
vt 0.878642 -0.294283
vt 0.686833 -0.372515
vt 0.835808 -0.499990
vt 0.865277 -0.499990
vt 0.870518 -0.283004
vt 0.699279 -0.364143
vt 0.739985 -0.538711
vt 0.769454 -0.538711
vt 0.769454 -0.549269
vt 0.739985 -0.549269
vt 0.858071 -0.274631
vt 0.714547 -0.359688
vt 0.769454 -0.562220
vt 0.739985 -0.562220
vt 0.842804 -0.270177
vt 0.730795 -0.359688
vt 0.769454 -0.576002
vt 0.739985 -0.576002
vt 0.826556 -0.270177
vt 0.746063 -0.364143
vt 0.769454 -0.588953
vt 0.739985 -0.588953
vt 0.811288 -0.274631
vt 0.758509 -0.372515
vt 0.769454 -0.599511
vt 0.739985 -0.599511
vt 0.798842 -0.283004
vt 0.766633 -0.383795
vt 0.835808 -0.563847
vt 0.865277 -0.563847
vt 0.865277 -0.575127
vt 0.835808 -0.575127
vt 0.790718 -0.294283
vt 0.769454 -0.396622
vt 0.865277 -0.587954
vt 0.835808 -0.587954
vt 0.787897 -0.307110
vt 0.766633 -0.409449
vt 0.865277 -0.600781
vt 0.835808 -0.600781
vt 0.790718 -0.319937
vt 0.758509 -0.420729
vt 0.865277 -0.612061
vt 0.835808 -0.612061
vt 0.798842 -0.331217
vt 0.746063 -0.429101
vt 0.739985 -0.615155
vt 0.769454 -0.615155
vt 0.769454 -0.625713
vt 0.739985 -0.625713
vt 0.811288 -0.339589
vt 0.730795 -0.433556
vt 0.769454 -0.638664
vt 0.739985 -0.638664
vt 0.826556 -0.344044
vt 0.714547 -0.433556
vt 0.769454 -0.652446
vt 0.739985 -0.652446
vt 0.842804 -0.344044
vt 0.699279 -0.429101
vt 0.769454 -0.665398
vt 0.739985 -0.665398
vt 0.858071 -0.339589
vt 0.686833 -0.420729
vt 0.769454 -0.675955
vt 0.739985 -0.675955
vt 0.870518 -0.331217
vt 0.678709 -0.409449
vt 0.865277 -0.548203
vt 0.835808 -0.548203
vt 0.835808 -0.536924
vt 0.865277 -0.536924
vt 0.878642 -0.319937
vt 0.834680 -0.217599
vt 0.787897 -0.217599
vt 0.790718 -0.204772
vt 0.913188 -0.383795
vt 0.883719 -0.383795
vt 0.883719 -0.370968
vt 0.913188 -0.370968
vt 0.881463 -0.128088
vt 0.834680 -0.128088
vt 0.878642 -0.115261
vt 0.798842 -0.193492
vt 0.883719 -0.359688
vt 0.913188 -0.359688
vt 0.870518 -0.103981
vt 0.811288 -0.185120
vt 0.835808 -0.359688
vt 0.865277 -0.359688
vt 0.865277 -0.370246
vt 0.835808 -0.370246
vt 0.858071 -0.095609
vt 0.826556 -0.180665
vt 0.865277 -0.383197
vt 0.835808 -0.383197
vt 0.842804 -0.091154
vt 0.842804 -0.180665
vt 0.865277 -0.396979
vt 0.835808 -0.396979
vt 0.826556 -0.091154
vt 0.858071 -0.185120
vt 0.865277 -0.409930
vt 0.835808 -0.409930
vt 0.811288 -0.095609
vt 0.870518 -0.193492
vt 0.865277 -0.420488
vt 0.835808 -0.420488
vt 0.798842 -0.103981
vt 0.878642 -0.204772
vt 0.883719 -0.423546
vt 0.913188 -0.423546
vt 0.913188 -0.434825
vt 0.883719 -0.434825
vt 0.790718 -0.115261
vt 0.881463 -0.217599
vt 0.913188 -0.447652
vt 0.883719 -0.447652
vt 0.787897 -0.128088
vt 0.878642 -0.230426
vt 0.913188 -0.460479
vt 0.883719 -0.460479
vt 0.790718 -0.140914
vt 0.870518 -0.241706
vt 0.913188 -0.471759
vt 0.883719 -0.471759
vt 0.798842 -0.152194
vt 0.858071 -0.250078
vt 0.787897 -0.589021
vt 0.817366 -0.589021
vt 0.817366 -0.599579
vt 0.787897 -0.599579
vt 0.811288 -0.160567
vt 0.842804 -0.254533
vt 0.817366 -0.612530
vt 0.787897 -0.612530
vt 0.826556 -0.165021
vt 0.826556 -0.254533
vt 0.817366 -0.626312
vt 0.787897 -0.626312
vt 0.842804 -0.165021
vt 0.811288 -0.250078
vt 0.817366 -0.639263
vt 0.787897 -0.639263
vt 0.858071 -0.160567
vt 0.798842 -0.241706
vt 0.817366 -0.649821
vt 0.787897 -0.649821
vt 0.870518 -0.152194
vt 0.790718 -0.230426
vt 0.913188 -0.407902
vt 0.883719 -0.407902
vt 0.883719 -0.396622
vt 0.913188 -0.396622
vt 0.878642 -0.140914
vt 0.722671 -0.486133
vt 0.675888 -0.486133
vt 0.678709 -0.473306
vt 0.865277 -0.651812
vt 0.835808 -0.651812
vt 0.835808 -0.638985
vt 0.865277 -0.638985
vt 0.769454 -0.128088
vt 0.722671 -0.128088
vt 0.766633 -0.115261
vt 0.686833 -0.462026
vt 0.835808 -0.627705
vt 0.865277 -0.627705
vt 0.758509 -0.103981
vt 0.699279 -0.453654
vt 0.787897 -0.359688
vt 0.817366 -0.359688
vt 0.817366 -0.370246
vt 0.787897 -0.370246
vt 0.746063 -0.095609
vt 0.714547 -0.449199
vt 0.817366 -0.383197
vt 0.787897 -0.383197
vt 0.730795 -0.091154
vt 0.730795 -0.449199
vt 0.817366 -0.396979
vt 0.787897 -0.396979
vt 0.714547 -0.091154
vt 0.746063 -0.453654
vt 0.817366 -0.409930
vt 0.787897 -0.409930
vt 0.699279 -0.095609
vt 0.758509 -0.462026
vt 0.817366 -0.420488
vt 0.787897 -0.420488
vt 0.686833 -0.103981
vt 0.766633 -0.473306
vt 0.835808 -0.436132
vt 0.865277 -0.436132
vt 0.865277 -0.447412
vt 0.835808 -0.447412
vt 0.678709 -0.115261
vt 0.769454 -0.486133
vt 0.865277 -0.460239
vt 0.835808 -0.460239
vt 0.675888 -0.128088
vt 0.766633 -0.498960
vt 0.865277 -0.473066
vt 0.835808 -0.473066
vt 0.678709 -0.140914
vt 0.758509 -0.510240
vt 0.865277 -0.484346
vt 0.835808 -0.484346
vt 0.686833 -0.152194
vt 0.746063 -0.518612
vt 0.787897 -0.436132
vt 0.817366 -0.436132
vt 0.817366 -0.446690
vt 0.787897 -0.446690
vt 0.699279 -0.160567
vt 0.730795 -0.523067
vt 0.817366 -0.459641
vt 0.787897 -0.459641
vt 0.714547 -0.165021
vt 0.714547 -0.523067
vt 0.817366 -0.473424
vt 0.787897 -0.473424
vt 0.730795 -0.165021
vt 0.699279 -0.518612
vt 0.817366 -0.486375
vt 0.787897 -0.486375
vt 0.746063 -0.160567
vt 0.686833 -0.510240
vt 0.817366 -0.496933
vt 0.787897 -0.496933
vt 0.758509 -0.152194
vt 0.678709 -0.498960
vt 0.865277 -0.675918
vt 0.835808 -0.675918
vt 0.835808 -0.664639
vt 0.865277 -0.664639
vt 0.766633 -0.140914
vt 0.722671 -0.217599
vt 0.675888 -0.217599
vt 0.678709 -0.204772
vt 0.769454 -0.715706
vt 0.739985 -0.715706
vt 0.739985 -0.702879
vt 0.769454 -0.702879
vt 0.769454 -0.307110
vt 0.722671 -0.307110
vt 0.766633 -0.294283
vt 0.686833 -0.193492
vt 0.739985 -0.691599
vt 0.769454 -0.691599
vt 0.758509 -0.283004
vt 0.699279 -0.185120
vt 0.787897 -0.665465
vt 0.817366 -0.665465
vt 0.817366 -0.676023
vt 0.787897 -0.676023
vt 0.746063 -0.274631
vt 0.714547 -0.180665
vt 0.817366 -0.688974
vt 0.787897 -0.688974
vt 0.730795 -0.270177
vt 0.730795 -0.180665
vt 0.817366 -0.702756
vt 0.787897 -0.702756
vt 0.714547 -0.270177
vt 0.746063 -0.185120
vt 0.817366 -0.715707
vt 0.787897 -0.715707
vt 0.699279 -0.274631
vt 0.758509 -0.193492
vt 0.817366 -0.726265
vt 0.787897 -0.726265
vt 0.686833 -0.283004
vt 0.766633 -0.204772
vt 0.835808 -0.691562
vt 0.865277 -0.691562
vt 0.865277 -0.702842
vt 0.835808 -0.702842
vt 0.678709 -0.294283
vt 0.769454 -0.217599
vt 0.865277 -0.715669
vt 0.835808 -0.715669
vt 0.675888 -0.307110
vt 0.766633 -0.230426
vt 0.865277 -0.728496
vt 0.835808 -0.728496
vt 0.678709 -0.319937
vt 0.758509 -0.241706
vt 0.865277 -0.739776
vt 0.835808 -0.739776
vt 0.686833 -0.331217
vt 0.746063 -0.250078
vt 0.787897 -0.512576
vt 0.817366 -0.512576
vt 0.817366 -0.523134
vt 0.787897 -0.523134
vt 0.699279 -0.339589
vt 0.730795 -0.254533
vt 0.817366 -0.536085
vt 0.787897 -0.536085
vt 0.714547 -0.344044
vt 0.714547 -0.254533
vt 0.817366 -0.549868
vt 0.787897 -0.549868
vt 0.730795 -0.344044
vt 0.699279 -0.250078
vt 0.817366 -0.562819
vt 0.787897 -0.562819
vt 0.746063 -0.339589
vt 0.686833 -0.241706
vt 0.817366 -0.573377
vt 0.787897 -0.573377
vt 0.758509 -0.331217
vt 0.678709 -0.230426
vt 0.769454 -0.739813
vt 0.739985 -0.739813
vt 0.739985 -0.728533
vt 0.769454 -0.728533
vt 0.766633 -0.319937
vn 0.9999 0.0000 -0.0121
vn 0.0121 -0.0000 0.9999
vn -0.9652 -0.2612 0.0117
vn -0.0121 0.0000 -0.9999
vn 0.1527 0.9883 -0.0018
vn 0.0000 -1.0000 0.0000
vn -0.1619 0.9868 0.0020
vn -0.0000 1.0000 0.0000
vn 0.9889 0.1480 -0.0119
vn -0.9171 0.3985 0.0111
vn -0.9830 0.1834 0.0119
vn -0.8533 0.5214 0.0103
vn 0.0120 0.0000 0.9999
vn -0.6213 0.7835 0.0075
vn -0.3252 0.9456 0.0039
vn 0.0122 -0.0000 0.9999
vn -0.0120 -0.0000 -0.9999
vn 0.3252 0.9456 -0.0039
vn 0.6213 0.7836 -0.0075
vn 0.8533 0.5213 -0.0103
vn 0.9830 0.1834 -0.0119
vn 0.9830 -0.1834 -0.0119
vn 0.8533 -0.5213 -0.0103
vn 0.6213 -0.7836 -0.0075
vn 0.3252 -0.9456 -0.0039
vn -0.3252 -0.9456 0.0039
vn -0.6213 -0.7835 0.0075
vn -0.8533 -0.5214 0.0103
vn -0.9830 -0.1834 0.0119
vn -0.8533 0.5213 0.0103
vn 0.6213 0.7835 -0.0075
vn 0.6213 -0.7835 -0.0075
vn -0.8533 -0.5213 0.0103
vn -0.3253 -0.9456 0.0039
vn -0.6213 0.7836 0.0075
vn -0.6213 -0.7836 0.0075
usemtl Material.040
s off
f 1/1/1 2/2/1 3/3/1 4/4/1
f 5/5/2 6/6/2 7/7/2 8/8/2
f 7/9/3 6/10/3 9/11/3 10/12/3
f 11/13/4 2/14/4 1/15/4 12/16/4
f 2/17/5 11/18/5 13/19/5 3/20/5
f 10/12/6 14/21/6 8/22/6 7/9/6
f 8/8/2 15/23/2 13/24/2 5/5/2
f 14/25/4 10/26/4 9/27/4 16/28/4
f 16/29/7 9/30/7 6/31/7 5/32/7
f 14/21/6 12/33/6 15/34/6 8/22/6
f 12/16/4 14/25/4 16/28/4 11/13/4
f 17/35/8 18/36/8 19/37/8 20/38/8
f 15/23/2 4/39/2 3/40/2 13/24/2
f 12/33/6 1/41/6 4/42/6 15/34/6
f 11/18/9 17/35/9 20/38/9 13/19/9
f 13/24/2 20/43/2 19/44/2 5/5/2
f 5/32/10 19/37/10 18/36/10 16/29/10
f 16/28/4 18/45/4 17/46/4 11/13/4
f 21/47/4 22/48/4 23/49/4
f 22/50/11 24/51/11 25/52/11 23/53/11
f 24/54/2 26/55/2 25/56/2
f 21/47/4 23/49/4 27/57/4
f 23/53/12 25/52/12 28/58/12 27/59/12
f 25/56/13 26/55/13 28/60/13
f 21/47/4 27/57/4 29/61/4
f 27/62/14 28/63/14 30/64/14 29/65/14
f 28/60/13 26/55/13 30/66/13
f 21/47/4 29/61/4 31/67/4
f 29/65/15 30/64/15 32/68/15 31/69/15
f 30/66/16 26/55/16 32/70/16
f 21/47/4 31/67/4 33/71/4
f 31/69/8 32/68/8 34/72/8 33/73/8
f 32/70/13 26/55/13 34/74/13
f 21/47/17 33/71/17 35/75/17
f 33/73/18 34/72/18 36/76/18 35/77/18
f 34/74/13 26/55/13 36/78/13
f 21/47/4 35/75/4 37/79/4
f 35/77/19 36/76/19 38/80/19 37/81/19
f 36/78/2 26/55/2 38/82/2
f 21/47/4 37/79/4 39/83/4
f 37/84/20 38/85/20 40/86/20 39/87/20
f 38/82/2 26/55/2 40/88/2
f 21/47/4 39/83/4 41/89/4
f 39/87/21 40/86/21 42/90/21 41/91/21
f 40/88/13 26/55/13 42/92/13
f 21/47/4 41/89/4 43/93/4
f 41/91/22 42/90/22 44/94/22 43/95/22
f 42/92/13 26/55/13 44/96/13
f 21/47/4 43/93/4 45/97/4
f 43/95/23 44/94/23 46/98/23 45/99/23
f 44/96/2 26/55/2 46/100/2
f 21/47/4 45/97/4 47/101/4
f 45/102/24 46/103/24 48/104/24 47/105/24
f 46/100/2 26/55/2 48/106/2
f 21/47/17 47/101/17 49/107/17
f 47/105/25 48/104/25 50/108/25 49/109/25
f 48/106/2 26/55/2 50/110/2
f 21/47/4 49/107/4 51/111/4
f 49/109/6 50/108/6 52/112/6 51/113/6
f 50/110/13 26/55/13 52/114/13
f 21/47/4 51/111/4 53/115/4
f 51/113/26 52/112/26 54/116/26 53/117/26
f 52/114/2 26/55/2 54/118/2
f 21/47/4 53/115/4 55/119/4
f 53/117/27 54/116/27 56/120/27 55/121/27
f 54/118/13 26/55/13 56/122/13
f 21/47/17 55/119/17 57/123/17
f 55/124/28 56/125/28 58/126/28 57/127/28
f 56/122/2 26/55/2 58/128/2
f 21/47/4 57/123/4 22/48/4
f 57/127/29 58/126/29 24/51/29 22/50/29
f 58/128/2 26/55/2 24/54/2
f 59/129/4 60/130/4 61/131/4
f 60/132/11 62/133/11 63/134/11 61/135/11
f 62/136/2 64/137/2 63/138/2
f 59/129/17 61/131/17 65/139/17
f 61/135/30 63/134/30 66/140/30 65/141/30
f 63/138/2 64/137/2 66/142/2
f 59/129/4 65/139/4 67/143/4
f 65/144/14 66/145/14 68/146/14 67/147/14
f 66/142/13 64/137/13 68/148/13
f 59/129/4 67/143/4 69/149/4
f 67/147/15 68/146/15 70/150/15 69/151/15
f 68/148/13 64/137/13 70/152/13
f 59/129/17 69/149/17 71/153/17
f 69/151/8 70/150/8 72/154/8 71/155/8
f 70/152/2 64/137/2 72/156/2
f 59/129/4 71/153/4 73/157/4
f 71/155/18 72/154/18 74/158/18 73/159/18
f 72/156/2 64/137/2 74/160/2
f 59/129/4 73/157/4 75/161/4
f 73/159/31 74/158/31 76/162/31 75/163/31
f 74/160/13 64/137/13 76/164/13
f 59/129/4 75/161/4 77/165/4
f 75/166/20 76/167/20 78/168/20 77/169/20
f 76/164/13 64/137/13 78/170/13
f 59/129/4 77/165/4 79/171/4
f 77/169/21 78/168/21 80/172/21 79/173/21
f 78/170/2 64/137/2 80/174/2
f 59/129/4 79/171/4 81/175/4
f 79/173/22 80/172/22 82/176/22 81/177/22
f 80/174/2 64/137/2 82/178/2
f 59/129/4 81/175/4 83/179/4
f 81/177/23 82/176/23 84/180/23 83/181/23
f 82/178/13 64/137/13 84/182/13
f 59/129/4 83/179/4 85/183/4
f 83/184/32 84/185/32 86/186/32 85/187/32
f 84/182/13 64/137/13 86/188/13
f 59/129/4 85/183/4 87/189/4
f 85/187/25 86/186/25 88/190/25 87/191/25
f 86/188/2 64/137/2 88/192/2
f 59/129/17 87/189/17 89/193/17
f 87/191/6 88/190/6 90/194/6 89/195/6
f 88/192/2 64/137/2 90/196/2
f 59/129/17 89/193/17 91/197/17
f 89/195/26 90/194/26 92/198/26 91/199/26
f 90/196/13 64/137/13 92/200/13
f 59/129/4 91/197/4 93/201/4
f 91/199/27 92/198/27 94/202/27 93/203/27
f 92/200/13 64/137/13 94/204/13
f 59/129/4 93/201/4 95/205/4
f 93/206/33 94/207/33 96/208/33 95/209/33
f 94/204/2 64/137/2 96/210/2
f 59/129/17 95/205/17 60/130/17
f 95/209/29 96/208/29 62/133/29 60/132/29
f 96/210/2 64/137/2 62/136/2
f 97/211/4 98/212/4 99/213/4
f 98/214/11 100/215/11 101/216/11 99/217/11
f 100/218/2 102/219/2 101/220/2
f 97/211/4 99/213/4 103/221/4
f 99/217/12 101/216/12 104/222/12 103/223/12
f 101/220/2 102/219/2 104/224/2
f 97/211/4 103/221/4 105/225/4
f 103/226/14 104/227/14 106/228/14 105/229/14
f 104/224/13 102/219/13 106/230/13
f 97/211/4 105/225/4 107/231/4
f 105/229/15 106/228/15 108/232/15 107/233/15
f 106/230/2 102/219/2 108/234/2
f 97/211/4 107/231/4 109/235/4
f 107/233/8 108/232/8 110/236/8 109/237/8
f 108/234/13 102/219/13 110/238/13
f 97/211/17 109/235/17 111/239/17
f 109/237/18 110/236/18 112/240/18 111/241/18
f 110/238/13 102/219/13 112/242/13
f 97/211/4 111/239/4 113/243/4
f 111/241/31 112/240/31 114/244/31 113/245/31
f 112/242/2 102/219/2 114/246/2
f 97/211/4 113/243/4 115/247/4
f 113/248/20 114/249/20 116/250/20 115/251/20
f 114/246/2 102/219/2 116/252/2
f 97/211/4 115/247/4 117/253/4
f 115/251/21 116/250/21 118/254/21 117/255/21
f 116/252/13 102/219/13 118/256/13
f 97/211/4 117/253/4 119/257/4
f 117/255/22 118/254/22 120/258/22 119/259/22
f 118/256/13 102/219/13 120/260/13
f 97/211/4 119/257/4 121/261/4
f 119/259/23 120/258/23 122/262/23 121/263/23
f 120/260/2 102/219/2 122/264/2
f 97/211/4 121/261/4 123/265/4
f 121/266/32 122/267/32 124/268/32 123/269/32
f 122/264/2 102/219/2 124/270/2
f 97/211/17 123/265/17 125/271/17
f 123/269/25 124/268/25 126/272/25 125/273/25
f 124/270/2 102/219/2 126/274/2
f 97/211/4 125/271/4 127/275/4
f 125/273/6 126/272/6 128/276/6 127/277/6
f 126/274/13 102/219/13 128/278/13
f 97/211/4 127/275/4 129/279/4
f 127/277/34 128/276/34 130/280/34 129/281/34
f 128/278/2 102/219/2 130/282/2
f 97/211/4 129/279/4 131/283/4
f 129/281/27 130/280/27 132/284/27 131/285/27
f 130/282/2 102/219/2 132/286/2
f 97/211/17 131/283/17 133/287/17
f 131/288/28 132/289/28 134/290/28 133/291/28
f 132/286/2 102/219/2 134/292/2
f 97/211/4 133/287/4 98/212/4
f 133/291/29 134/290/29 100/215/29 98/214/29
f 134/292/2 102/219/2 100/218/2
f 135/293/4 136/294/4 137/295/4
f 136/296/11 138/297/11 139/298/11 137/299/11
f 138/300/2 140/301/2 139/302/2
f 135/293/4 137/295/4 141/303/4
f 137/299/30 139/298/30 142/304/30 141/305/30
f 139/302/13 140/301/13 142/306/13
f 135/293/4 141/303/4 143/307/4
f 141/308/35 142/309/35 144/310/35 143/311/35
f 142/306/2 140/301/2 144/312/2
f 135/293/17 143/307/17 145/313/17
f 143/311/15 144/310/15 146/314/15 145/315/15
f 144/312/13 140/301/13 146/316/13
f 135/293/17 145/313/17 147/317/17
f 145/315/8 146/314/8 148/318/8 147/319/8
f 146/316/2 140/301/2 148/320/2
f 135/293/4 147/317/4 149/321/4
f 147/319/18 148/318/18 150/322/18 149/323/18
f 148/320/2 140/301/2 150/324/2
f 135/293/17 149/321/17 151/325/17
f 149/323/19 150/322/19 152/326/19 151/327/19
f 150/324/13 140/301/13 152/328/13
f 135/293/4 151/325/4 153/329/4
f 151/330/20 152/331/20 154/332/20 153/333/20
f 152/328/2 140/301/2 154/334/2
f 135/293/4 153/329/4 155/335/4
f 153/333/21 154/332/21 156/336/21 155/337/21
f 154/334/2 140/301/2 156/338/2
f 135/293/4 155/335/4 157/339/4
f 155/337/22 156/336/22 158/340/22 157/341/22
f 156/338/2 140/301/2 158/342/2
f 135/293/4 157/339/4 159/343/4
f 157/341/23 158/340/23 160/344/23 159/345/23
f 158/342/2 140/301/2 160/346/2
f 135/293/4 159/343/4 161/347/4
f 159/348/32 160/349/32 162/350/32 161/351/32
f 160/346/13 140/301/13 162/352/13
f 135/293/4 161/347/4 163/353/4
f 161/351/25 162/350/25 164/354/25 163/355/25
f 162/352/2 140/301/2 164/356/2
f 135/293/17 163/353/17 165/357/17
f 163/355/6 164/354/6 166/358/6 165/359/6
f 164/356/2 140/301/2 166/360/2
f 135/293/17 165/357/17 167/361/17
f 165/359/26 166/358/26 168/362/26 167/363/26
f 166/360/13 140/301/13 168/364/13
f 135/293/4 167/361/4 169/365/4
f 167/363/36 168/362/36 170/366/36 169/367/36
f 168/364/2 140/301/2 170/368/2
f 135/293/4 169/365/4 171/369/4
f 169/370/33 170/371/33 172/372/33 171/373/33
f 170/368/2 140/301/2 172/374/2
f 135/293/4 171/369/4 136/294/4
f 171/373/29 172/372/29 138/297/29 136/296/29
f 172/374/2 140/301/2 138/300/2
