# Blender v2.91.0 OBJ File: 'circuit.blend'
# www.blender.org
mtllib garages.mtl
o garages_Cube.004
v -2.614974 1.208821 25.818335
v -2.614974 1.913901 24.000530
v -2.614974 1.186099 25.809521
v -2.614974 1.891178 23.991716
v -0.177779 1.208821 25.818335
v -0.177779 1.913901 24.000530
v -0.177779 1.186099 25.809521
v -0.177779 1.891178 23.991716
v -2.614974 -0.026012 24.986265
v -2.614974 1.923743 24.986265
v -2.614974 -0.026013 20.111876
v -2.614974 1.923743 20.111876
v -0.177779 -0.026012 24.986265
v -0.177779 1.923743 24.986265
v -0.177779 -0.026013 20.111876
v -0.177779 1.923743 20.111876
v -2.614974 0.020902 24.933733
v -2.614974 1.923743 24.933733
v -0.177779 1.923743 24.933733
v -0.177779 0.020902 24.933733
v -2.614974 1.502448 24.933733
v -0.177779 1.502448 24.933733
v -1.396377 0.020902 24.933733
v -1.396377 1.923743 24.933733
v -1.396377 1.502448 24.933733
v -0.177779 1.208821 25.818335
v -0.177779 1.913901 24.000530
v -0.177779 1.186099 25.809521
v -0.177779 1.891178 23.991716
v 2.259415 1.208821 25.818335
v 2.259415 1.913901 24.000530
v 2.259415 1.186099 25.809521
v 2.259415 1.891178 23.991716
v -0.177779 -0.026012 24.986265
v -0.177779 1.923743 24.986265
v -0.177779 -0.026013 20.111876
v -0.177779 1.923743 20.111876
v 2.259415 -0.026012 24.986265
v 2.259415 1.923743 24.986265
v 2.259415 -0.026013 20.111876
v 2.259415 1.923743 20.111876
v -0.177779 0.020902 24.933733
v -0.177779 1.923743 24.933733
v 2.259415 1.923743 24.933733
v 2.259415 0.020902 24.933733
v -0.177779 1.502448 24.933733
v 2.259415 1.502448 24.933733
v 1.040818 0.020902 24.933733
v 1.040818 1.923743 24.933733
v 1.040818 1.502448 24.933733
v 2.259415 1.208821 25.818335
v 2.259415 1.913901 24.000530
v 2.259415 1.186099 25.809521
v 2.259415 1.891178 23.991716
v 4.696610 1.208821 25.818335
v 4.696610 1.913901 24.000530
v 4.696610 1.186099 25.809521
v 4.696610 1.891178 23.991716
v 2.259415 -0.026012 24.986265
v 2.259415 1.923743 24.986265
v 2.259415 -0.026013 20.111876
v 2.259415 1.923743 20.111876
v 4.696610 -0.026012 24.986265
v 4.696610 1.923743 24.986265
v 4.696610 -0.026013 20.111876
v 4.696610 1.923743 20.111876
v 2.259415 0.020902 24.933733
v 2.259415 1.923743 24.933733
v 4.696610 1.923743 24.933733
v 4.696610 0.020902 24.933733
v 2.259415 1.502448 24.933733
v 4.696610 1.502448 24.933733
v 3.478013 0.020902 24.933733
v 3.478013 1.923743 24.933733
v 3.478013 1.502448 24.933733
v 4.696610 1.208821 25.818335
v 4.696610 1.913901 24.000530
v 4.696610 1.186099 25.809521
v 4.696610 1.891178 23.991716
v 7.133805 1.208821 25.818335
v 7.133805 1.913901 24.000530
v 7.133805 1.186099 25.809521
v 7.133805 1.891178 23.991716
v 4.696610 -0.026012 24.986265
v 4.696610 1.923743 24.986265
v 4.696610 -0.026013 20.111876
v 4.696610 1.923743 20.111876
v 7.133805 -0.026012 24.986265
v 7.133805 1.923743 24.986265
v 7.133805 -0.026013 20.111876
v 7.133805 1.923743 20.111876
v 4.696610 0.020902 24.933733
v 4.696610 1.923743 24.933733
v 7.133805 1.923743 24.933733
v 7.133805 0.020902 24.933733
v 4.696610 1.502448 24.933733
v 7.133805 1.502448 24.933733
v 5.915208 0.020902 24.933733
v 5.915208 1.923743 24.933733
v 5.915208 1.502448 24.933733
vt 0.794165 0.180542
vt 0.754089 0.180542
vt 0.754089 0.140465
vt 0.794165 0.140465
vt 0.754089 0.100389
vt 0.794165 0.100389
vt 0.754089 0.060312
vt 0.794165 0.060312
vt 0.702638 0.239581
vt 0.701394 0.976629
vt 0.601836 0.975385
vt 0.603081 0.238336
vt 0.874201 0.323277
vt 0.834125 0.323277
vt 0.834125 0.283201
vt 0.874201 0.283201
vt 0.714012 0.100389
vt 0.714012 0.060312
vt 0.794165 0.180542
vt 0.754089 0.180542
vt 0.754089 0.140465
vt 0.794165 0.140465
vt 0.754089 0.100389
vt 0.794165 0.100389
vt 0.754089 0.060312
vt 0.794165 0.060312
vt 0.794165 0.180542
vt 0.774127 0.180542
vt 0.754089 0.180542
vt 0.834241 0.100389
vt 0.834241 0.060312
vt 0.714012 0.100389
vt 0.714012 0.060312
vt 0.794165 0.060312
vt 0.814203 0.060312
vt 0.834241 0.060312
vt 0.751080 0.061870
vt 0.711005 0.062298
vt 0.711005 0.062298
vt 0.731043 0.062084
vt 0.751080 0.061870
vt 0.754089 0.060312
vt 0.774127 0.060312
vt 0.292874 0.132401
vt 0.292580 0.735855
vt 0.030408 0.735561
vt 0.030702 0.132107
vt 0.555045 0.132695
vt 0.554751 0.736149
vt 0.794165 0.180542
vt 0.754089 0.180542
vt 0.754089 0.140465
vt 0.794165 0.140465
vt 0.754089 0.100389
vt 0.794165 0.100389
vt 0.754089 0.060312
vt 0.794165 0.060312
vt 0.702638 0.239581
vt 0.701394 0.976629
vt 0.601836 0.975385
vt 0.603081 0.238336
vt 0.874201 0.323277
vt 0.834125 0.323277
vt 0.834125 0.283201
vt 0.874201 0.283201
vt 0.714012 0.100389
vt 0.714012 0.060312
vt 0.794165 0.180542
vt 0.754089 0.180542
vt 0.754089 0.140465
vt 0.794165 0.140465
vt 0.754089 0.100389
vt 0.794165 0.100389
vt 0.754089 0.060312
vt 0.794165 0.060312
vt 0.794165 0.180542
vt 0.774127 0.180542
vt 0.754089 0.180542
vt 0.834241 0.100389
vt 0.834241 0.060312
vt 0.714012 0.100389
vt 0.714012 0.060312
vt 0.794165 0.060312
vt 0.814203 0.060312
vt 0.834241 0.060312
vt 0.751080 0.061870
vt 0.711005 0.062298
vt 0.711005 0.062298
vt 0.731043 0.062084
vt 0.751080 0.061870
vt 0.754089 0.060312
vt 0.774127 0.060312
vt 0.292874 0.132401
vt 0.292580 0.735855
vt 0.030408 0.735561
vt 0.030702 0.132107
vt 0.555045 0.132695
vt 0.554751 0.736149
vt 0.794165 0.180542
vt 0.754089 0.180542
vt 0.754089 0.140465
vt 0.794165 0.140465
vt 0.754089 0.100389
vt 0.794165 0.100389
vt 0.754089 0.060312
vt 0.794165 0.060312
vt 0.702638 0.239581
vt 0.701394 0.976629
vt 0.601836 0.975385
vt 0.603081 0.238336
vt 0.874201 0.323277
vt 0.834125 0.323277
vt 0.834125 0.283201
vt 0.874201 0.283201
vt 0.714012 0.100389
vt 0.714012 0.060312
vt 0.794165 0.180542
vt 0.754089 0.180542
vt 0.754089 0.140465
vt 0.794165 0.140465
vt 0.754089 0.100389
vt 0.794165 0.100389
vt 0.754089 0.060312
vt 0.794165 0.060312
vt 0.794165 0.180542
vt 0.774127 0.180542
vt 0.754089 0.180542
vt 0.834241 0.100389
vt 0.834241 0.060312
vt 0.714012 0.100389
vt 0.714012 0.060312
vt 0.794165 0.060312
vt 0.814203 0.060312
vt 0.834241 0.060312
vt 0.751080 0.061870
vt 0.711005 0.062298
vt 0.711005 0.062298
vt 0.731043 0.062084
vt 0.751080 0.061870
vt 0.754089 0.060312
vt 0.774127 0.060312
vt 0.292874 0.132401
vt 0.292580 0.735855
vt 0.030408 0.735561
vt 0.030702 0.132107
vt 0.555045 0.132695
vt 0.554751 0.736149
vt 0.794165 0.180542
vt 0.754089 0.180542
vt 0.754089 0.140465
vt 0.794165 0.140465
vt 0.754089 0.100389
vt 0.794165 0.100389
vt 0.754089 0.060312
vt 0.794165 0.060312
vt 0.702638 0.239581
vt 0.701394 0.976629
vt 0.601836 0.975385
vt 0.603081 0.238336
vt 0.874201 0.323277
vt 0.834125 0.323277
vt 0.834125 0.283201
vt 0.874201 0.283201
vt 0.714012 0.100389
vt 0.714012 0.060312
vt 0.794165 0.180542
vt 0.754089 0.180542
vt 0.754089 0.140465
vt 0.794165 0.140465
vt 0.754089 0.100389
vt 0.794165 0.100389
vt 0.754089 0.060312
vt 0.794165 0.060312
vt 0.794165 0.180542
vt 0.774127 0.180542
vt 0.754089 0.180542
vt 0.834241 0.100389
vt 0.834241 0.060312
vt 0.714012 0.100389
vt 0.714012 0.060312
vt 0.794165 0.060312
vt 0.814203 0.060312
vt 0.834241 0.060312
vt 0.751080 0.061870
vt 0.711005 0.062298
vt 0.711005 0.062298
vt 0.731043 0.062084
vt 0.751080 0.061870
vt 0.754089 0.060312
vt 0.774127 0.060312
vt 0.292874 0.132401
vt 0.292580 0.735855
vt 0.030408 0.735561
vt 0.030702 0.132107
vt 0.555045 0.132695
vt 0.554751 0.736149
vn -1.0000 0.0000 0.0000
vn 0.0000 -0.9323 -0.3616
vn 1.0000 0.0000 0.0000
vn 0.0000 0.9323 0.3616
vn 0.0000 -0.3616 0.9323
vn 0.0000 0.3616 -0.9323
vn 0.0000 0.0000 -1.0000
vn 0.0000 -1.0000 0.0000
vn 0.0000 1.0000 0.0000
vn 0.0000 0.7459 0.6661
vn 0.0000 0.0000 1.0000
usemtl Material.005
s off
f 1/1/1 2/2/1 4/3/1 3/4/1
f 3/4/2 4/3/2 8/5/2 7/6/2
f 7/6/3 8/5/3 6/7/3 5/8/3
f 5/9/4 6/10/4 2/11/4 1/12/4
f 3/13/5 7/14/5 5/15/5 1/16/5
f 8/5/6 4/17/6 2/18/6 6/7/6
f 9/19/1 10/20/1 12/21/1 11/22/1
f 11/22/7 12/21/7 16/23/7 15/24/7
f 15/24/3 16/23/3 14/25/3 13/26/3
f 10/20/3 9/19/3 17/27/3 21/28/3 18/29/3
f 11/30/8 15/24/8 13/26/8 9/31/8
f 16/23/9 12/32/9 10/33/9 14/25/9
f 9/31/10 13/26/10 20/34/10 23/35/10 17/36/10
f 14/37/8 10/38/8 18/39/8 24/40/8 19/41/8
f 13/26/1 14/25/1 19/42/1 22/43/1 20/34/1
f 23/44/11 25/45/11 21/46/11 17/47/11
f 20/48/11 22/49/11 25/45/11 23/44/11
f 26/50/1 27/51/1 29/52/1 28/53/1
f 28/53/2 29/52/2 33/54/2 32/55/2
f 32/55/3 33/54/3 31/56/3 30/57/3
f 30/58/4 31/59/4 27/60/4 26/61/4
f 28/62/5 32/63/5 30/64/5 26/65/5
f 33/54/6 29/66/6 27/67/6 31/56/6
f 34/68/1 35/69/1 37/70/1 36/71/1
f 36/71/7 37/70/7 41/72/7 40/73/7
f 40/73/3 41/72/3 39/74/3 38/75/3
f 35/69/3 34/68/3 42/76/3 46/77/3 43/78/3
f 36/79/8 40/73/8 38/75/8 34/80/8
f 41/72/9 37/81/9 35/82/9 39/74/9
f 34/80/10 38/75/10 45/83/10 48/84/10 42/85/10
f 39/86/8 35/87/8 43/88/8 49/89/8 44/90/8
f 38/75/1 39/74/1 44/91/1 47/92/1 45/83/1
f 48/93/11 50/94/11 46/95/11 42/96/11
f 45/97/11 47/98/11 50/94/11 48/93/11
f 51/99/1 52/100/1 54/101/1 53/102/1
f 53/102/2 54/101/2 58/103/2 57/104/2
f 57/104/3 58/103/3 56/105/3 55/106/3
f 55/107/4 56/108/4 52/109/4 51/110/4
f 53/111/5 57/112/5 55/113/5 51/114/5
f 58/103/6 54/115/6 52/116/6 56/105/6
f 59/117/1 60/118/1 62/119/1 61/120/1
f 61/120/7 62/119/7 66/121/7 65/122/7
f 65/122/3 66/121/3 64/123/3 63/124/3
f 60/118/3 59/117/3 67/125/3 71/126/3 68/127/3
f 61/128/8 65/122/8 63/124/8 59/129/8
f 66/121/9 62/130/9 60/131/9 64/123/9
f 59/129/10 63/124/10 70/132/10 73/133/10 67/134/10
f 64/135/8 60/136/8 68/137/8 74/138/8 69/139/8
f 63/124/1 64/123/1 69/140/1 72/141/1 70/132/1
f 73/142/11 75/143/11 71/144/11 67/145/11
f 70/146/11 72/147/11 75/143/11 73/142/11
f 76/148/1 77/149/1 79/150/1 78/151/1
f 78/151/2 79/150/2 83/152/2 82/153/2
f 82/153/3 83/152/3 81/154/3 80/155/3
f 80/156/4 81/157/4 77/158/4 76/159/4
f 78/160/5 82/161/5 80/162/5 76/163/5
f 83/152/6 79/164/6 77/165/6 81/154/6
f 84/166/1 85/167/1 87/168/1 86/169/1
f 86/169/7 87/168/7 91/170/7 90/171/7
f 90/171/3 91/170/3 89/172/3 88/173/3
f 85/167/3 84/166/3 92/174/3 96/175/3 93/176/3
f 86/177/8 90/171/8 88/173/8 84/178/8
f 91/170/9 87/179/9 85/180/9 89/172/9
f 84/178/10 88/173/10 95/181/10 98/182/10 92/183/10
f 89/184/8 85/185/8 93/186/8 99/187/8 94/188/8
f 88/173/1 89/172/1 94/189/1 97/190/1 95/181/1
f 98/191/11 100/192/11 96/193/11 92/194/11
f 95/195/11 97/196/11 100/192/11 98/191/11
