# Blender v2.91.0 OBJ File: 'circuit.blend'
# www.blender.org
mtllib pit_lane.mtl
o pit_lane_Cube.007
v -31.036903 -0.016499 37.258778
v -31.036903 0.016499 37.258778
v -31.036903 -0.016500 34.258778
v -31.036903 0.016500 34.258778
v -28.022125 -0.016499 37.258778
v -28.022125 0.016499 37.258778
v -28.022125 -0.016500 34.258778
v -28.022125 0.016500 34.258778
v -28.022125 -0.016499 37.258778
v -28.022125 0.016499 37.258778
v -28.022125 -0.016500 34.258778
v -28.022125 0.016500 34.258778
v -25.017660 -0.016499 37.258774
v -25.017660 0.016499 37.258774
v -25.017807 -0.016500 34.258774
v -25.017807 0.016500 34.258774
v -25.017660 -0.016499 37.258774
v -25.017660 0.016499 37.258774
v -25.017807 -0.016500 34.258774
v -25.017807 0.016500 34.258774
v -21.382381 -0.016501 36.633938
v -21.382381 0.016501 36.633938
v -22.392933 -0.016500 33.809261
v -22.392933 0.016500 33.809261
v -21.382381 -0.016501 36.633938
v -21.382381 0.016501 36.633938
v -22.392933 -0.016500 33.809261
v -22.392933 0.016500 33.809261
v -18.461227 -0.016499 35.450916
v -18.461227 0.016499 35.450916
v -19.674953 -0.016499 32.707397
v -19.674953 0.016499 32.707397
v -18.461227 -0.016499 35.450916
v -18.461227 0.016499 35.450916
v -19.674953 -0.016499 32.707397
v -19.674953 0.016499 32.707397
v -15.596918 -0.016501 34.042221
v -15.596918 0.016500 34.042221
v -17.058964 -0.016500 31.422596
v -17.058964 0.016500 31.422596
v -15.596918 -0.016501 34.042221
v -15.596918 0.016500 34.042221
v -17.058964 -0.016500 31.422596
v -17.058964 0.016500 31.422596
v -12.915362 -0.016500 32.340164
v -12.915362 0.016500 32.340164
v -14.594400 -0.016500 29.854038
v -14.594400 0.016500 29.854038
v -12.915362 -0.016500 32.340164
v -12.915362 0.016500 32.340164
v -14.594400 -0.016500 29.854038
v -14.594400 0.016500 29.854038
v -10.500923 -0.016501 30.758858
v -10.500923 0.016501 30.758858
v -12.042410 -0.016500 28.185179
v -12.042410 0.016500 28.185179
v -10.500923 -0.016501 30.758858
v -10.500923 0.016501 30.758858
v -12.042410 -0.016500 28.185179
v -12.042410 0.016500 28.185179
v -8.108221 -0.016499 29.600941
v -8.108221 0.016499 29.600941
v -9.213930 -0.016500 26.812138
v -9.213930 0.016500 26.812138
v -8.108221 -0.016499 29.600941
v -8.108221 0.016499 29.600941
v -9.213930 -0.016500 26.812138
v -9.213930 0.016500 26.812138
v -5.473259 -0.016501 28.711790
v -5.473259 0.016501 28.711790
v -6.282568 -0.016500 25.823013
v -6.282568 0.016500 25.823013
v -5.473259 -0.016501 28.711790
v -5.473259 0.016501 28.711790
v -6.282568 -0.016500 25.823013
v -6.282568 0.016500 25.823013
v -2.763123 -0.016500 28.107679
v -2.763123 0.016500 28.107679
v -3.261305 -0.016500 25.149334
v -3.261305 0.016500 25.149334
v -2.763123 -0.016500 28.107679
v -2.763123 0.016500 28.107679
v -3.261305 -0.016500 25.149334
v -3.261305 0.016500 25.149334
v 0.035669 -0.016500 27.764986
v 0.035669 0.016500 27.764986
v -0.206743 -0.016500 24.774796
v -0.206743 0.016500 24.774796
v 0.035669 -0.016500 27.764986
v 0.035669 0.016500 27.764986
v -0.206743 -0.016500 24.774796
v -0.206743 0.016500 24.774796
v 2.862383 -0.016499 27.647793
v 2.862383 0.016499 27.647793
v 2.864088 -0.016500 24.647793
v 2.864088 0.016500 24.647793
v 2.862383 -0.016499 27.647793
v 2.862383 0.016499 27.647793
v 2.864088 -0.016500 24.647793
v 2.864088 0.016500 24.647793
v 5.641790 -0.016499 27.788136
v 5.641790 0.016499 27.788136
v 5.952978 -0.016500 24.804319
v 5.952978 0.016500 24.804319
v 5.641790 -0.016499 27.788136
v 5.641790 0.016499 27.788136
v 5.952978 -0.016500 24.804319
v 5.952978 0.016500 24.804319
v 8.394186 -0.016500 28.223904
v 8.394186 0.016500 28.223904
v 9.006346 -0.016500 25.287025
v 9.006346 0.016500 25.287025
v 8.394186 -0.016500 28.223904
v 8.394186 0.016500 28.223904
v 9.006346 -0.016500 25.287025
v 9.006346 0.016500 25.287025
v 11.161581 -0.016500 28.912275
v 11.161581 0.016500 28.912275
v 11.979765 -0.016499 26.026003
v 11.979765 0.016499 26.026003
v 11.161581 -0.016500 28.912275
v 11.161581 0.016500 28.912275
v 11.979765 -0.016499 26.026003
v 11.979765 0.016499 26.026003
v 13.950911 -0.016501 29.770191
v 13.950911 0.016501 29.770191
v 14.881155 -0.016499 26.918060
v 14.881155 0.016499 26.918060
v 13.950911 -0.016501 29.770191
v 13.950911 0.016501 29.770191
v 14.881155 -0.016499 26.918060
v 14.881155 0.016499 26.918060
v 16.771063 -0.016500 30.715771
v 16.771063 0.016500 30.715771
v 17.736113 -0.016500 27.875229
v 17.736113 0.016500 27.875229
v 16.771063 -0.016500 30.715771
v 16.771063 0.016500 30.715771
v 17.736113 -0.016500 27.875229
v 17.736113 0.016500 27.875229
v 19.750212 -0.016500 31.659718
v 19.750212 0.016500 31.659718
v 20.542585 -0.016500 28.766251
v 20.542585 0.016500 28.766251
v 19.750212 -0.016500 31.659718
v 19.750212 0.016500 31.659718
v 20.542585 -0.016500 28.766251
v 20.542585 0.016500 28.766251
v 22.908453 -0.016499 32.336494
v 22.908453 0.016499 32.336494
v 23.375235 -0.016500 29.373030
v 23.375235 0.016500 29.373030
vt 0.375000 0.000000
vt 0.625000 0.000000
vt 0.625000 0.250000
vt 0.375000 0.250000
vt 0.625000 0.500000
vt 0.375000 0.500000
vt 0.625000 0.750000
vt 0.375000 0.750000
vt 0.625000 1.000000
vt 0.375000 1.000000
vt 0.125000 0.500000
vt 0.125000 0.750000
vt -2.514980 -2.639980
vt 4.014980 -2.639980
vt 4.014980 3.889980
vt -2.514980 3.889980
vt 0.375000 0.000000
vt 0.625000 0.000000
vt 0.625000 0.250000
vt 0.375000 0.250000
vt 0.625000 0.500000
vt 0.375000 0.500000
vt 0.625000 0.750000
vt 0.375000 0.750000
vt 0.625000 1.000000
vt 0.375000 1.000000
vt 0.125000 0.500000
vt 0.125000 0.750000
vt -2.514980 -2.639980
vt 4.014980 -2.639980
vt 4.014980 3.889980
vt -2.514980 3.889980
vt 0.375000 0.000000
vt 0.625000 0.000000
vt 0.625000 0.250000
vt 0.375000 0.250000
vt 0.625000 0.500000
vt 0.375000 0.500000
vt 0.625000 0.750000
vt 0.375000 0.750000
vt 0.625000 1.000000
vt 0.375000 1.000000
vt 0.125000 0.500000
vt 0.125000 0.750000
vt -2.514980 -2.639980
vt 4.014980 -2.639980
vt 4.014980 3.889980
vt -2.514980 3.889980
vt 0.375000 0.000000
vt 0.625000 0.000000
vt 0.625000 0.250000
vt 0.375000 0.250000
vt 0.625000 0.500000
vt 0.375000 0.500000
vt 0.625000 0.750000
vt 0.375000 0.750000
vt 0.625000 1.000000
vt 0.375000 1.000000
vt 0.125000 0.500000
vt 0.125000 0.750000
vt -2.514980 -2.639980
vt 4.014980 -2.639980
vt 4.014980 3.889980
vt -2.514980 3.889980
vt 0.375000 0.000000
vt 0.625000 0.000000
vt 0.625000 0.250000
vt 0.375000 0.250000
vt 0.625000 0.500000
vt 0.375000 0.500000
vt 0.625000 0.750000
vt 0.375000 0.750000
vt 0.625000 1.000000
vt 0.375000 1.000000
vt 0.125000 0.500000
vt 0.125000 0.750000
vt -2.514980 -2.639980
vt 4.014980 -2.639980
vt 4.014980 3.889980
vt -2.514980 3.889980
vt 0.375000 0.000000
vt 0.625000 0.000000
vt 0.625000 0.250000
vt 0.375000 0.250000
vt 0.625000 0.500000
vt 0.375000 0.500000
vt 0.625000 0.750000
vt 0.375000 0.750000
vt 0.625000 1.000000
vt 0.375000 1.000000
vt 0.125000 0.500000
vt 0.125000 0.750000
vt -2.514980 -2.639980
vt 4.014980 -2.639980
vt 4.014980 3.889980
vt -2.514980 3.889980
vt 0.375000 0.000000
vt 0.625000 0.000000
vt 0.625000 0.250000
vt 0.375000 0.250000
vt 0.625000 0.500000
vt 0.375000 0.500000
vt 0.625000 0.750000
vt 0.375000 0.750000
vt 0.625000 1.000000
vt 0.375000 1.000000
vt 0.125000 0.500000
vt 0.125000 0.750000
vt -2.514980 -2.639980
vt 4.014980 -2.639980
vt 4.014980 3.889980
vt -2.514980 3.889980
vt 0.375000 0.000000
vt 0.625000 0.000000
vt 0.625000 0.250000
vt 0.375000 0.250000
vt 0.625000 0.500000
vt 0.375000 0.500000
vt 0.625000 0.750000
vt 0.375000 0.750000
vt 0.625000 1.000000
vt 0.375000 1.000000
vt 0.125000 0.500000
vt 0.125000 0.750000
vt -2.514980 -2.639980
vt 4.014980 -2.639980
vt 4.014980 3.889980
vt -2.514980 3.889980
vt 0.375000 0.000000
vt 0.625000 0.000000
vt 0.625000 0.250000
vt 0.375000 0.250000
vt 0.625000 0.500000
vt 0.375000 0.500000
vt 0.625000 0.750000
vt 0.375000 0.750000
vt 0.625000 1.000000
vt 0.375000 1.000000
vt 0.125000 0.500000
vt 0.125000 0.750000
vt -2.514980 -2.639980
vt 4.014980 -2.639980
vt 4.014980 3.889980
vt -2.514980 3.889980
vt 0.375000 0.000000
vt 0.625000 0.000000
vt 0.625000 0.250000
vt 0.375000 0.250000
vt 0.625000 0.500000
vt 0.375000 0.500000
vt 0.625000 0.750000
vt 0.375000 0.750000
vt 0.625000 1.000000
vt 0.375000 1.000000
vt 0.125000 0.500000
vt 0.125000 0.750000
vt -2.514980 -2.639980
vt 4.014980 -2.639980
vt 4.014980 3.889980
vt -2.514980 3.889980
vt 0.375000 0.000000
vt 0.625000 0.000000
vt 0.625000 0.250000
vt 0.375000 0.250000
vt 0.625000 0.500000
vt 0.375000 0.500000
vt 0.625000 0.750000
vt 0.375000 0.750000
vt 0.625000 1.000000
vt 0.375000 1.000000
vt 0.125000 0.500000
vt 0.125000 0.750000
vt -2.514980 -2.639980
vt 4.014980 -2.639980
vt 4.014980 3.889980
vt -2.514980 3.889980
vt 0.375000 0.000000
vt 0.625000 0.000000
vt 0.625000 0.250000
vt 0.375000 0.250000
vt 0.625000 0.500000
vt 0.375000 0.500000
vt 0.625000 0.750000
vt 0.375000 0.750000
vt 0.625000 1.000000
vt 0.375000 1.000000
vt 0.125000 0.500000
vt 0.125000 0.750000
vt -2.514980 -2.639980
vt 4.014980 -2.639980
vt 4.014980 3.889980
vt -2.514980 3.889980
vt 0.375000 0.000000
vt 0.625000 0.000000
vt 0.625000 0.250000
vt 0.375000 0.250000
vt 0.625000 0.500000
vt 0.375000 0.500000
vt 0.625000 0.750000
vt 0.375000 0.750000
vt 0.625000 1.000000
vt 0.375000 1.000000
vt 0.125000 0.500000
vt 0.125000 0.750000
vt -2.514980 -2.639980
vt 4.014980 -2.639980
vt 4.014980 3.889980
vt -2.514980 3.889980
vt 0.375000 0.000000
vt 0.625000 0.000000
vt 0.625000 0.250000
vt 0.375000 0.250000
vt 0.625000 0.500000
vt 0.375000 0.500000
vt 0.625000 0.750000
vt 0.375000 0.750000
vt 0.625000 1.000000
vt 0.375000 1.000000
vt 0.125000 0.500000
vt 0.125000 0.750000
vt -2.514980 -2.639980
vt 4.014980 -2.639980
vt 4.014980 3.889980
vt -2.514980 3.889980
vt 0.375000 0.000000
vt 0.625000 0.000000
vt 0.625000 0.250000
vt 0.375000 0.250000
vt 0.625000 0.500000
vt 0.375000 0.500000
vt 0.625000 0.750000
vt 0.375000 0.750000
vt 0.625000 1.000000
vt 0.375000 1.000000
vt 0.125000 0.500000
vt 0.125000 0.750000
vt -2.514980 -2.639980
vt 4.014980 -2.639980
vt 4.014980 3.889980
vt -2.514980 3.889980
vt 0.375000 0.000000
vt 0.625000 0.000000
vt 0.625000 0.250000
vt 0.375000 0.250000
vt 0.625000 0.500000
vt 0.375000 0.500000
vt 0.625000 0.750000
vt 0.375000 0.750000
vt 0.625000 1.000000
vt 0.375000 1.000000
vt 0.125000 0.500000
vt 0.125000 0.750000
vt -2.514980 -2.639980
vt 4.014980 -2.639980
vt 4.014980 3.889980
vt -2.514980 3.889980
vt 0.375000 0.000000
vt 0.625000 0.000000
vt 0.625000 0.250000
vt 0.375000 0.250000
vt 0.625000 0.500000
vt 0.375000 0.500000
vt 0.625000 0.750000
vt 0.375000 0.750000
vt 0.625000 1.000000
vt 0.375000 1.000000
vt 0.125000 0.500000
vt 0.125000 0.750000
vt -2.514980 -2.639980
vt 4.014980 -2.639980
vt 4.014980 3.889980
vt -2.514980 3.889980
vt 0.375000 0.000000
vt 0.625000 0.000000
vt 0.625000 0.250000
vt 0.375000 0.250000
vt 0.625000 0.500000
vt 0.375000 0.500000
vt 0.625000 0.750000
vt 0.375000 0.750000
vt 0.625000 1.000000
vt 0.375000 1.000000
vt 0.125000 0.500000
vt 0.125000 0.750000
vt -2.514980 -2.639980
vt 4.014980 -2.639980
vt 4.014980 3.889980
vt -2.514980 3.889980
vt 0.375000 0.000000
vt 0.625000 0.000000
vt 0.625000 0.250000
vt 0.375000 0.250000
vt 0.625000 0.500000
vt 0.375000 0.500000
vt 0.625000 0.750000
vt 0.375000 0.750000
vt 0.625000 1.000000
vt 0.375000 1.000000
vt 0.125000 0.500000
vt 0.125000 0.750000
vt -2.514980 -2.639980
vt 4.014980 -2.639980
vt 4.014980 3.889980
vt -2.514980 3.889980
vn -0.5773 -0.5773 0.5773
vn -0.5773 0.5773 0.5773
vn -0.5773 0.5773 -0.5773
vn -0.5773 -0.5773 -0.5773
vn 0.5773 0.5773 -0.5773
vn 0.5773 -0.5773 -0.5773
vn 0.5773 0.5773 0.5773
vn 0.5773 -0.5773 0.5773
vn -0.5300 -0.5689 0.6288
vn -0.5300 0.5689 0.6288
vn -0.6190 0.5868 -0.5220
vn -0.6190 -0.5868 -0.5220
vn 0.4084 0.5870 -0.6990
vn 0.4084 -0.5870 -0.6990
vn 0.7103 0.5688 0.4147
vn 0.7103 -0.5688 0.4147
vn -0.3345 -0.5752 0.7465
vn -0.3345 0.5752 0.7465
vn -0.7437 0.5795 -0.3330
vn -0.7437 -0.5795 -0.3330
vn 0.3059 0.5790 -0.7558
vn 0.3059 -0.5790 -0.7558
vn 0.7579 0.5757 0.3069
vn 0.7579 -0.5757 0.3069
vn -0.2794 -0.5752 0.7688
vn -0.2794 0.5752 0.7688
vn -0.7659 0.5795 -0.2786
vn -0.7659 -0.5795 -0.2786
vn 0.2427 0.5802 -0.7775
vn 0.2427 -0.5802 -0.7775
vn 0.7812 0.5747 0.2437
vn 0.7812 -0.5747 0.2437
vn -0.2010 -0.5744 0.7935
vn -0.2010 0.5744 0.7935
vn -0.7895 0.5804 -0.1995
vn -0.7895 -0.5804 -0.1995
vn 0.1660 0.5788 -0.7984
vn 0.1660 -0.5788 -0.7984
vn 0.8003 0.5759 0.1669
vn 0.8003 -0.5759 0.1669
vn -0.1609 -0.5781 0.7999
vn -0.1609 0.5781 0.7999
vn -0.8009 0.5766 -0.1614
vn -0.8009 -0.5766 -0.1614
vn 0.1833 0.5753 -0.7971
vn 0.1833 -0.5753 -0.7971
vn 0.7943 0.5795 0.1823
vn 0.7943 -0.5795 0.1823
vn -0.2326 -0.5822 0.7790
vn -0.2326 0.5822 0.7790
vn -0.7855 0.5729 -0.2340
vn -0.7855 -0.5729 -0.2340
vn 0.2968 0.5735 -0.7635
vn 0.2968 -0.5735 -0.7635
vn 0.7582 0.5813 0.2952
vn 0.7582 -0.5813 0.2952
vn -0.3424 -0.5801 0.7390
vn -0.3424 0.5801 0.7390
vn -0.7425 0.5746 -0.3441
vn -0.7425 -0.5746 -0.3441
vn 0.3823 0.5746 -0.7236
vn 0.3823 -0.5746 -0.7236
vn 0.7201 0.5801 0.3805
vn 0.7201 -0.5801 0.3805
vn -0.4181 -0.5802 0.6989
vn -0.4181 0.5802 0.6989
vn -0.7024 0.5746 -0.4202
vn -0.7024 -0.5746 -0.4202
vn 0.4569 0.5746 -0.6790
vn 0.4569 -0.5746 -0.6790
vn 0.6757 0.5802 0.4547
vn 0.6757 -0.5802 0.4547
vn -0.4873 -0.5797 0.6530
vn -0.4873 0.5797 0.6530
vn -0.6557 0.5750 -0.4892
vn -0.6557 -0.5750 -0.4892
vn 0.5168 0.5752 -0.6340
vn 0.5168 -0.5752 -0.6340
vn 0.6316 0.5795 0.5150
vn 0.6316 -0.5795 0.5150
vn -0.5400 -0.5794 0.6104
vn -0.5400 0.5794 0.6104
vn -0.6126 0.5753 -0.5419
vn -0.6126 -0.5753 -0.5419
vn 0.5665 0.5752 -0.5901
vn 0.5665 -0.5752 -0.5901
vn 0.5879 0.5796 0.5643
vn 0.5879 -0.5796 0.5643
vn -0.5905 -0.5800 0.5611
vn -0.5905 0.5800 0.5611
vn -0.5636 0.5748 -0.5932
vn -0.5636 -0.5748 -0.5932
vn 0.6217 0.5746 -0.5323
vn 0.6217 -0.5746 -0.5323
vn 0.5298 0.5802 0.6186
vn 0.5298 -0.5802 0.6186
vn -0.6460 -0.5802 0.4961
vn -0.6460 0.5802 0.4961
vn -0.4986 0.5746 -0.6490
vn -0.4986 -0.5746 -0.6490
vn 0.6734 0.5748 -0.4649
vn 0.6734 -0.5748 -0.4649
vn 0.4628 0.5799 0.6704
vn 0.4628 -0.5799 0.6704
vn -0.6902 -0.5794 0.4335
vn -0.6902 0.5794 0.4335
vn -0.4350 0.5754 -0.6926
vn -0.4350 -0.5754 -0.6926
vn 0.7074 0.5756 -0.4102
vn 0.7074 -0.5756 -0.4102
vn 0.4089 0.5791 0.7053
vn 0.4089 -0.5791 0.7053
vn -0.7165 -0.5785 0.3897
vn -0.7165 0.5785 0.3897
vn -0.3905 0.5762 -0.7180
vn -0.3905 -0.5762 -0.7180
vn 0.7253 0.5764 -0.3763
vn 0.7253 -0.5764 -0.3763
vn 0.3757 0.5782 0.7242
vn 0.3757 -0.5782 0.7242
vn -0.7291 -0.5778 0.3667
vn -0.7291 0.5778 0.3667
vn -0.3670 0.5769 -0.7297
vn -0.3670 -0.5769 -0.7297
vn 0.7318 0.5771 -0.3625
vn 0.7318 -0.5771 -0.3625
vn 0.3623 0.5775 0.7315
vn 0.3623 -0.5775 0.7315
vn -0.7293 -0.5763 0.3688
vn -0.7293 0.5763 0.3688
vn -0.3679 0.5784 -0.7280
vn -0.3679 -0.5784 -0.7280
vn 0.7160 0.5795 -0.3893
vn 0.7160 -0.5795 -0.3893
vn 0.3909 0.5753 0.7185
vn 0.3909 -0.5753 0.7185
vn -0.6994 -0.5744 0.4252
vn -0.6994 0.5744 0.4252
vn -0.4230 0.5803 -0.6959
vn -0.4230 -0.5803 -0.6959
vn 0.6713 0.5803 -0.4610
vn 0.6713 -0.5803 -0.4610
vn 0.4633 0.5745 0.6747
vn 0.4633 -0.5745 0.6747
usemtl Material.009
s 1
f 1/1/1 2/2/2 4/3/3 3/4/4
f 3/4/4 4/3/3 8/5/5 7/6/6
f 7/6/6 8/5/5 6/7/7 5/8/8
f 5/8/8 6/7/7 2/9/2 1/10/1
f 3/11/4 7/6/6 5/8/8 1/12/1
f 8/13/5 4/14/3 2/15/2 6/16/7
f 9/17/1 10/18/2 12/19/3 11/20/4
f 11/20/4 12/19/3 16/21/5 15/22/6
f 15/22/6 16/21/5 14/23/7 13/24/8
f 13/24/8 14/23/7 10/25/2 9/26/1
f 11/27/4 15/22/6 13/24/8 9/28/1
f 16/29/5 12/30/3 10/31/2 14/32/7
f 17/33/9 18/34/10 20/35/11 19/36/12
f 19/36/12 20/35/11 24/37/13 23/38/14
f 23/38/14 24/37/13 22/39/15 21/40/16
f 21/40/16 22/39/15 18/41/10 17/42/9
f 19/43/12 23/38/14 21/40/16 17/44/9
f 24/45/13 20/46/11 18/47/10 22/48/15
f 25/49/17 26/50/18 28/51/19 27/52/20
f 27/52/20 28/51/19 32/53/21 31/54/22
f 31/54/22 32/53/21 30/55/23 29/56/24
f 29/56/24 30/55/23 26/57/18 25/58/17
f 27/59/20 31/54/22 29/56/24 25/60/17
f 32/61/21 28/62/19 26/63/18 30/64/23
f 33/65/25 34/66/26 36/67/27 35/68/28
f 35/68/28 36/67/27 40/69/29 39/70/30
f 39/70/30 40/69/29 38/71/31 37/72/32
f 37/72/32 38/71/31 34/73/26 33/74/25
f 35/75/28 39/70/30 37/72/32 33/76/25
f 40/77/29 36/78/27 34/79/26 38/80/31
f 41/81/33 42/82/34 44/83/35 43/84/36
f 43/84/36 44/83/35 48/85/37 47/86/38
f 47/86/38 48/85/37 46/87/39 45/88/40
f 45/88/40 46/87/39 42/89/34 41/90/33
f 43/91/36 47/86/38 45/88/40 41/92/33
f 48/93/37 44/94/35 42/95/34 46/96/39
f 49/97/41 50/98/42 52/99/43 51/100/44
f 51/100/44 52/99/43 56/101/45 55/102/46
f 55/102/46 56/101/45 54/103/47 53/104/48
f 53/104/48 54/103/47 50/105/42 49/106/41
f 51/107/44 55/102/46 53/104/48 49/108/41
f 56/109/45 52/110/43 50/111/42 54/112/47
f 57/113/49 58/114/50 60/115/51 59/116/52
f 59/116/52 60/115/51 64/117/53 63/118/54
f 63/118/54 64/117/53 62/119/55 61/120/56
f 61/120/56 62/119/55 58/121/50 57/122/49
f 59/123/52 63/118/54 61/120/56 57/124/49
f 64/125/53 60/126/51 58/127/50 62/128/55
f 65/129/57 66/130/58 68/131/59 67/132/60
f 67/132/60 68/131/59 72/133/61 71/134/62
f 71/134/62 72/133/61 70/135/63 69/136/64
f 69/136/64 70/135/63 66/137/58 65/138/57
f 67/139/60 71/134/62 69/136/64 65/140/57
f 72/141/61 68/142/59 66/143/58 70/144/63
f 73/145/65 74/146/66 76/147/67 75/148/68
f 75/148/68 76/147/67 80/149/69 79/150/70
f 79/150/70 80/149/69 78/151/71 77/152/72
f 77/152/72 78/151/71 74/153/66 73/154/65
f 75/155/68 79/150/70 77/152/72 73/156/65
f 80/157/69 76/158/67 74/159/66 78/160/71
f 81/161/73 82/162/74 84/163/75 83/164/76
f 83/164/76 84/163/75 88/165/77 87/166/78
f 87/166/78 88/165/77 86/167/79 85/168/80
f 85/168/80 86/167/79 82/169/74 81/170/73
f 83/171/76 87/166/78 85/168/80 81/172/73
f 88/173/77 84/174/75 82/175/74 86/176/79
f 89/177/81 90/178/82 92/179/83 91/180/84
f 91/180/84 92/179/83 96/181/85 95/182/86
f 95/182/86 96/181/85 94/183/87 93/184/88
f 93/184/88 94/183/87 90/185/82 89/186/81
f 91/187/84 95/182/86 93/184/88 89/188/81
f 96/189/85 92/190/83 90/191/82 94/192/87
f 97/193/89 98/194/90 100/195/91 99/196/92
f 99/196/92 100/195/91 104/197/93 103/198/94
f 103/198/94 104/197/93 102/199/95 101/200/96
f 101/200/96 102/199/95 98/201/90 97/202/89
f 99/203/92 103/198/94 101/200/96 97/204/89
f 104/205/93 100/206/91 98/207/90 102/208/95
f 105/209/97 106/210/98 108/211/99 107/212/100
f 107/212/100 108/211/99 112/213/101 111/214/102
f 111/214/102 112/213/101 110/215/103 109/216/104
f 109/216/104 110/215/103 106/217/98 105/218/97
f 107/219/100 111/214/102 109/216/104 105/220/97
f 112/221/101 108/222/99 106/223/98 110/224/103
f 113/225/105 114/226/106 116/227/107 115/228/108
f 115/228/108 116/227/107 120/229/109 119/230/110
f 119/230/110 120/229/109 118/231/111 117/232/112
f 117/232/112 118/231/111 114/233/106 113/234/105
f 115/235/108 119/230/110 117/232/112 113/236/105
f 120/237/109 116/238/107 114/239/106 118/240/111
f 121/241/113 122/242/114 124/243/115 123/244/116
f 123/244/116 124/243/115 128/245/117 127/246/118
f 127/246/118 128/245/117 126/247/119 125/248/120
f 125/248/120 126/247/119 122/249/114 121/250/113
f 123/251/116 127/246/118 125/248/120 121/252/113
f 128/253/117 124/254/115 122/255/114 126/256/119
f 129/257/121 130/258/122 132/259/123 131/260/124
f 131/260/124 132/259/123 136/261/125 135/262/126
f 135/262/126 136/261/125 134/263/127 133/264/128
f 133/264/128 134/263/127 130/265/122 129/266/121
f 131/267/124 135/262/126 133/264/128 129/268/121
f 136/269/125 132/270/123 130/271/122 134/272/127
f 137/273/129 138/274/130 140/275/131 139/276/132
f 139/276/132 140/275/131 144/277/133 143/278/134
f 143/278/134 144/277/133 142/279/135 141/280/136
f 141/280/136 142/279/135 138/281/130 137/282/129
f 139/283/132 143/278/134 141/280/136 137/284/129
f 144/285/133 140/286/131 138/287/130 142/288/135
f 145/289/137 146/290/138 148/291/139 147/292/140
f 147/292/140 148/291/139 152/293/141 151/294/142
f 151/294/142 152/293/141 150/295/143 149/296/144
f 149/296/144 150/295/143 146/297/138 145/298/137
f 147/299/140 151/294/142 149/296/144 145/300/137
f 152/301/141 148/302/139 146/303/138 150/304/143
